<svg xmlns="http://www.w3.org/2000/svg" xmlns:xlink="http://www.w3.org/1999/xlink" width="512" height="512" viewBox="0 0 512 512"><defs><path id="a" d="M12.25 302.027c-1.334-6.016-2.747-14.143-3.22-20.286-.46-5.964-1.302-13.904-1.514-19.883-.212-5.99-.148-13.988.1-19.976.25-5.94.733-13.878 1.707-19.743 1.89-11.37 4.685-26.524 7.822-37.615 1.592-5.63 4.12-13.023 6.188-18.497 2.01-5.32 5.177-12.22 7.396-17.457 2.29-5.406 6.11-12.267 9.01-17.373 2.98-5.253 7.093-12.207 10.667-17.076 6.6-8.992 15.768-20.737 23.2-29.054 4.217-4.72 10.348-10.547 15.01-14.83 3.965-3.643 9.58-8.13 13.724-11.57 5.763-4.777 14.2-10.172 20.406-14.357.077-.053 9.566-6.123 19.742-11.173 4.584-2.275 11.964-5.795 23.078-10.078 10.23-3.943 19.915-6.965 25.568-8.48 2.454-.656 6.56-1.755 13.33-3.158.034-.007 3.452-.71 6.54-1.26 4.065-.723 6.763-1.116 7.058-1.158 1.88-.27 7.598-1.096 12.355-1.534 3.622-.333 9.096-.838 15.643-1.045 2.746-.087 6.41-.16 9.158-.15 3.038.014 7.087.158 10.124.235 3.113.08 7.252.47 10.36.67 96.887 8.333 180.98 83.228 202.62 190.875 26.716 132.89-51.853 265.355-175.486 295.882C426.47 463.41 505.038 330.945 478.323 198.055 456.683 90.41 372.588 15.515 275.7 7.18c8.615.98 20.137 2.285 28.6 4.17 5.438 1.21 12.675 2.903 18.032 4.43 5.213 1.486 12.128 3.63 17.175 5.606 5.407 2.116 12.612 4.965 17.894 7.38 5.083 2.322 11.736 5.69 16.625 8.398 18.92 10.474 31.726 20.862 31.85 20.964 4.476 3.68 10.505 8.52 14.798 12.41 4.217 3.82 9.643 9.136 13.55 13.274 9.165 9.71 17.564 20.202 24.19 29.973 3.2 4.717 11.484 16.964 19.427 33.847 2.548 5.417 5.673 12.772 7.782 18.375 2.11 5.6 4.476 13.226 6.268 18.936 2.768 8.814 5.39 20.916 6.654 30.067.823 5.97 1.872 13.946 2.326 19.956.454 6.017.82 14.068.698 20.1-.237 11.672-1.414 27.254-3.324 38.77-2.575 15.52-5.264 24.272-9.333 37.52-1.717 5.592-4.625 12.85-6.904 18.237-2.21 5.227-5.442 12.08-8.05 17.12-2.707 5.23-6.604 12.055-9.707 17.06-2.967 4.783-7.336 10.895-10.51 15.543-3.405 4.987-8.608 11.164-12.546 15.743-3.616 4.206-8.817 9.478-12.614 13.522-4.45 4.738-11.023 10.43-16.015 14.592-15.51 12.935-32.604 23.94-50.81 32.71-6.577 3.168-13.093 5.757-15.546 6.73-5.922 2.354-10.89 4.032-15.272 5.514-.063.02-6.537 2.188-13.375 4.026-5.598 1.505-10.108 2.458-13.093 3.09-6.686 1.35-24.445 4.938-48.148 5.14-2.007.016-12.55.052-23.088-.897-7.5-.677-17.457-2.064-24.862-3.427-5.51-1.015-12.85-2.532-18.205-4.182-10.302-3.173-23.896-7.89-33.913-11.87-5.56-2.21-12.676-5.86-17.96-8.668-5.123-2.724-11.86-6.558-16.7-9.758-9.416-6.226-21.343-15.456-30.102-22.577-4.52-3.675-9.872-9.34-14.09-13.355-2.83-2.692-15.94-16.86-24.643-29.56-3.318-4.84-7.664-11.354-10.667-16.396-2.983-5.01-6.49-11.956-9.27-17.08-2.81-5.18-5.632-12.54-7.96-17.95-2.878-6.68-5.757-15.974-7.82-22.948-1.725-5.83-3.477-13.754-4.793-19.69z"/></defs><clipPath id="b"><use xlink:href="#a" overflow="visible"/></clipPath><g fill="#0D47A1" clip-path="url(#b)"><path d="M246.083 499.857c-.723-.05-.815-.056-2.83-.12-19.62-.605-38.806-3.688-57.202-9.01l7.188 1.96c21.072 4.694 21.895 4.878 39.996 6.8 5.603.36 13.08.74 18.692.892-1.234-.01-2.344-.053-3.314-.137-1.03-.088-1.87-.218-2.53-.386M351.198 480.598c-.262.115-1.152.503-1.64.697-.252.097-.51.193-.773.292l2.583-1.063c-.052.022-.12.05-.17.074M360.28 476.052c-1.74.8-1.985.92-2.473 1.16-1.165.946-3.154 2.003-5.957 3.172.585-.263 1.172-.52 1.757-.782.47-.21.936-.42 1.402-.635 2.568-1.162 5.985-2.73 8.528-3.95 18.202-9.604 18.55-9.788 35.11-21.058 4.29-3.325 10.12-7.616 14.285-11.096.02-.018.043-.035.064-.053-.566.47-1.134.94-1.703 1.405-15.374 12.607-32.468 23.35-51.013 31.837"/></g><g><defs><path id="c" d="M233.233 499.486c-4.563-.452-10.658-1.017-15.18-1.785-7.487-1.272-17.44-3.198-24.816-5.014-10.462-2.575-24.133-7.214-34.05-11.428-6.013-2.556-13.9-6.28-19.7-9.287-4.96-2.568-11.4-6.33-16.143-9.28-5.134-3.195-11.777-7.78-16.635-11.38-4.543-3.367-10.275-8.276-14.674-11.83-4.592-3.707-10.177-9.286-14.312-13.497-3.998-4.073-9.112-9.72-12.776-14.097-3.777-4.51-8.577-10.722-11.99-15.513-3.35-4.708-7.39-11.28-10.537-16.127-3.23-4.978-6.838-12.05-9.467-17.37-2.61-5.278-5.592-12.553-7.982-17.936-2.457-5.533-4.928-13.25-6.688-19.043-2.146-7.067-4.808-16.587-6.032-23.87-1.007-5.995-2.476-13.974-3.188-20.01-.71-6.024-1.498-14.096-1.547-20.16-.094-11.736.276-27.436 1.726-39.082 2.556-20.523 7.363-36.5 7.903-38.254 3.35-10.887 8.563-25.214 13.387-35.534 7.99-17.096 16.072-29.196 18.728-33.172 6.87-10.284 14.757-20.302 23.445-29.774 11.14-12.145 20.052-19.524 27.213-25.453 4.32-3.58 10.31-8.094 15.02-11.146 3.903-2.53 9.065-5.976 13.063-8.354 3.984-2.372 9.414-5.34 13.532-7.47 3.377-1.75 7.993-3.86 11.472-5.397 3.44-1.52 8.09-3.404 11.59-4.787 3.307-1.308 7.773-2.912 11.136-4.072 3.02-1.04 7.082-2.34 10.14-3.27 2.57-.78 6.022-1.74 8.626-2.394 5.248-1.318 9.926-2.267 9.965-2.274h.002c.652-.12 1.518-.307 2.168-.438.163-.033 4.047-.814 8.98-1.603 4.873-.776 9.804-1.415 14.656-1.896 22.02-2.184 38.426-.867 45.433-.304-22.712-1.954-46.126-.25-69.604 5.547 23.478-5.797 46.892-7.5 69.603-5.547 9.25 1.09 21.603 2.64 30.707 4.612 9.26 2.005 21.557 5.173 30.384 8.614 5.867 2.287 13.72 5.27 19.47 7.838 5.1 2.28 11.756 5.644 16.663 8.314 5.246 2.854 12.07 6.977 17.07 10.24 4.73 3.086 10.973 7.326 15.336 10.91 4.53 3.723 10.652 8.6 15.01 12.53 4.224 3.81 9.655 9.117 13.57 13.246 9.16 9.664 17.58 20.143 24.31 30.02 3.228 4.74 11.53 16.996 19.492 33.863 2.312 4.897 8.992 19.32 14.1 37.307 4.287 15.104 5.763 23.49 8.056 39.965 1.248 8.962 1.88 21.068 1.7 30.116-.23 11.673-1.373 27.26-3.277 38.78-2.673 16.178-6.577 29.494-9.38 37.815-8.19 24.302-19.43 46.218-34.69 67.3-7.18 9.92-15.426 19.607-24.51 28.795-11.526 11.657-21.35 19.183-27.85 24.16-4.36 3.34-10.396 7.51-15.083 10.374-6.822 4.166-16.046 9.55-23.24 13.034-2.81 1.36-10.27 4.98-20.687 8.894-11.72 4.405-19.313 6.562-23.85 7.85-4.678 1.328-13.267 3.38-21.07 4.743-6.388 1.117-9.802 1.562-12.546 1.918-3.924.51-6.47.74-11.094 1.155-3.46.313-6.924.468-10.936.647-2.11.095-4.924.163-7.035.16-3.013-.008-7.03-.01-10.04-.126-3.916-.148-9.144-.382-13.047-.768z"/></defs><clipPath id="d"><use xlink:href="#c" overflow="visible"/></clipPath><g clip-path="url(#d)"><path fill="#66ACFF" d="M59.25 171.238c-.536 1.527-1.29 2.354-2.303 2.526-7.014.134-13.127-.005-18.192-.44-3.703-.32-6.727-.786-9.094-1.39-.28-.357-.445-.78.193-2.667 7.05-19.05 16.34-37.144 27.607-53.87 1.018-1.44 1.405-1.687 1.895-1.997 2.042.47 4.46.842 7.425 1.097 4.054.35 8.947.46 14.56.353l.4.16c.188.584.258.8-.323 1.993-9.195 16.866-16.656 35.083-22.167 54.235"/><path fill="#0D47A1" d="M48.134 246.868c-.134 1.667-.74 2.57-1.85 2.76-8.017.152-15.002-.008-20.79-.505-4.232-.364-7.688-.897-10.393-1.586-.415-.395-.73-.86-.69-2.93 1.023-20.792 4.614-41.147 10.51-60.65.566-1.69.91-1.973 1.345-2.33 2.592.604 5.69 1.083 9.485 1.41 5.19.446 11.456.59 18.644.45.783.252 1.356.597 1.04 2.515-4.508 19.598-7.013 40.024-7.3 60.866"/><path fill="#5296E8" d="M113.83 241.432c-.073 1.674-.888 2.663-2.494 3.022-20.25 2.416-38.503 4.056-53.89 4.79-1.225-.108-1.874-.968-1.986-2.627.128-20.836 2.396-41.255 6.6-60.842.446-1.56 1.212-2.42 2.345-2.63 13.8-.658 30.17-2.13 48.33-4.295 1.432-.017 2.13.714 2.135 2.234-1.802 19.373-2.188 39.625-1.04 60.348M290.242 210.363c.2 1.645-.644 2.736-2.582 3.335-24.796 5.487-49.776 10.525-74.07 14.983-1.962.193-3.137-.49-3.59-2.083-3.247-20.398-5.96-40.172-8.123-58.935.004-1.522.84-2.49 2.56-2.958 21.786-4 44.188-8.517 66.426-13.438 1.817-.247 3 .312 3.612 1.708 5.466 18.095 10.768 37.345 15.767 57.39"/><path fill="#0D47A1" d="M57.863 326.13c.422 2.18-.416 2.462-1.156 2.71-8.228.158-15.4-.006-21.34-.517-4.344-.373-7.89-.92-10.667-1.628-.518-.394-.963-.856-1.582-2.895-1.534-5.59-2.885-11.276-4.047-17.057-3.11-15.473-4.722-30.93-4.94-46.208.025-1.486.147-1.73.473-2.384 3.054.566 6.542 1.105 10.814 1.472 5.844.503 12.896.664 20.99.51 1.14.147 1.758 1.005 1.94 2.697.622 15.306 2.446 30.775 5.557 46.248 1.16 5.78 2.483 11.467 3.96 17.052M125.546 320.53c.23 1.655-.445 2.638-2.06 3-20.787 2.48-39.524 4.164-55.32 4.918-1.3-.104-2.2-.948-2.755-2.577-1.462-5.585-2.778-11.27-3.94-17.05-3.11-15.473-4.98-30.94-5.69-46.245.047-1.7.65-2.6 1.896-2.83 15.536-.74 33.964-2.396 54.408-4.835 1.646-.026 2.6.76 2.92 2.404 1.407 15.242 3.643 30.678 6.754 46.15 1.16 5.78 2.426 11.47 3.788 17.065"/><path fill="#276ACC" d="M212.204 307.468c.16 1.677-.692 2.738-2.603 3.243-24.526 4.268-48.124 7.905-69.897 10.78-1.765.063-2.898-.69-3.466-2.307-1.345-5.597-2.6-11.287-3.762-17.067-3.11-15.473-5.412-30.9-6.944-46.126.004-1.687.823-2.695 2.503-3.087 21.415-2.828 44.623-6.406 68.746-10.603 1.94-.168 3.106.536 3.563 2.15 2.415 15.09 5.18 30.446 8.29 45.92 1.162 5.78 2.353 11.482 3.57 17.098"/><path fill="#0D47A1" d="M307.298 288.52c.105 1.7-.814 2.824-2.813 3.44-25.454 5.633-51.096 10.805-76.034 15.38-2.02.2-3.27-.485-3.82-2.093-1.198-5.62-2.38-11.323-3.54-17.104-3.11-15.473-5.95-30.815-8.51-45.88-.086-1.705.784-2.746 2.738-3.276 24.526-4.502 49.746-9.588 74.78-15.128 2.064-.284 3.302.33 3.895 1.932 3.52 14.87 6.864 30.11 9.975 45.583 1.16 5.78 2.27 11.498 3.33 17.146M87.365 396.502c.854 1.64.342 1.957-.416 2.2-7.603.147-14.23-.005-19.718-.478-4.014-.345-7.29-.85-9.856-1.504-.462-.273-.985-.584-2.23-2.38-11.18-16.812-20.4-35.28-27.264-55.145-.44-1.4-.405-1.63-.308-2.244 3.024.586 6.555 1.13 10.88 1.503 5.914.51 13.053.672 21.244.515 1.186.137 2.066.968 2.693 2.54 6.458 19.84 14.9 38.256 24.975 54.994"/><path fill="#276ACC" d="M150.128 391.31c.445 1.28-.094 2.188-1.48 2.488-19.205 2.29-36.517 3.846-51.11 4.542-1.24-.077-2.278-.757-3.173-2.077-9.836-16.747-18.108-35.17-24.476-55.01-.47-1.953.24-2.354 1.217-2.675 15.725-.75 34.378-2.427 55.07-4.895 1.697-.037 2.82.704 3.44 2.264 5.663 19.903 12.586 38.446 20.51 55.362"/><path fill="#0D47A1" d="M230.486 379.196c.228 1.403-.516 2.305-2.272 2.756-22.662 3.942-44.464 7.304-64.582 9.96-1.655.076-2.83-.53-3.59-1.85-7.586-16.96-14.27-35.533-19.81-55.45-.267-1.605.417-2.574 2.09-2.96 21.676-2.863 45.167-6.484 69.585-10.732 1.976-.176 3.21.496 3.775 2.055 4.654 20.054 9.632 38.89 14.804 56.22"/><path fill="#5296E8" d="M318.668 361.627c-.02 1.46-.93 2.442-2.79 3-23.517 5.205-47.21 9.983-70.25 14.212-1.873.197-3.058-.36-3.62-1.703-4.778-17.4-9.48-36.287-13.985-56.368-.16-1.633.706-2.68 2.648-3.204 24.827-4.557 50.355-9.704 75.694-15.313 2.05-.284 3.28.338 3.766 1.903 3.54 20.277 6.387 39.537 8.538 57.47"/><path fill="#66ACFF" d="M346.774 120.327c.58 1.278.17 2.302-1.123 2.81-11.718 3.27-24.454 6.612-38.122 9.987-7.552 1.865-15.183 3.688-22.858 5.466-1.768.258-2.946-.27-3.604-1.61-6.108-17.36-12.453-33.443-18.88-47.896-.16-.848-.344-1.81 1.418-2.386 6.144-1.423 12.25-2.882 18.296-4.375 10.94-2.7 21.133-5.377 30.512-7.994.94-.08 2.005-.17 3.326 1.184 11.052 13.28 21.487 28.327 31.036 44.813"/><path fill="#0D47A1" d="M441.122 168.075c.614 1.725.21 2.273-.3 2.967-13.524 5.21-29.98 10.658-49.328 16.348-1.596.295-2.725-.296-3.45-1.808-7.134-19.503-15.59-37.954-25.085-55.027-.614-1.396-.28-2.34 1.02-2.88 17.353-5.105 32.11-9.99 43.948-14.5.79-.065 1.688-.14 3.05 1.54 11.684 16.353 21.85 34.24 30.144 53.36"/><path fill="#276ACC" d="M397.715 265.953c.094 1.71-.672 2.855-2.34 3.496-13.748 3.836-28.688 7.757-44.72 11.716-8.86 2.188-17.812 4.327-26.815 6.412-2.046.3-3.286-.336-3.793-1.943-1.038-5.653-2.138-11.373-3.3-17.152-3.11-15.473-6.53-30.696-10.2-45.532-.204-1.69.617-2.77 2.587-3.4 8.855-2.05 17.66-4.153 26.372-6.305 15.77-3.894 30.463-7.75 43.983-11.523 1.718-.306 2.877.3 3.545 1.847 4.573 14.605 8.466 29.71 11.576 45.183 1.163 5.778 2.197 11.515 3.105 17.2"/><path fill="#5296E8" d="M462.744 244.953c.168 2.286-.65 2.882-1.37 3.407-13.55 5.162-30.44 10.753-50.303 16.595-1.604.295-2.59-.348-3.01-1.965-.89-5.69-1.916-11.43-3.077-17.21-3.11-15.473-7.066-30.56-11.76-45.13-.355-1.64.202-2.734 1.704-3.35 19.534-5.747 36.146-11.245 49.474-16.322.997-.074 1.826.02 2.677 1.908 5.328 14.362 9.617 29.34 12.728 44.812 1.162 5.78 2.14 11.534 2.94 17.255"/><path fill="#0D47A1" d="M402.512 340.7c-.216 1.52-1.085 2.544-2.657 3.13-12.7 3.544-26.505 7.167-41.318 10.825-8.186 2.02-16.456 3.997-24.775 5.924-1.875.287-2.944-.246-3.27-1.63-1.747-18.024-4.307-37.35-7.7-57.66-.066-1.66.862-2.772 2.84-3.4 8.965-2.074 17.877-4.204 26.695-6.382 15.962-3.94 30.835-7.845 44.52-11.664 1.708-.306 2.718.314 3.086 1.898 2.483 20.54 3.3 40.307 2.58 58.957"/><path fill="#276ACC" d="M462.814 321.227c-.277 1.358-.77 2.238-1.646 2.942-12.854 4.944-28.46 10.11-46.81 15.507-1.37.264-2.19-.364-2.253-1.725 1.05-18.744.465-38.578-1.898-59.153-.028-1.68.713-2.803 2.266-3.43 19.772-5.815 36.588-11.382 50.077-16.52.77-.053 1.644-.11 1.97 2.034 1.723 20.787 1.082 41.025-1.706 60.343"/><path fill="#5296E8" d="M430.003 88.278c.963 1.078 1.07 1.338 1.36 2.035-3.97 3.562-11.124 7.362-21.207 11.566-.71.06-1.516.13-2.973-1.464-12.715-15.443-26.908-29.252-42.216-41.13-1.26-1.062-1.19-1.41-1.1-1.85 8.24-3.486 13.968-6.527 17.1-9.124.707.062 1 .087 2.596 1.083 16.916 11.022 32.53 24.076 46.44 38.883"/><path fill="#276ACC" d="M473.488 151.69c.754 1.684.727 2.17.692 2.785-4.564 3.855-12.74 8.198-24.264 13.002-.744.054-1.587.116-2.608-1.863-8.43-19.066-18.795-36.874-30.732-53.125-1.066-1.637-.74-2.16-.2-2.674 10.333-4.31 17.666-8.204 21.675-11.53.56.103.962.176 2.212 1.605 13.015 15.678 24.225 33.037 33.226 51.8"/><path fill="#0D47A1" d="M496.09 228.07c.2 1.887.058 2.418-.123 3.092-4.702 3.962-13.096 8.42-24.924 13.352-.845.047-1.522-.078-1.925-2.096-.79-5.726-1.763-11.48-2.924-17.262-3.11-15.473-7.438-30.434-12.84-44.767-.548-1.768-.188-2.318.27-3.016 11.92-5.03 20.175-9.415 24.688-13.158.48.15.828.26 1.604 2.044 5.716 14.166 10.207 29.04 13.317 44.512 1.163 5.782 2.113 11.55 2.857 17.3M493.735 305.572c-.372 1.765-.616 2.258-.924 2.882-4.36 3.66-12.116 7.78-23.044 12.337-.157.012-.367.025-.525.036-.333-.313-.648-.61-.516-1.95 2.99-19.398 3.774-39.694 2.124-60.51-.048-2.255.683-2.834 1.327-3.346 11.774-4.91 20.13-9.35 24.7-13.137.345.182.595.313.762 2.234 1.335 20.984-.055 41.6-3.902 61.455M132.28 451.03c.894.866.834 1.158.77 1.467l-.412.134c-6.255.12-11.708-.004-16.225-.393-3.303-.284-6-.7-8.11-1.237-.548-.252-1.09-.542-2.657-1.755-15.463-12.242-29.467-26.47-41.613-42.422-.65-.89-.707-1.018-.977-1.64 2.677.395 5.893.89 9.832 1.23 5.388.464 11.89.612 19.352.47 1.12.108 2.138.775 3.11 2.04 10.882 15.867 23.31 29.99 36.93 42.108M184.165 446.738c.613 1.15.485 1.462-.757 1.855-15.803 1.886-30.05 3.165-42.058 3.738-.822-.103-1.754-.22-3.283-1.498-13.223-12.133-25.308-26.267-35.914-42.143-.976-1.697-.204-1.946.478-2.165 14.325-.684 31.316-2.21 50.165-4.458 1.57-.05 2.735.542 3.56 1.807 8.417 16.07 17.772 30.448 27.81 42.864"/><path fill="#276ACC" d="M250.594 436.726c.094.77.2 1.64-1.713 2.12-18.647 3.245-36.587 6.01-53.142 8.197-1.39.074-2.493-.363-3.378-1.336-9.473-12.487-18.342-26.925-26.37-43.044-.456-1.235.095-2.127 1.51-2.445 19.745-2.608 41.144-5.907 63.385-9.776 1.808-.172 2.978.37 3.576 1.66 5.264 16.546 10.685 31.516 16.134 44.624"/><path fill="#0D47A1" d="M323.49 422.2c-.196.838-.42 1.786-2.473 2.39-19.352 4.283-38.847 8.215-57.807 11.695-1.343.15-2.215-.127-2.917-.924-4.968-13.562-9.825-28.633-14.634-45.26-.204-1.36.554-2.25 2.316-2.714 22.614-4.15 45.867-8.84 68.948-13.948 1.856-.268 2.918.25 3.247 1.587 1.802 17.236 2.906 33.066 3.32 47.176M188.49 486.662c.637.278.637.278 1.19.615-4.402.348-8.172.26-11.296-.008-2.283-.197-4.148-.484-5.608-.856-.572-.18-1.25-.407-2.854-.997-18.496-6.848-36.032-16.012-52.21-27.228-.887-.628-.99-.718-1.48-1.148 2.023.355 4.622.757 7.805 1.03 4.354.375 9.608.494 15.637.38.746.114 1.59.244 3.22 1.426 14.208 11.084 29.523 20.1 45.595 26.784M224.658 483.67c.24.19.51.537.593.83-.16.076-.378.176-.54.25-10.928 1.304-20.778 2.19-29.082 2.585-.755-.062-1.51-.165-3.104-.812-15.547-6.703-30.38-15.734-44.16-26.833-.714-.63-.736-.747-.832-1.237l.538-.29c11.574-.552 25.303-1.785 40.535-3.602 1.297-.052 2.39.36 3.343 1.26 10.368 11.4 21.357 20.773 32.71 27.85M270.967 476.688c.24.756.075.978-.984 1.322-12.895 2.243-25.3 4.155-36.746 5.667-.77.005-1.38.008-2.557-.545-10.916-7.353-21.222-16.81-30.985-28.29-.618-.883-.33-1.53.793-1.776 15.955-2.107 33.245-4.773 51.218-7.9 1.47-.15 2.467.238 3.047 1.187 5.454 12.142 10.903 22.35 16.214 30.335M321.784 466.563c-.227.552-.483 1.177-1.92 1.59-13.382 2.96-26.862 5.68-39.973 8.086-1.186.14-1.603-.157-2.133-.532-4.597-8.348-9.252-18.697-14.002-30.965-.235-1.01.34-1.68 1.76-2.045 18.273-3.354 37.062-7.144 55.713-11.27 1.49-.224 2.29.166 2.442 1.192.063 13.218-.566 24.636-1.886 33.943M251.85 500.314c.62.016 1.24.028 1.86.05-.647.014-1.228.018-1.784.015-5.612-.172-13.092-.51-18.692-.894-20.877-2.455-22.127-2.603-39.996-6.8l-7.187-1.96c-.62-.18-1.24-.36-1.857-.545-.62-.186-1.24-.374-1.86-.568 1.174.278 2.91.546 5.04.73 2.91.25 6.424.33 10.456.252.567.056 1.212.118 3.047.705 16.437 5.487 33.545 8.58 50.973 9.014"/><path fill="#0D47A1" d="M268.597 498.93c.27.023.628.06.896.098-4.927.668-9.366 1.067-13.11 1.246-.927.016-1.825-.003-2.666-.022-16.808-.458-33.326-3.57-49.217-9.075-.63-.23-.63-.23-1.167-.524 7.85-.618 17.03-1.443 27.215-2.658.697 0 1.488 0 2.827.618 11.524 5.892 23.35 9.42 35.222 10.316"/><path fill="#0D47A1" d="M290.038 495.697l.213.16c-.062.055-.148.127-.213.182-5.95 1.04-11.542 1.903-16.702 2.584-.583.04-1.113.05-2.094-.028-10.992-1.006-21.983-4.64-32.732-10.63-.544-.346-.546-.42-.55-.733l.285-.186c10.92-1.462 22.48-3.244 34.5-5.335.608-.067 1.33-.066 2.073.453 5.402 7.016 10.464 11.564 15.222 13.532M313.567 491.01c-.338.294-.516.415-1.185.617-6.032 1.334-12.108 2.56-18.018 3.645-.668.07-.863.023-1.253-.124-3.737-2.15-7.83-6.872-12.16-13.875-.25-.58.085-.976 1.026-1.212 12.22-2.24 24.783-4.775 37.255-7.535.986-.154 1.448.08 1.414.717-1.668 8.217-4.03 14.243-7.077 17.767M392.8 404.9c-.478 1.252-1.354 2.095-2.68 2.576-10.452 2.917-21.81 5.898-34 8.908-6.735 1.663-13.542 3.29-20.387 4.875-1.55.243-2.335-.16-2.47-1.272.26-14.263-.266-30.224-1.6-47.564.076-1.428.997-2.396 2.813-2.96 8.165-1.89 16.282-3.83 24.315-5.812 14.54-3.59 28.088-7.146 40.554-10.625 1.525-.282 2.285.26 2.32 1.658-1.49 18.057-4.49 34.91-8.864 50.216M442.65 388.804c-.43.816-1.013 1.75-2.064 2.494-10.59 4.07-23.434 8.32-38.533 12.762-1.095.217-1.577-.304-1.322-1.43 4.924-15.462 8.392-32.45 10.262-50.616.294-1.493 1.14-2.495 2.587-3.063 18.01-5.296 33.327-10.366 45.614-15.047.64-.046 1.366-.1 1.086 1.854-3.86 18.822-9.81 36.63-17.63 53.047M370.102 454.504c-.694.884-1.497 1.478-2.455 1.815-7.228 2.016-15.08 4.077-23.51 6.158-4.658 1.15-9.364 2.274-14.098 3.37-1.385.227-1.416-.333-1.443-.827 2.208-9.508 3.653-21.11 4.314-34.49.204-1.123.998-1.857 2.5-2.314 6.598-1.527 13.157-3.096 19.648-4.698 11.748-2.9 22.695-5.773 32.768-8.585 1.205-.23 1.654.205 1.374 1.33-5.065 14.5-11.475 27.36-19.098 38.24M404.852 443.282c-.62.607-1.378 1.302-2.29 1.847-7.342 2.815-16.222 5.755-26.663 8.826l-.44.042c-.062-.103-.143-.24-.202-.343.092-.23.234-.53.373-.734 8.347-11.087 15.417-24.138 21.07-38.803.568-1.208 1.428-2.02 2.63-2.478 14.553-4.28 26.93-8.378 36.857-12.16.124-.01.29-.02.412-.03.147.257.287.498-.27 1.595-8.754 15.687-19.32 29.892-31.478 42.237M335.94 485.425c-1.12.56-1.64.737-2.02.868-3.26.908-6.8 1.838-10.598 2.776-2.1.517-4.22 1.023-6.354 1.518l-.26.034c-.024-.07-.055-.163-.077-.233 4.186-3.855 7.54-10.107 10.136-18.534.306-.698.943-1.182 1.95-1.48 4.41-1.02 8.797-2.068 13.138-3.14 7.856-1.94 15.177-3.86 21.912-5.74.17-.035.408-.023.58.008.095.294.117.363-.287.9-8.234 9.857-17.65 17.645-28.12 23.02"/><path fill="#0D47A1" d="M352.03 480.23l-.662.294-2.583 1.063c-3.072 1.142-6.81 2.366-11.146 3.642.236-.19.59-.398.86-.537 11.317-5.62 21.542-13.638 30.526-23.71.798-.83 1.592-1.382 2.43-1.69 9.732-2.86 18.01-5.6 24.647-8.13-.03.444-.03.444-.82 1.16-12.953 11.38-27.445 20.806-43.253 27.906M468.21 375.862c-.867 1.538-1.183 1.964-1.58 2.502-3.607 3.016-9.99 6.405-18.98 10.154l-.375.023c-.17-.72-.17-.72.26-1.68 8.157-16.554 14.397-34.476 18.49-53.39.358-1.338.85-2.202 1.645-2.89 11.02-4.64 18.63-8.683 22.792-12.134.246.568.246.568-.126 2.093-5.076 19.438-12.54 38.01-22.125 55.322M422.67 434.26c-1.463 1.364-1.998 1.835-2.2 2.013-2.413 2-6.825 4.345-13.043 6.938.062-.495.062-.495.83-1.282 12.604-12.522 23.577-26.888 32.693-42.72.81-1.315 1.548-2.124 2.32-2.545 8.668-3.613 14.817-6.88 18.18-9.67-.128.508-.128.508-.953 1.818-10.644 16.645-23.343 31.928-37.826 45.45"/><path fill="#0D47A1" d="M398.65 453.96c-17.24 11.65-17.57 11.872-35.11 21.058-2.55 1.208-5.956 2.8-8.53 3.95 15.787-7.228 30.303-16.63 43.335-27.863 1.5-1.268 2.03-1.565 2.498-1.827 5.74-2.395 9.83-4.56 12.092-6.413-4.283 3.332-9.835 7.99-14.285 11.094"/></g></g></svg>