<!-- Generated by IcoMoon.io -->
<svg version="1.1" xmlns="http://www.w3.org/2000/svg" width="32" height="32" viewBox="0 0 32 32">
<title>comment</title>
<path d="M0 22c0 1.473 1.193 2.667 2.667 2.667h4v4.113c0 0.74 0.6 1.333 1.333 1.333 0.374 0 0.713-0.153 0.953-0.4l5.047-5.047h14.667c1.473 0 2.667-1.193 2.667-2.667l-0-16.667c0-1.473-1.193-2.667-2.667-2.667l-26 0c-1.473 0-2.667 1.193-2.667 2.667v16.667zM8 14.333c0-0.92 0.747-1.667 1.667-1.667s1.667 0.747 1.667 1.667-0.747 1.667-1.667 1.667-1.667-0.747-1.667-1.667zM14 14.333c0-0.92 0.747-1.667 1.667-1.667s1.667 0.747 1.667 1.667-0.747 1.667-1.667 1.667-1.667-0.747-1.667-1.667zM20 14.333c0-0.92 0.747-1.667 1.667-1.667s1.667 0.747 1.667 1.667-0.747 1.667-1.667 1.667-1.667-0.747-1.667-1.667z"></path>
</svg>
