<!-- Generated by IcoMoon.io -->
<svg version="1.1" xmlns="http://www.w3.org/2000/svg" width="1536" height="1536" viewBox="0 0 1536 1536">
<g id="icomoon-ignore">
</g>
<path d="M575.841 768c0 105.951 86.049 192 192 192s192-86.049 192-192v-1.599c-20.511 20.799-48.639 33.6-80.001 33.6-61.791 0-111.999-50.241-111.999-111.999 0-44.481 26.208-83.199 63.681-101.121-19.839-7.041-41.28-10.881-63.681-10.881-105.921 0-192 86.079-192 192zM1492.959 658.881c-119.040-151.362-408.96-402.882-724.8-402.882-316.161 0-606.369 251.52-725.439 402.879-26.88 34.56-41.601 72-42.561 109.119 0.96 37.119 15.681 74.559 42.561 109.119 119.073 151.395 408.96 402.885 725.121 402.885s606.048-251.487 725.121-402.879c27.201-34.56 41.919-72 42.879-109.119-0.96-37.122-15.681-74.562-42.882-109.122zM767.841 1088.001c-176.64 0-320.001-143.361-320.001-320.001s143.361-320.001 320.001-320.001 320.001 143.361 320.001 320.001c-0.003 176.64-143.361 320.001-320.001 320.001z"></path>
</svg>
