<!-- Generated by IcoMoon.io -->
<svg version="1.1" xmlns="http://www.w3.org/2000/svg" width="32" height="32" viewBox="0 0 32 32">
<title>itch</title>
<path d="M4.172 1.784c-1.396 0.829-4.145 3.988-4.172 4.816v1.372c0 1.739 1.625 3.267 3.1 3.267 1.772 0 3.248-1.468 3.248-3.211 0 1.743 1.425 3.211 3.197 3.211s3.152-1.468 3.152-3.211c0 1.743 1.516 3.211 3.288 3.211h0.032c1.772 0 3.288-1.468 3.288-3.211 0 1.743 1.38 3.211 3.152 3.211s3.197-1.468 3.197-3.211c0 1.743 1.476 3.211 3.248 3.211 1.476 0 3.1-1.528 3.1-3.267v-1.372c-0.027-0.828-2.776-3.988-4.172-4.816-4.339-0.152-7.347-0.179-11.828-0.177s-10.593 0.071-11.831 0.177zM12.675 10.42c-0.177 0.307-0.384 0.571-0.623 0.801l-0.001 0.001c-0.669 0.653-1.585 1.059-2.596 1.059-0.001 0-0.003 0-0.004 0-1.012 0-1.929-0.404-2.599-1.060v0c-0.243-0.237-0.427-0.491-0.595-0.787h-0.001c-0.168 0.296-0.403 0.549-0.647 0.787-0.669 0.655-1.587 1.059-2.599 1.059-0.001 0-0.003 0-0.004 0v0c-0.121 0-0.248-0.033-0.351-0.069-0.143 1.483-0.203 2.9-0.224 3.933v0.005c-0.003 0.525-0.005 0.956-0.008 1.556 0.028 3.112-0.308 10.085 1.372 11.799 2.604 0.607 7.395 0.884 12.201 0.885h0.001c4.807-0.001 9.597-0.279 12.201-0.885 1.68-1.713 1.344-8.688 1.372-11.799-0.003-0.6-0.005-1.031-0.008-1.556v-0.005c-0.021-1.033-0.081-2.451-0.224-3.933-0.103 0.035-0.229 0.069-0.351 0.069-0.001 0-0.003 0-0.003 0-1.012 0-1.929-0.404-2.599-1.060h0.001c-0.243-0.237-0.477-0.491-0.647-0.787h-0.001c-0.169 0.296-0.353 0.549-0.595 0.787-0.669 0.655-1.587 1.060-2.597 1.060-0.001 0-0.003 0-0.004 0v0c-1.011 0-1.927-0.405-2.596-1.060-0.239-0.232-0.445-0.496-0.615-0.785l-0.009-0.017c-0.176 0.307-0.381 0.571-0.617 0.803v0c-0.669 0.655-1.587 1.060-2.599 1.060-0.001 0-0.003 0-0.004 0v0c-0.035 0-0.071-0.001-0.105-0.003h-0.001c-0.035 0.001-0.071 0.003-0.107 0.003-0.001 0-0.003 0-0.004 0-1.012 0-1.929-0.404-2.599-1.060h0.001c-0.237-0.232-0.441-0.496-0.608-0.785zM10.003 13.875v0.001h0.001c1.059 0.003 1.997 0 3.163 1.271 0.916-0.096 1.875-0.144 2.833-0.143h0.001c0.959-0.001 1.916 0.047 2.833 0.143 1.164-1.271 2.104-1.269 3.163-1.271h0.001v-0.001c0.5 0 2.5 0 3.893 3.913l1.496 5.368c1.109 3.993-0.355 4.092-2.181 4.095-2.708-0.101-4.208-2.068-4.208-4.035-1.499 0.245-3.248 0.368-4.997 0.368h-0.001c-1.749 0-3.499-0.123-4.997-0.368 0 1.967-1.5 3.933-4.208 4.035-1.827-0.004-3.291-0.101-2.181-4.095l1.497-5.368c1.393-3.913 3.393-3.913 3.892-3.913zM16 16.951v0.001c-0.003 0.003-2.851 2.619-3.364 3.549l1.865-0.075v1.627c0 0.076 0.748 0.045 1.497 0.011h0.001c0.749 0.035 1.497 0.065 1.497-0.011v-1.627l1.865 0.075c-0.512-0.931-3.364-3.549-3.364-3.549v-0.001z"></path>
</svg>
