<!-- Generated by IcoMoon.io -->
<svg version="1.1" xmlns="http://www.w3.org/2000/svg" width="32" height="32" viewBox="0 0 32 32">
<title>kickstarter</title>
<path d="M9.557 0c-4.267 0-7.729 3.439-7.729 7.677v16.645c0 4.237 3.463 7.677 7.729 7.677 2.641 0 4.955-1.304 6.357-3.305l1.059 1.053c3.013 2.993 7.924 2.993 10.937 0 1.397-1.384 2.261-3.302 2.261-5.422 0-0.004 0-0.008 0-0.011v0.001c0-0.003 0-0.006 0-0.009 0-2.12-0.865-4.039-2.261-5.422l-0.001-0.001-2.909-2.891 2.909-2.875c1.397-1.384 2.261-3.302 2.261-5.423 0-0.003 0-0.007 0-0.010v0.001c0-0.003 0-0.006 0-0.010 0-2.12-0.865-4.039-2.261-5.422l-0.001-0.001c-3.013-2.995-7.923-2.995-10.937 0l-1.059 1.052c-1.415-2.009-3.725-3.305-6.338-3.305-0.007 0-0.014 0-0.020 0h0.001z"></path>
</svg>
