<!-- Generated by IcoMoon.io -->
<svg version="1.1" xmlns="http://www.w3.org/2000/svg" width="32" height="32" viewBox="0 0 32 32">
<title>omnipedia</title>
<path d="M3.704 10.703c-0.034 0.095-0.081 0.147-0.144 0.158-0.438 0.008-0.821-0-1.137-0.028-0.232-0.020-0.421-0.049-0.569-0.087-0.018-0.022-0.028-0.049 0.012-0.167 0.482-1.287 1.063-2.397 1.761-3.422l-0.036 0.055c0.064-0.090 0.088-0.105 0.118-0.125 0.128 0.029 0.279 0.053 0.464 0.069 0.253 0.022 0.559 0.029 0.91 0.022l0.025 0.010c0.012 0.036 0.016 0.050-0.020 0.125-0.575 1.054-1.041 2.193-1.385 3.39zM3.009 15.429c-0.008 0.104-0.046 0.161-0.116 0.172-0.501 0.010-0.938-0-1.299-0.031-0.264-0.023-0.48-0.056-0.65-0.099-0.026-0.025-0.046-0.054-0.043-0.183 0.070-1.377 0.305-2.672 0.687-3.902l-0.030 0.112c0.035-0.106 0.057-0.123 0.084-0.146 0.162 0.038 0.356 0.068 0.593 0.088 0.324 0.028 0.716 0.037 1.165 0.028 0.049 0.016 0.085 0.037 0.065 0.157-0.282 1.225-0.438 2.502-0.456 3.804zM7.115 15.090c-0.005 0.105-0.055 0.166-0.156 0.189-1.266 0.151-2.406 0.253-3.368 0.299-0.078-0.007-0.117-0.059-0.124-0.164 0.008-1.302 0.15-2.578 0.413-3.803 0.028-0.098 0.076-0.151 0.146-0.164 0.863-0.041 1.886-0.133 3.021-0.268 0.090-0.001 0.133 0.045 0.133 0.14-0.112 1.211-0.137 2.477-0.065 3.772zM18.141 13.148c0.013 0.103-0.040 0.171-0.161 0.208-0.676 0.185-2.241 0.511-3.815 0.809l-0.814 0.128c-0.123 0.012-0.196-0.031-0.224-0.13-0.203-1.275-0.373-2.511-0.508-3.683 0-0.095 0.053-0.156 0.16-0.185 2.143-0.382 3.546-0.674 4.939-0.99l-0.788 0.151c0.114-0.015 0.187 0.019 0.226 0.107 0.342 1.131 0.673 2.334 0.985 3.587zM3.617 20.383c0.026 0.136-0.026 0.154-0.072 0.169-0.514 0.010-0.962-0-1.334-0.032-0.272-0.023-0.493-0.058-0.667-0.102-0.032-0.025-0.060-0.053-0.099-0.181-0.073-0.242-0.16-0.601-0.235-0.964l-0.018-0.102c-0.182-0.861-0.293-1.857-0.309-2.876l-0-0.012c0.001-0.093 0.009-0.108 0.030-0.149 0.191 0.035 0.409 0.069 0.676 0.092 0.365 0.031 0.806 0.041 1.312 0.032 0.070 0.009 0.11 0.064 0.121 0.169 0.060 1.432 0.273 2.787 0.624 4.085l-0.030-0.129zM7.848 20.033c0.014 0.104-0.028 0.165-0.129 0.188-1.299 0.155-2.47 0.26-3.458 0.307-0.081-0.006-0.138-0.059-0.172-0.161-0.318-1.165-0.533-2.519-0.6-3.912l-0.002-0.044c0.003-0.106 0.041-0.163 0.118-0.177 0.971-0.046 2.123-0.15 3.401-0.302 0.103-0.002 0.163 0.047 0.182 0.15 0.104 1.111 0.253 2.096 0.453 3.062l-0.031-0.178c0.105 0.536 0.187 0.896 0.276 1.252l-0.039-0.186zM13.264 19.217c0.010 0.105-0.043 0.171-0.163 0.203-1.533 0.267-3.008 0.494-4.369 0.674-0.11 0.004-0.181-0.043-0.217-0.144-0.046-0.157-0.128-0.516-0.203-0.878l-0.033-0.189c-0.166-0.773-0.319-1.757-0.423-2.755l-0.011-0.128c0-0.105 0.051-0.168 0.156-0.193 1.338-0.177 2.789-0.4 4.297-0.663 0.121-0.011 0.194 0.033 0.223 0.134 0.22 1.407 0.401 2.38 0.6 3.346l-0.082-0.477c0.156 0.833 0.234 1.194 0.314 1.553l-0.091-0.484zM19.207 18.033c0.007 0.106-0.051 0.176-0.176 0.215-0.694 0.19-2.3 0.525-3.916 0.83l-0.836 0.131c-0.126 0.012-0.204-0.030-0.239-0.131-0.172-0.681-0.434-2.013-0.669-3.355l-0.084-0.581c-0.005-0.107 0.049-0.172 0.171-0.205 2.411-0.429 3.99-0.758 5.559-1.115l-0.885 0.169c0.129-0.018 0.206 0.021 0.244 0.121 0.199 0.729 0.488 2.052 0.746 3.386l0.086 0.534zM5.461 24.781c0.053 0.102 0.021 0.122-0.026 0.137-0.475 0.009-0.889-0-1.232-0.030-0.251-0.022-0.456-0.053-0.616-0.094-0.029-0.017-0.062-0.037-0.139-0.149-0.699-1.051-1.275-2.205-1.704-3.447-0.028-0.087-0.025-0.102-0.019-0.14 0.189 0.037 0.41 0.071 0.68 0.094 0.37 0.032 0.816 0.042 1.328 0.032 0.074 0.009 0.129 0.061 0.168 0.159 0.404 1.24 0.931 2.391 1.561 3.437zM9.384 24.457c0.028 0.080-0.006 0.137-0.092 0.155-1.2 0.143-2.282 0.24-3.195 0.284-0.077-0.005-0.142-0.047-0.198-0.13-0.615-1.047-1.132-2.198-1.53-3.438-0.029-0.122 0.015-0.147 0.076-0.167 0.983-0.047 2.149-0.152 3.442-0.306 0.106-0.002 0.176 0.044 0.215 0.142 0.354 1.244 0.787 2.403 1.282 3.46zM14.406 23.7c0.014 0.088-0.032 0.144-0.142 0.172-1.416 0.246-2.779 0.456-4.036 0.622-0.103 0.005-0.177-0.033-0.224-0.116-0.474-1.060-0.892-2.221-1.238-3.465-0.017-0.1 0.026-0.161 0.131-0.185 1.355-0.179 2.823-0.405 4.349-0.671 0.123-0.011 0.201 0.031 0.236 0.128 0.291 1.253 0.602 2.43 0.925 3.514zM19.917 22.602c-0.001 0.091-0.058 0.153-0.174 0.188-0.641 0.176-2.124 0.485-3.617 0.767l-0.773 0.122c-0.117 0.012-0.191-0.022-0.226-0.106-0.299-1.088-0.592-2.268-0.874-3.523-0.010-0.102 0.044-0.168 0.165-0.2 2.44-0.435 4.039-0.767 5.627-1.128l-0.896 0.171c0.128-0.018 0.205 0.021 0.235 0.119 0.221 1.267 0.399 2.471 0.533 3.592zM21.674 7.521c0.036 0.080 0.011 0.144-0.070 0.176-0.732 0.204-1.528 0.413-2.382 0.624 0.222-0.029-0.258 0.089-0.739 0.203l-0.69 0.138c-0.11 0.016-0.184-0.017-0.225-0.101-0.382-1.085-0.778-2.090-1.18-2.993-0.010-0.053-0.022-0.113 0.089-0.149 0.936-0.202 1.32-0.296 1.703-0.394l-0.559 0.12c0.684-0.169 1.321-0.336 1.907-0.5 0.059-0.005 0.125-0.011 0.208 0.074 0.691 0.83 1.343 1.77 1.94 2.801zM27.57 10.505c0.038 0.108 0.013 0.142-0.019 0.185-0.845 0.326-1.873 0.666-3.083 1.022-0.1 0.018-0.17-0.018-0.216-0.113-0.446-1.219-0.974-2.372-1.568-3.439-0.038-0.087-0.017-0.146 0.064-0.18 1.084-0.319 2.007-0.624 2.746-0.906 0.049-0.004 0.105-0.009 0.191 0.096 0.73 1.022 1.365 2.14 1.884 3.335zM24.858 16.622c0.006 0.107-0.042 0.178-0.146 0.219-0.859 0.24-1.793 0.485-2.795 0.732 0.256-0.033-0.307 0.105-0.872 0.239l-0.804 0.161c-0.128 0.019-0.205-0.021-0.237-0.121-0.318-1.748-0.61-3.069-0.942-4.375l0.099 0.458c-0.013-0.106 0.039-0.173 0.162-0.213 1.343-0.29 1.897-0.426 2.449-0.566l-0.801 0.172c0.986-0.243 1.904-0.484 2.749-0.72 0.107-0.019 0.18 0.019 0.222 0.115 0.243 0.73 0.493 1.678 0.692 2.644l0.031 0.18c0.044 0.185 0.112 0.549 0.172 0.916l0.022 0.159zM28.922 15.31c0.011 0.143-0.041 0.18-0.086 0.213-0.847 0.323-1.902 0.672-3.144 1.037-0.1 0.018-0.162-0.022-0.188-0.123-0.079-0.513-0.146-0.878-0.221-1.24l0.028 0.164c-0.229-1.133-0.482-2.079-0.787-3.003l0.052 0.182c-0.022-0.102 0.013-0.171 0.106-0.209 1.221-0.359 2.259-0.703 3.092-1.020 0.062-0.005 0.114 0.001 0.167 0.119 0.429 1.116 0.771 2.424 0.967 3.779l0.012 0.1zM25.157 21.294c-0.014 0.095-0.068 0.159-0.166 0.196-0.794 0.221-1.656 0.448-2.582 0.677 0.245-0.033-0.275 0.095-0.797 0.22l-0.751 0.151c-0.117 0.018-0.184-0.015-0.204-0.102-0.109-1.127-0.269-2.334-0.481-3.604-0.004-0.104 0.054-0.173 0.178-0.212 1.365-0.295 1.925-0.433 2.485-0.574l-0.816 0.175c0.997-0.246 1.927-0.49 2.782-0.729 0.107-0.019 0.17 0.020 0.193 0.119 0.155 1.284 0.206 2.519 0.161 3.685zM28.926 20.077c-0.017 0.085-0.048 0.14-0.103 0.184-0.803 0.309-1.779 0.632-2.925 0.969-0.086 0.017-0.137-0.023-0.141-0.108 0.066-1.171 0.029-2.411-0.119-3.697-0.002-0.105 0.044-0.175 0.142-0.214 1.236-0.363 2.287-0.711 3.13-1.032 0.048-0.003 0.103-0.007 0.123 0.127 0.108 1.299 0.068 2.564-0.107 3.771zM26.875 5.518c0.060 0.067 0.067 0.084 0.085 0.127-0.248 0.223-0.695 0.46-1.325 0.723-0.044 0.004-0.095 0.008-0.186-0.091-0.795-0.965-1.682-1.828-2.638-2.571-0.079-0.066-0.074-0.088-0.069-0.116 0.515-0.218 0.873-0.408 1.069-0.57 0.044 0.004 0.063 0.005 0.162 0.068 1.096 0.72 2.047 1.522 2.895 2.422l0.008 0.008zM29.593 9.481c0.047 0.105 0.046 0.136 0.043 0.174-0.285 0.241-0.796 0.512-1.516 0.813-0.047 0.003-0.099 0.007-0.163-0.116-0.527-1.192-1.175-2.305-1.921-3.32-0.067-0.102-0.046-0.135-0.012-0.167 0.646-0.269 1.104-0.513 1.355-0.721 0.035 0.006 0.060 0.011 0.138 0.1 0.786 0.94 1.478 2.004 2.035 3.145l0.041 0.093zM31.005 14.255c0.012 0.118 0.004 0.151-0.008 0.193-0.294 0.248-0.818 0.526-1.558 0.835-0.053 0.003-0.095-0.005-0.12-0.131-0.204-1.452-0.549-2.759-1.027-4l0.042 0.123c-0.034-0.11-0.012-0.145 0.017-0.188 0.745-0.314 1.261-0.588 1.543-0.822 0.030 0.009 0.052 0.016 0.1 0.128 0.329 0.786 0.616 1.717 0.815 2.68l0.017 0.101c0.058 0.261 0.12 0.629 0.17 1.001l0.009 0.080zM30.858 19.098c-0.023 0.11-0.038 0.141-0.058 0.18-0.273 0.229-0.757 0.486-1.44 0.771l-0.033 0.002c-0.021-0.020-0.041-0.038-0.032-0.122 0.187-1.212 0.236-2.481 0.133-3.782-0.003-0.141 0.043-0.177 0.083-0.209 0.736-0.307 1.258-0.584 1.543-0.821 0.022 0.011 0.037 0.020 0.048 0.14 0.083 1.311-0.003 2.6-0.244 3.841zM8.268 28.189c0.056 0.054 0.052 0.072 0.048 0.092l-0.026 0.008c-0.391 0.007-0.732-0-1.014-0.025-0.206-0.018-0.375-0.044-0.507-0.077-0.034-0.016-0.068-0.034-0.166-0.11-0.98-0.78-1.835-1.652-2.575-2.616l-0.026-0.035c-0.041-0.056-0.044-0.064-0.061-0.102 0.167 0.025 0.368 0.056 0.615 0.077 0.337 0.029 0.743 0.038 1.21 0.029 0.070 0.007 0.134 0.049 0.194 0.128 0.68 0.992 1.457 1.874 2.308 2.632zM11.511 27.921c0.038 0.072 0.030 0.091-0.047 0.116-0.988 0.118-1.878 0.198-2.629 0.234-0.051-0.006-0.11-0.014-0.205-0.094-0.826-0.758-1.582-1.642-2.244-2.634-0.061-0.106-0.013-0.122 0.030-0.135 0.895-0.043 1.957-0.138 3.135-0.279 0.098-0.003 0.171 0.034 0.223 0.113 0.526 1.004 1.111 1.903 1.738 2.679zM15.663 27.295c0.006 0.048 0.012 0.103-0.107 0.133-1.165 0.203-2.287 0.376-3.321 0.512-0.087 0.005-0.156-0.023-0.211-0.084-0.592-0.78-1.146-1.683-1.648-2.69-0.028-0.077 0.006-0.133 0.094-0.153 1.234-0.163 2.571-0.369 3.961-0.611 0.113-0.011 0.186 0.023 0.223 0.104 0.329 1.034 0.668 1.97 1.008 2.789zM20.218 26.387c-0.012 0.052-0.026 0.112-0.155 0.149-0.527 0.145-1.748 0.399-2.976 0.631l-0.637 0.1c-0.084 0.009-0.138-0.008-0.182-0.058-0.31-0.848-0.614-1.79-0.915-2.829-0.013-0.085 0.035-0.141 0.145-0.17 2.223-0.396 3.679-0.699 5.126-1.028l-0.817 0.156c0.116-0.017 0.182 0.016 0.203 0.099 0.113 1.077 0.181 2.067 0.207 2.948zM11.781 30.416c0.040 0.017 0.040 0.017 0.074 0.038-0.275 0.022-0.511 0.016-0.706-0-0.143-0.012-0.259-0.030-0.351-0.053-0.036-0.011-0.078-0.025-0.178-0.062-1.246-0.468-2.323-1.041-3.31-1.733l0.047 0.031c-0.055-0.039-0.061-0.044-0.092-0.072 0.127 0.022 0.289 0.047 0.488 0.064 0.272 0.023 0.601 0.031 0.977 0.024 0.047 0.007 0.099 0.015 0.201 0.089 0.888 0.693 1.845 1.256 2.849 1.674zM14.041 30.229c0.015 0.012 0.032 0.034 0.037 0.052l-0.034 0.016c-0.683 0.081-1.299 0.137-1.818 0.162-0.047-0.004-0.094-0.010-0.194-0.051-0.972-0.419-1.899-0.983-2.76-1.677-0.045-0.039-0.046-0.047-0.052-0.077l0.034-0.018c0.723-0.035 1.582-0.112 2.534-0.225 0.081-0.003 0.149 0.022 0.209 0.079 0.648 0.713 1.335 1.298 2.044 1.741zM16.936 29.793c0.015 0.047 0.005 0.061-0.061 0.083-0.806 0.14-1.581 0.26-2.297 0.354-0.048 0-0.086 0-0.16-0.034-0.682-0.46-1.326-1.051-1.936-1.768-0.039-0.055-0.021-0.096 0.050-0.111 0.997-0.132 2.078-0.298 3.201-0.494 0.092-0.009 0.154 0.015 0.19 0.074 0.341 0.759 0.681 1.397 1.013 1.896zM20.112 29.16c-0.014 0.034-0.030 0.073-0.12 0.099-0.365 0.1-1.209 0.276-2.059 0.436l-0.44 0.069c-0.074 0.009-0.1-0.010-0.133-0.033-0.287-0.522-0.578-1.169-0.875-1.935-0.015-0.063 0.021-0.105 0.11-0.128 1.797-0.32 2.974-0.565 4.143-0.831l-0.661 0.126c0.093-0.014 0.143 0.010 0.153 0.075 0.004 0.826-0.036 1.54-0.118 2.121zM15.74 31.27c0.039 0.001 0.078 0.002 0.116 0.003-0.040 0.001-0.077 0.001-0.112 0.001-0.351-0.011-0.818-0.032-1.168-0.056-1.305-0.153-1.383-0.163-2.5-0.425l-0.448-0.122c-0.166-0.046-0.244-0.070-0.322-0.094l0.088 0.024c0.073 0.017 0.182 0.034 0.315 0.046 0.182 0.016 0.402 0.021 0.654 0.016 0.036 0.003 0.076 0.007 0.191 0.044 1.027 0.343 2.096 0.536 3.186 0.563z"></path>
<path d="M16.787 31.183c0.017 0.002 0.039 0.004 0.056 0.006-0.308 0.042-0.585 0.067-0.819 0.078-0.015 0-0.032 0-0.050 0-0.041 0-0.082-0.001-0.123-0.002l0.006 0c-1.050-0.029-2.083-0.223-3.076-0.567-0.039-0.014-0.039-0.014-0.073-0.033 0.491-0.039 1.064-0.090 1.701-0.166 0.044 0 0.093 0 0.177 0.039 0.72 0.368 1.459 0.589 2.201 0.645z"></path>
<path d="M18.127 30.981c0.004 0.003 0.009 0.007 0.013 0.010-0.003 0.002-0.007 0.006-0.012 0.010l-0.002 0.001c-0.198 0.041-0.554 0.098-0.912 0.147l-0.132 0.015c-0.036 0.003-0.070 0.003-0.131-0.002-0.687-0.063-1.374-0.29-2.046-0.665-0.034-0.022-0.034-0.026-0.034-0.046l0.018-0.012c0.682-0.091 1.405-0.203 2.156-0.333 0.038-0.004 0.083-0.004 0.13 0.028 0.338 0.439 0.654 0.723 0.951 0.846zM19.598 30.688c-0.021 0.018-0.032 0.026-0.074 0.039-0.165 0.045-0.546 0.124-0.929 0.197l-0.197 0.031c-0.042 0.004-0.054 0.002-0.078-0.008-0.234-0.134-0.489-0.429-0.76-0.867-0.016-0.036 0.005-0.061 0.064-0.076 1.201-0.214 1.988-0.378 2.769-0.555l-0.441 0.084c0.061-0.010 0.090 0.005 0.088 0.045-0.104 0.514-0.252 0.89-0.442 1.11zM24.55 25.306c-0.030 0.078-0.085 0.131-0.168 0.161-0.653 0.182-1.363 0.369-2.125 0.557 0.195-0.025-0.233 0.080-0.662 0.182l-0.612 0.123c-0.097 0.015-0.146-0.010-0.154-0.079 0.016-0.891-0.017-1.889-0.1-2.973 0.005-0.089 0.062-0.15 0.176-0.185 0.51-0.118 1.018-0.239 1.52-0.363 0.909-0.224 1.755-0.447 2.534-0.664 0.095-0.018 0.143 0.016 0.145 0.104-0.093 1.129-0.281 2.182-0.554 3.139zM27.666 24.3c-0.027 0.051-0.063 0.109-0.129 0.156-0.662 0.254-1.465 0.52-2.408 0.798-0.068 0.014-0.099-0.019-0.083-0.089 0.308-0.966 0.524-2.028 0.641-3.163 0.018-0.093 0.071-0.156 0.162-0.191 1.126-0.331 2.083-0.648 2.851-0.941 0.040-0.003 0.085-0.006 0.068 0.116-0.241 1.176-0.613 2.289-1.102 3.315zM23.131 28.406c-0.043 0.055-0.094 0.092-0.153 0.113-0.132 0.052-0.624 0.185-1.119 0.31l-0.35 0.075c0.14-0.019-0.156 0.054-0.453 0.125l-0.429 0.086c-0.087 0.014-0.088-0.021-0.090-0.052 0.138-0.594 0.228-1.319 0.27-2.156 0.013-0.069 0.064-0.116 0.156-0.145 1.003-0.217 1.416-0.318 1.828-0.422l-0.599 0.129c0.734-0.181 1.418-0.361 2.048-0.537 0.075-0.014 0.103 0.013 0.086 0.083-0.317 0.906-0.717 1.71-1.194 2.39zM25.303 27.705c-0.039 0.038-0.086 0.081-0.143 0.115-0.459 0.176-1.014 0.36-1.666 0.552l-0.028 0.003-0.013-0.021c0.007-0.018 0.015-0.033 0.024-0.047l-0.001 0.001c0.522-0.693 0.964-1.509 1.317-2.425 0.035-0.076 0.089-0.126 0.164-0.155 0.91-0.267 1.683-0.524 2.303-0.76l0.026-0.002c0.009 0.016 0.018 0.031-0.017 0.1-0.547 0.98-1.207 1.868-1.967 2.64zM20.996 30.339c-0.070 0.035-0.102 0.046-0.126 0.054-0.059 0.023-0.281 0.083-0.504 0.14l-0.158 0.034c-0.131 0.032-0.264 0.064-0.397 0.095l-0.016 0.002-0.005-0.015c0.262-0.241 0.471-0.632 0.634-1.158 0.019-0.044 0.059-0.074 0.122-0.092 0.662-0.143 0.938-0.211 1.213-0.281l-0.392 0.084c0.787-0.186 1.245-0.31 1.701-0.44l-0.332 0.081c0.011-0.002 0.026-0.001 0.036 0.001 0.006 0.018 0.007 0.023-0.018 0.056-0.515 0.616-1.103 1.103-1.758 1.439z"></path>
<path d="M22.002 30.014l-0.041 0.018-0.162 0.067c-0.192 0.071-0.426 0.148-0.697 0.228 0.015-0.012 0.037-0.025 0.054-0.034 0.707-0.351 1.346-0.852 1.908-1.482 0.050-0.052 0.099-0.087 0.152-0.106 0.608-0.179 1.125-0.35 1.54-0.508-0.002 0.028-0.002 0.028-0.051 0.073-0.81 0.711-1.715 1.3-2.703 1.744zM29.263 23.491c-0.054 0.096-0.074 0.123-0.099 0.156-0.225 0.188-0.624 0.4-1.186 0.635-0.007 0-0.016 0.001-0.023 0.001-0.011-0.045-0.011-0.045 0.016-0.105 0.51-1.035 0.9-2.155 1.156-3.337 0.022-0.084 0.053-0.138 0.103-0.181 0.689-0.29 1.164-0.543 1.424-0.758 0.015 0.035 0.015 0.035-0.008 0.131-0.348 1.315-0.821 2.464-1.421 3.533l0.039-0.075zM26.417 27.141c-0.041 0.039-0.086 0.080-0.131 0.12l-0.006 0.005c-0.151 0.125-0.427 0.272-0.815 0.434 0.004-0.031 0.004-0.031 0.052-0.080 0.788-0.783 1.474-1.68 2.043-2.67 0.051-0.082 0.097-0.133 0.145-0.159 0.542-0.226 0.926-0.43 1.136-0.604-0.008 0.032-0.008 0.032-0.060 0.113-0.694 1.076-1.474 2.008-2.356 2.833l-0.008 0.008z"></path>
<path d="M24.915 28.372c-1.078 0.728-1.098 0.742-2.194 1.316 0.001 0.008-0.174 0.091-0.35 0.171l-0.183 0.075c0.987-0.452 1.894-1.039 2.708-1.741 0.094-0.079 0.127-0.098 0.156-0.114 0.359-0.15 0.614-0.285 0.756-0.401-0.268 0.208-0.615 0.499-0.893 0.693z"></path>
</svg>
