<!-- Generated by IcoMoon.io -->
<svg version="1.1" xmlns="http://www.w3.org/2000/svg" width="32" height="32" viewBox="0 0 32 32">
<title>discord</title>
<path d="M26.862 6.035c-1.842-0.87-3.983-1.557-6.224-1.956l-0.156-0.023c-0.005-0.001-0.011-0.002-0.018-0.002-0.036 0-0.068 0.020-0.084 0.050l-0 0c-0.276 0.49-0.581 1.129-0.794 1.632-2.409-0.361-4.806-0.361-7.166 0-0.214-0.514-0.53-1.142-0.807-1.632-0.018-0.030-0.050-0.050-0.087-0.050-0.006 0-0.011 0-0.016 0.001l0.001-0c-2.397 0.421-4.537 1.108-6.538 2.045l0.158-0.066c-0.018 0.008-0.032 0.020-0.042 0.036l-0 0c-4.064 6.071-5.177 11.992-4.631 17.841 0.003 0.030 0.018 0.056 0.041 0.073l0 0c2.681 1.969 5.278 3.164 7.827 3.956 0.009 0.003 0.019 0.004 0.029 0.004 0.033 0 0.062-0.016 0.081-0.040l0-0c0.603-0.823 1.14-1.692 1.601-2.604 0.007-0.013 0.011-0.029 0.011-0.045 0-0.043-0.027-0.079-0.064-0.093l-0.001-0c-0.853-0.323-1.664-0.718-2.445-1.165-0.030-0.018-0.050-0.050-0.050-0.087 0-0.033 0.016-0.061 0.039-0.080l0-0c0.164-0.123 0.329-0.251 0.486-0.381 0.017-0.014 0.038-0.022 0.062-0.022 0.014 0 0.028 0.003 0.040 0.009l-0.001-0c5.13 2.342 10.683 2.342 15.752 0 0.012-0.006 0.026-0.009 0.041-0.009 0.023 0 0.045 0.008 0.061 0.022l-0-0c0.157 0.129 0.321 0.259 0.487 0.382 0.025 0.019 0.040 0.048 0.040 0.080 0 0.036-0.019 0.068-0.048 0.086l-0 0c-0.691 0.412-1.496 0.804-2.336 1.127l-0.11 0.037c-0.038 0.015-0.064 0.051-0.064 0.093 0 0.017 0.004 0.033 0.011 0.046l-0-0.001c0.471 0.912 1.008 1.78 1.6 2.603 0.018 0.025 0.048 0.042 0.081 0.042 0.010 0 0.020-0.002 0.030-0.005l-0.001 0c2.561-0.792 5.158-1.988 7.839-3.956 0.023-0.017 0.038-0.042 0.041-0.072l0-0c0.654-6.761-1.095-12.634-4.634-17.841-0.009-0.017-0.023-0.030-0.040-0.037l-0.001-0zM10.802 20.351c-1.544 0-2.817-1.418-2.817-3.159s1.248-3.159 2.817-3.159c1.581 0 2.841 1.43 2.817 3.159 0 1.741-1.248 3.159-2.817 3.159zM21.217 20.351c-1.544 0-2.817-1.418-2.817-3.159s1.248-3.159 2.817-3.159c1.581 0 2.841 1.43 2.817 3.159 0 1.741-1.236 3.159-2.817 3.159z"></path>
</svg>
