<!-- Generated by IcoMoon.io -->
<svg version="1.1" xmlns="http://www.w3.org/2000/svg" width="32" height="32" viewBox="0 0 32 32">
<title>discord</title>
<path d="M26.635 6.243c-1.804-0.851-3.9-1.524-6.093-1.915l-0.153-0.023c-0.005-0.001-0.011-0.002-0.017-0.002-0.036 0-0.067 0.020-0.083 0.049l-0 0c-0.27 0.48-0.569 1.106-0.778 1.598-2.359-0.353-4.706-0.353-7.016 0-0.209-0.503-0.519-1.118-0.79-1.598-0.017-0.029-0.049-0.049-0.085-0.049-0.005 0-0.011 0-0.016 0.001l0.001-0c-2.346 0.412-4.442 1.085-6.401 2.002l0.155-0.065c-0.017 0.008-0.031 0.020-0.041 0.035l-0 0c-3.978 5.944-5.068 11.741-4.534 17.467 0.003 0.029 0.018 0.055 0.040 0.072l0 0c2.625 1.928 5.168 3.098 7.663 3.874 0.008 0.003 0.018 0.004 0.028 0.004 0.032 0 0.061-0.015 0.079-0.039l0-0c0.59-0.806 1.116-1.656 1.568-2.55 0.007-0.013 0.011-0.028 0.011-0.044 0-0.042-0.026-0.077-0.063-0.091l-0.001-0c-0.835-0.317-1.629-0.703-2.394-1.141-0.029-0.017-0.049-0.049-0.049-0.085 0-0.032 0.015-0.060 0.039-0.078l0-0c0.161-0.121 0.322-0.246 0.475-0.373 0.016-0.014 0.037-0.022 0.060-0.022 0.014 0 0.027 0.003 0.039 0.009l-0.001-0c5.022 2.293 10.46 2.293 15.423 0 0.012-0.006 0.026-0.009 0.041-0.009 0.023 0 0.044 0.008 0.060 0.021l-0-0c0.154 0.127 0.315 0.253 0.477 0.374 0.024 0.018 0.039 0.047 0.039 0.079 0 0.036-0.019 0.067-0.047 0.084l-0 0c-0.676 0.404-1.465 0.787-2.287 1.103l-0.108 0.036c-0.037 0.014-0.063 0.050-0.063 0.091 0 0.016 0.004 0.032 0.011 0.046l-0-0.001c0.461 0.893 0.987 1.743 1.566 2.549 0.018 0.025 0.047 0.041 0.079 0.041 0.010 0 0.020-0.002 0.029-0.004l-0.001 0c2.507-0.776 5.050-1.946 7.675-3.874 0.022-0.016 0.037-0.042 0.040-0.070l0-0c0.64-6.62-1.072-12.37-4.537-17.467-0.009-0.017-0.023-0.029-0.039-0.036l-0.001-0zM10.911 20.26c-1.512 0-2.758-1.388-2.758-3.093s1.222-3.093 2.758-3.093c1.548 0 2.782 1.4 2.758 3.093 0 1.705-1.222 3.093-2.758 3.093zM21.108 20.26c-1.512 0-2.758-1.388-2.758-3.093s1.222-3.093 2.758-3.093c1.548 0 2.782 1.4 2.758 3.093 0 1.705-1.21 3.093-2.758 3.093z"></path>
</svg>
