<!-- Generated by IcoMoon.io -->
<svg version="1.1" xmlns="http://www.w3.org/2000/svg" width="32" height="32" viewBox="0 0 32 32">
<title>kickstarter</title>
<path d="M12.805 10.907l5.867-8.507c1.112-1.6 2.541-2.4 4.303-2.4 1.429 0 2.669 0.508 3.719 1.525 1.044 1.020 1.568 2.233 1.568 3.651 0 1.045-0.276 1.972-0.832 2.772l-5.289 7.692 6.471 8.204c0.645 0.816 0.969 1.773 0.969 2.867 0 1.448-0.508 2.691-1.527 3.731-1.016 1.039-2.248 1.559-3.695 1.559-1.585 0-2.796-0.516-3.628-1.547l-7.924-9.889v5.452c0 1.557-0.269 2.765-0.809 3.629-0.983 1.569-2.404 2.355-4.284 2.355-1.709 0-3.035-0.581-3.972-1.732-0.88-1.065-1.32-2.475-1.32-4.229v-20.219c0-1.66 0.448-3.032 1.339-4.111 0.931-1.139 2.224-1.709 3.875-1.709 1.572 0 2.88 0.571 3.928 1.709 0.584 0.633 0.953 1.271 1.108 1.92 0.093 0.4 0.14 1.144 0.14 2.24v5.037z"></path>
</svg>
