<svg xmlns="http://www.w3.org/2000/svg" width="800" height="480" xml:space="preserve"><path d="M626.332 230.74H171.667v-6.873h454.666v6.873M641.655 41.347h6.876v-6.875h-6.876v6.875M628 41.347h6.873v-6.875H628v6.875"/><path d="M628 34.495h6.873v-6.87H628v6.87m6.875 0h6.873v-6.87h-6.873v6.87m47.934 6.852h6.873v-6.875h-6.873v6.875M628 48.198h6.873v-6.876H628v6.876"/><path d="M634.85 41.347h6.875v-6.875h-6.873v6.875"/><path d="M634.85 48.187h6.875v-6.875h-6.873v6.875"/><path d="M641.717 48.187h6.877v-6.875h-6.875v6.875m6.898 0h6.875v-6.875h-6.877v6.875m34.335 0h6.876v-6.875h-6.875l-.001 6.875m6.9 0h6.875v-6.875h-6.873v6.875"/><path d="M682.95 54.908h6.876v-6.875h-6.875l-.001 6.875"/><path d="M676.1 54.908h6.875v-6.875H676.1v6.875m13.75 0h6.875v-6.875h-6.873v6.875m-.177 6.98h6.877v-6.875h-6.877v6.875"/><path d="M682.825 61.888h6.875v-6.875h-6.875v6.875"/><path d="M676.1 61.888h6.875v-6.875H676.1v6.875m20.473 0h6.875v-6.875h-6.875v6.875m-6.898 6.85h6.877v-6.873h-6.877v6.873"/><path d="M682.825 68.738h6.875v-6.873h-6.875v6.873"/><path d="M676.1 68.738h6.875v-6.873H676.1v6.873m20.473 0h6.875v-6.873h-6.875v6.873m-6.898 6.849h6.877v-6.872h-6.877v6.872"/><path d="M682.825 75.587h6.875v-6.872h-6.875v6.872"/><path d="M676.1 75.587h6.875v-6.872H676.1v6.872m20.473 0h6.875v-6.872h-6.875v6.872m-6.898 6.853h6.877v-6.874h-6.877v6.874"/><path d="M682.825 82.44h6.875v-6.874h-6.875v6.874"/><path d="M676.1 82.44h6.875v-6.874H676.1v6.874m20.473 0h6.875v-6.874h-6.875v6.874m-6.898 6.852h6.877v-6.875h-6.877v6.874"/><path d="M682.825 89.292h6.875v-6.875h-6.875v6.874"/><path d="M689.675 96.142h6.877v-6.875h-6.877v6.875"/><path d="M689.675 102.993h6.877v-6.875h-6.877v6.875"/><path d="M682.825 96.142h6.875v-6.875h-6.875v6.875"/><path d="M676.017 96.142h6.877v-6.875h-6.875v6.875m-6.946-6.667h6.875V82.6h-6.875v6.875m-6.848-6.915h6.875v-6.878h-6.875v6.878m34.348 6.732h6.875v-6.875h-6.875v6.874m-75.548 260.478h6.875v-6.874h-6.875v6.874"/><path d="M621.168 356.606h6.877v-6.875h-6.878l.001 6.875"/><path d="M621.168 363.328h6.877v-6.875h-6.878l.001 6.875"/><path d="M614.316 363.328h6.877v-6.875h-6.875v6.875m13.748 0h6.875v-6.875h-6.875v6.875"/><path d="M627.988 370.117h6.873v-6.875h-6.873v6.875"/><path d="M621.139 370.117h6.873v-6.875h-6.873v6.875"/><path d="M614.413 370.117h6.874v-6.875h-6.874v6.875m13.575 6.852h6.873v-6.875h-6.873v6.875"/><path d="M621.139 376.969h6.873v-6.875h-6.873v6.875"/><path d="M614.413 376.969h6.874v-6.875h-6.874v6.875m13.575 6.851h6.873v-6.875h-6.873v6.875"/><path d="M621.139 383.82h6.873v-6.875h-6.873v6.875"/><path d="M614.413 383.82h6.874v-6.875h-6.874v6.875m20.427 0h6.873v-6.875h-6.873v6.875"/><path d="M627.988 390.672h6.873v-6.877h-6.873v6.877"/><path d="M621.139 390.672h6.873v-6.877h-6.873v6.877"/><path d="M614.413 390.672h6.874v-6.877h-6.874v6.877m0 6.896h6.874v-6.873h-6.874v6.873m20.427-6.896h6.873v-6.877h-6.873v6.877"/><path d="M627.988 397.523h6.873v-6.877h-6.873v6.877"/><path d="M634.84 397.523h6.873v-6.877h-6.873v6.877m-13.701 0h6.873v-6.877h-6.873v6.877"/><path d="M627.988 404.373h6.873v-6.876h-6.873v6.876"/><path d="M627.988 411.225h6.873v-6.876h-6.873v6.876"/><path d="M621.139 404.373h6.873v-6.876h-6.873v6.876M717.095 82.56h6.877v-6.878h-6.877v6.878"/><path d="M717.102 89.394h6.877v-6.872h-6.877v6.872"/><path d="M723.922 89.394h6.877v-6.872h-6.877v6.872"/><path d="M717.127 96.12H724v-6.875h-6.873v6.875"/><path d="M710.35 96.12h6.872v-6.875h-6.873l.001 6.875m13.572 0h6.877v-6.875h-6.877v6.875"/><path d="M723.932 102.993h6.873v-6.875h-6.873v6.875"/><path d="M717.08 102.993h6.875v-6.875h-6.875v6.875"/><path d="M710.355 102.993h6.873v-6.875h-6.873v6.875m13.577 6.852h6.873v-6.878h-6.873v6.876"/><path d="M717.08 109.845h6.875v-6.878h-6.875v6.876"/><path d="M710.355 109.845h6.873v-6.878h-6.873v6.876m13.577 6.85h6.873v-6.874h-6.873v6.874"/><path d="M717.08 116.693h6.875v-6.874h-6.875v6.874"/><path d="M710.355 116.693h6.873v-6.874h-6.873v6.874m13.577 6.854h6.873v-6.875h-6.873v6.875"/><path d="M717.08 123.547h6.875v-6.875h-6.875v6.875"/><path d="M710.355 123.547h6.873v-6.875h-6.873v6.875"/><path d="M703.505 116.693h6.875v-6.874h-6.875v6.874"/><path d="M703.505 123.547h6.875v-6.875h-6.875v6.875m20.427 6.851h6.873v-6.877h-6.873v6.877"/><path d="M717.08 130.398h6.875v-6.877h-6.875v6.877"/><path d="M710.229 130.398h6.877v-6.877h-6.877v6.877"/><path d="M710.229 137.25h6.877v-6.877h-6.877v6.875"/><path d="M717.08 137.25h6.875v-6.877h-6.875v6.875"/><path d="M710.229 144.1h6.877v-6.875h-6.877v6.875m-61.738 178.242h-6.876v-6.875h6.876v6.875"/><path d="M655.28 329.178h-6.875v-6.876h6.875v6.876m-6.9 0h-6.873v-6.876h6.873v6.876"/><path d="M655.28 335.902h-6.875v-6.874h6.875v6.874"/><path d="M662.132 335.902h-6.877v-6.874h6.877v6.874m-13.752 0h-6.873v-6.874h6.873v6.874m.175 6.978h-6.875v-6.875h6.875v6.875"/><path d="M655.406 342.88h-6.875v-6.875h6.875v6.875"/><path d="M662.132 342.88h-6.877v-6.875h6.877v6.875m-13.577 6.851h-6.875v-6.875h6.875v6.875"/><path d="M655.406 349.731h-6.875v-6.875h6.875v6.875"/><path d="M662.132 349.731h-6.877v-6.875h6.877v6.875m-13.577 6.853h-6.875v-6.877h6.875v6.875"/><path d="M655.406 356.584h-6.875v-6.877h6.875v6.875"/><path d="M662.132 356.584h-6.877v-6.877h6.877v6.875m6.885-13.723h-6.877v-6.875h6.875v6.875"/><path d="M655.406 363.434h-6.875v-6.875h6.875v6.875"/><path d="M662.132 363.434h-6.877v-6.875h6.877v6.875"/><path d="M668.983 356.584h-6.877v-6.877h6.875v6.875"/><path d="M668.983 363.434h-6.877v-6.875h6.875v6.875m.036-13.722h-6.877v-6.875h6.875v6.875m-13.609 20.571h-6.875v-6.875h6.875v6.877"/><path d="M668.878 370.283H662v-6.875h6.877v6.877"/><path d="M662.259 370.283h-6.877v-6.875h6.877v6.877"/><path d="M662.259 377.135h-6.877v-6.875h6.877v6.875m75.374-232.833h6.874v-6.874h-6.874v6.874"/><path d="M730.908 151.027h6.873v-6.875h-6.873v6.875"/><path d="M737.633 151.027h6.874v-6.875h-6.874v6.875"/><path d="M737.633 157.802h6.874v-6.875h-6.874v6.875"/><path d="M730.783 157.802h6.872v-6.875h-6.874v6.875"/><path d="M737.633 164.653h6.874v-6.875h-6.874v6.875"/><path d="M730.783 164.653h6.872v-6.875h-6.874v6.875"/><path d="M724.059 164.653h6.873v-6.875h-6.873v6.875m13.574 6.852h6.874v-6.876h-6.874v6.876"/><path d="M730.783 171.505h6.872v-6.876h-6.874v6.876"/><path d="M724.059 171.505h6.873v-6.876h-6.873v6.876m13.574 6.85h6.874v-6.875h-6.874v6.875m6.85-34.053h6.875v-6.874h-6.873v6.874"/><path d="M744.483 137.45h6.875v-6.872h-6.873v6.87m-.002 13.579h6.875v-6.875h-6.873v6.875"/><path d="M744.483 157.802h6.875v-6.875h-6.873v6.875"/><path d="M744.483 164.653h6.875v-6.875h-6.873v6.875"/><path d="M744.483 171.505h6.875v-6.876h-6.873v6.876"/><path d="M744.483 178.355h6.875v-6.875h-6.873v6.875m-13.702 0h6.872v-6.875h-6.874v6.875m-6.875 0h6.875v-6.875h-6.875v6.875"/><path d="M737.633 185.207h6.874v-6.875h-6.874v6.875"/><path d="M730.783 185.207h6.872v-6.875h-6.874v6.875"/><path d="M723.932 185.207h6.873v-6.875h-6.873v6.875"/><path d="M723.932 192.059h6.873v-6.877h-6.873v6.877"/><path d="M730.783 192.059h6.872v-6.877h-6.874v6.877"/><path d="M723.932 198.908h6.873v-6.875h-6.873v6.875m-54.687 88.965h-6.877v-6.877h6.877v6.877"/><path d="M675.969 294.595h-6.875v-6.873h6.875v6.873"/><path d="M669.245 294.595h-6.877v-6.873h6.877v6.873m0 6.98h-6.877V294.7h6.877v6.875"/><path d="M676.095 301.575h-6.875V294.7h6.875v6.875"/><path d="M682.693 301.575h-6.875V294.7h6.875v6.875m-13.448 6.852h-6.877v-6.875h6.877v6.875"/><path d="M676.095 308.427h-6.875v-6.875h6.875v6.875"/><path d="M682.82 308.427h-6.875v-6.875h6.875v6.875m-13.575 6.848h-6.877v-6.873h6.877v6.873"/><path d="M676.095 315.275h-6.875v-6.873h6.875v6.873"/><path d="M682.82 315.275h-6.875v-6.873h6.875v6.873m-13.575 6.852h-6.877v-6.873h6.877v6.873m-6.851-34.254h-6.875v-6.877h6.875v6.877"/><path d="M662.394 281.023h-6.875v-6.877h6.875v6.877m0 13.572h-6.875v-6.873h6.875v6.873m0 6.98h-6.875V294.7h6.875v6.875m13.701 20.552h-6.875v-6.873h6.875v6.873"/><path d="M682.82 322.127h-6.875v-6.873h6.875v6.873"/><path d="M676.095 328.977h-6.875v-6.875h6.875v6.875"/><path d="M682.946 328.977h-6.875v-6.875h6.875v6.875m6.599-20.55h-6.873v-6.875h6.873v6.875"/><path d="M689.545 315.275h-6.873v-6.873h6.873v6.873"/><path d="M689.545 322.127h-6.873v-6.873h6.873v6.873"/><path d="M689.545 328.977h-6.873v-6.875h6.873v6.875"/><path d="M682.946 335.828h-6.875v-6.875h6.875v6.875m68.452-143.675h6.875v-6.875h-6.875v6.875"/><path d="M744.675 198.875h6.873v-6.87h-6.873v6.87"/><path d="M751.398 198.875h6.875v-6.87h-6.875v6.87m0 6.98h6.875v-6.875h-6.875v6.875"/><path d="M744.547 205.855h6.875v-6.875h-6.875v6.875"/><path d="M751.398 212.707h6.875v-6.875h-6.875v6.875"/><path d="M744.547 212.707h6.875v-6.875h-6.875v6.875"/><path d="M737.695 212.707h6.876v-6.875h-6.876v6.875m13.703 6.852h6.875v-6.877h-6.875v6.877"/><path d="M744.547 219.559h6.875v-6.877h-6.875v6.877"/><path d="M737.695 219.559h6.876v-6.877h-6.876v6.877m13.703 6.849h6.875v-6.875h-6.875v6.875m6.852-34.255h6.875v-6.875h-6.877v6.875"/><path d="M758.25 185.302h6.875v-6.875h-6.877v6.875m.002 13.573h6.875v-6.87h-6.877v6.87m.002 6.98h6.875v-6.875h-6.877v6.875"/><path d="M758.25 212.707h6.875v-6.875h-6.877v6.875"/><path d="M758.25 219.559h6.875v-6.877h-6.877v6.877m-13.701 6.849h6.875v-6.875h-6.875v6.875"/><path d="M737.695 226.408h6.876v-6.875h-6.876v6.875m13.703 6.852h6.875v-6.875h-6.875v6.875"/><path d="M744.547 233.26h6.875v-6.875h-6.875v6.875"/><path d="M737.695 233.26h6.876v-6.875h-6.876v6.875"/><path d="M737.695 240.112h6.876v-6.877h-6.876v6.877"/><path d="M744.547 240.112h6.875v-6.877h-6.875v6.877"/><path d="M737.695 246.962h6.876v-6.875h-6.876v6.875m-6.867-27.403h6.877v-6.877h-6.877v6.877"/><path d="M730.828 226.408h6.877v-6.875h-6.877v6.875"/><path d="M730.828 233.26h6.877v-6.875h-6.877v6.875"/><path d="M730.828 240.112h6.877v-6.877h-6.877v6.877"/><path d="M730.828 246.962h6.877v-6.875h-6.877v6.875m-54.733-41.175h-6.875v-6.875h6.875v6.875"/><path d="M682.693 205.787h-6.875v-6.875h6.875v6.875"/><path d="M682.82 212.512h-6.875v-6.877h6.875v6.877"/><path d="M676.095 212.512h-6.875v-6.877h6.875v6.877m20.365 0h-6.875v-6.877h6.875v6.877"/><path d="M689.735 212.512h-6.875v-6.877h6.875v6.877m-13.64 6.976h-6.875v-6.875h6.875v6.875"/><path d="M682.946 219.488h-6.875v-6.875h6.875v6.875"/><path d="M689.735 219.488h-6.875v-6.875h6.875v6.875"/><path d="M696.583 219.488h-6.871v-6.875h6.873v6.875"/><path d="M703.435 219.488h-6.873v-6.875h6.873v6.875m-20.489 6.852h-6.875v-6.875h6.875v6.875"/><path d="M689.799 226.34h-6.877v-6.875h6.877v6.875"/><path d="M696.65 226.34h-6.877v-6.875h6.875v6.875"/><path d="M703.5 226.34h-6.875v-6.875h6.875v6.875"/><path d="M710.225 226.34h-6.876v-6.875h6.876v6.875m-20.426 6.851h-6.877v-6.876h6.877v6.876m-20.554-27.404h-6.877v-6.875h6.877v6.875"/><path d="M669.245 198.934h-6.877v-6.874h6.877v6.874m27.422 34.257h-6.875v-6.876h6.875v6.876"/><path d="M703.405 233.191h-6.877v-6.876h6.877v6.876"/><path d="M710.273 233.191h-6.875v-6.876h6.875v6.876"/><path d="M703.405 240.042h-6.877v-6.875h6.877v6.875"/><path d="M703.405 246.828h-6.877v-6.875h6.877v6.875"/><path d="M710.273 240.042h-6.875v-6.875h6.875v6.875"/><path d="M710.273 246.828h-6.875v-6.875h6.875v6.875m-13.606-6.786h-6.875v-6.875h6.875v6.875m61.52 13.708h6.873v-6.875h-6.873v6.873"/><path d="M751.398 253.75h6.875v-6.875h-6.875v6.873"/><path d="M751.462 260.473h6.873v-6.875h-6.873v6.875"/><path d="M758.187 260.473h6.873v-6.875h-6.873v6.875m0 6.977h6.873v-6.875h-6.873v6.875"/><path d="M751.335 267.45h6.873v-6.875h-6.873v6.875m-6.788-6.977h6.875v-6.875h-6.875v6.875m-.127 6.977h6.875v-6.875h-6.875v6.875"/><path d="M758.187 274.302h6.873v-6.875h-6.873v6.875"/><path d="M751.335 274.302h6.873v-6.875h-6.873v6.875"/><path d="M744.483 274.302h6.875v-6.875h-6.873v6.875m-6.917-6.852h6.877v-6.875h-6.877v6.875"/><path d="M737.633 274.302h6.874v-6.875h-6.874v6.875m20.554 6.851h6.873v-6.875h-6.873v6.875"/><path d="M751.335 281.153h6.873v-6.875h-6.873v6.875"/><path d="M744.483 281.153h6.875v-6.875h-6.873v6.875m20.553-27.403h6.874v-6.875h-6.874v6.873"/><path d="M765.038 246.898h6.874v-6.874h-6.874v6.874m0 13.575h6.874v-6.875h-6.874v6.875m-13.703 27.532h6.873v-6.876h-6.873v6.876"/><path d="M744.483 288.005h6.875v-6.876h-6.873v6.876"/><path d="M737.616 281.153h6.875v-6.875h-6.873v6.875"/><path d="M737.616 288.005h6.875v-6.876h-6.873v6.876"/><path d="M737.616 294.856h6.875v-6.876h-6.873v6.876m-6.835-20.554h6.872v-6.875h-6.874v6.875"/><path d="M730.767 281.153h6.873v-6.875h-6.873v6.875"/><path d="M730.767 288.005h6.873v-6.876h-6.873v6.876"/><path d="M730.767 294.856h6.873v-6.876h-6.873v6.876"/><path d="M723.917 288.005h6.871v-6.876h-6.873v6.876"/><path d="M723.917 294.856h6.871v-6.876h-6.873v6.876m-47.582-47.836h-6.875v-6.875h6.875v6.875"/><path d="M683.122 247.02h-6.875v-6.875h6.875v6.875"/><path d="M683.059 253.745h-6.877v-6.877h6.877v6.877"/><path d="M676.333 253.745h-6.875v-6.877h6.875v6.877m0 6.977h-6.875v-6.875h6.875v6.875"/><path d="M683.184 260.722h-6.875v-6.875h6.876l-.001 6.875m6.79-6.977h-6.875v-6.877h6.875v6.877m.126 6.977h-6.875v-6.875h6.875v6.875"/><path d="M676.333 267.573h-6.875v-6.875h6.875v6.875"/><path d="M683.184 267.573h-6.875v-6.875h6.876l-.001 6.875"/><path d="M690.035 267.573h-6.875v-6.875h6.875v6.875m6.915-6.851h-6.875v-6.875h6.876l-.001 6.875"/><path d="M696.887 267.573h-6.875v-6.875h6.875v6.875m-20.554 6.852h-6.875v-6.876h6.875v6.876"/><path d="M683.184 274.425h-6.875v-6.876h6.876l-.001 6.876"/><path d="M690.035 274.425h-6.875v-6.876h6.875v6.876m-20.552-27.405h-6.877v-6.875h6.875v6.875"/><path d="M669.483 240.168h-6.877v-6.875h6.875v6.875m.002 13.577h-6.877v-6.877h6.875v6.877m13.703 27.53h-6.875V274.4h6.876l-.001 6.875"/><path d="M690.035 281.275h-6.875V274.4h6.875v6.875"/><path d="M696.901 274.425h-6.873v-6.876h6.873v6.876"/><path d="M696.901 281.275h-6.873V274.4h6.873v6.875"/><path d="M696.901 288.125h-6.873v-6.873h6.873v6.873m6.837-20.552h-6.877v-6.875h6.877v6.875"/><path d="M703.753 274.425h-6.873v-6.876h6.873v6.876"/><path d="M703.753 281.275h-6.873V274.4h6.873v6.875"/><path d="M703.753 288.125h-6.873v-6.873h6.873v6.873m47.33 27.283h6.872v-6.875h-6.873l.001 6.875"/><path d="M744.293 315.408h6.875v-6.875h-6.875v6.875"/><path d="M737.538 315.408h6.875v-6.875h-6.875v6.875"/><path d="M744.358 322.133h6.873v-6.875h-6.873v6.875"/><path d="M751.083 322.133h6.872v-6.875h-6.873l.001 6.875m0 6.978h6.872v-6.877h-6.873l.001 6.877"/><path d="M744.231 329.111h6.874v-6.877h-6.874v6.877m-6.79-6.978h6.877v-6.875h-6.877v6.875"/><path d="M730.578 322.133h6.875v-6.875h-6.875v6.875m6.738 6.978h6.875v-6.877h-6.876l.001 6.877m6.915 6.851h6.874v-6.875h-6.874v6.875"/><path d="M737.38 335.962h6.875v-6.875h-6.875v6.875"/><path d="M730.578 329.111h6.875v-6.877h-6.875v6.877m-6.945-6.978h6.875v-6.875h-6.875v6.875m0 6.978h6.875v-6.877h-6.875v6.877"/><path d="M730.578 335.962h6.875v-6.875h-6.875v6.875"/><path d="M737.38 342.813h6.875v-6.875h-6.875v6.875m20.552-27.405h6.875v-6.875h-6.875v6.875"/><path d="M757.932 322.163h6.875v-6.875h-6.875v6.875m0-13.604h6.875v-6.877h-6.875v6.877m-27.354 34.254h6.875v-6.875h-6.875v6.875"/><path d="M730.578 349.663h6.875v-6.875h-6.875v6.875m-6.911-13.701h6.875v-6.875h-6.875v6.875"/><path d="M723.667 342.813h6.875v-6.875h-6.875v6.875m-6.695-13.702h6.875v-6.877h-6.875v6.877"/><path d="M717.005 335.962h6.875v-6.875h-6.875v6.875"/><path d="M717.005 342.813h6.875v-6.875h-6.875v6.875"/><path d="M723.667 349.663h6.875v-6.875h-6.875v6.875"/><path d="M716.809 349.663h6.876v-6.875h-6.876v6.875m-6.656-13.701h6.875v-6.875h-6.875v6.875"/><path d="M710.153 342.813h6.875v-6.875h-6.875v6.875"/><path d="M709.958 349.663h6.875v-6.875h-6.875v6.875"/><path d="M703.588 342.813h6.874v-6.875h-6.874v6.875"/><path d="M703.394 349.663h6.875v-6.875h-6.875v6.875m13.559 20.299h6.875v-6.874h-6.875v6.874"/><path d="M723.679 369.962h6.875v-6.874h-6.875v6.874m0 6.979h6.875v-6.875h-6.875v6.875"/><path d="M730.528 376.941h6.877v-6.875h-6.877v6.875m-13.702 0h6.875v-6.875h-6.875v6.875m-6.788-6.979h6.875v-6.874h-6.875v6.874"/><path d="M703.175 369.962h6.873v-6.874h-6.873v6.874m6.737 6.979h6.875v-6.875h-6.875v6.875m6.914 6.852h6.875v-6.875h-6.875v6.875"/><path d="M723.679 383.793h6.875v-6.875h-6.875v6.875m-13.704 0h6.877v-6.875h-6.877v6.875"/><path d="M703.175 376.941h6.873v-6.875h-6.873v6.875m-6.946 0h6.873v-6.875h-6.873v6.875"/><path d="M703.175 383.793h6.873v-6.875h-6.873v6.875"/><path d="M709.975 390.644h6.877v-6.875h-6.877v6.875m7.042 0h6.875v-6.875h-6.877v6.875m13.513-20.682h6.877v-6.874h-6.877v6.874m7.01 0h6.875v-6.874h-6.875v6.874"/><path d="M703.175 390.644h6.873v-6.875h-6.873v6.875"/><path d="M703.175 397.495h6.873v-6.875h-6.873v6.875m-6.913-13.702h6.877v-6.875h-6.877v6.875"/><path d="M696.262 390.644h6.877v-6.875h-6.877v6.875m-6.696-13.703h6.875v-6.875h-6.875v6.875"/><path d="M689.602 383.793h6.877v-6.875h-6.877v6.875"/><path d="M689.602 390.644h6.877v-6.875h-6.877v6.875"/><path d="M696.262 397.495h6.877v-6.875h-6.877v6.875"/><path d="M689.405 397.495h6.875v-6.875h-6.875v6.875m-6.655-13.702h6.877v-6.875h-6.875v6.875"/><path d="M682.75 390.644h6.877v-6.875h-6.875v6.875"/><path d="M682.554 397.495h6.875v-6.875h-6.875v6.875"/><path d="M676.184 390.644h6.876v-6.875h-6.875l-.001 6.875"/><path d="M675.988 397.495h6.877v-6.875h-6.877v6.875m13.574 20.293h6.877v-6.875h-6.877v6.875"/><path d="M696.413 417.788h6.875v-6.875h-6.875v6.875m-13.701 0h6.875v-6.875h-6.875v6.875m-6.913 0h6.875v-6.875h-6.875v6.875"/><path d="M682.712 424.64h6.875v-6.875h-6.875v6.875"/><path d="M689.562 424.64h6.877v-6.875h-6.877v6.875m-13.702 0h6.875v-6.875h-6.875v6.875m27.405 0h6.875v-6.875h-6.875v6.875"/><path d="M710.116 424.64h6.875v-6.875h-6.876l.001 6.875m-13.703 0h6.875v-6.875h-6.875v6.875m-27.353-6.852h6.875v-6.875h-6.875v6.875"/><path d="M669.06 424.64h6.875v-6.875h-6.875v6.875"/><path d="M675.86 431.491h6.875v-6.876h-6.875v6.876m7.041 0h6.874v-6.876h-6.874v6.876"/><path d="M669.06 431.491h6.875v-6.876h-6.875v6.876"/><path d="M669.06 438.342h6.875v-6.875h-6.875v6.875m-6.91-13.702h6.871v-6.875h-6.873v6.875"/><path d="M662.15 431.491h6.871v-6.876h-6.873v6.876m41.117 0h6.875v-6.876h-6.875v6.876"/><path d="M696.413 431.491h6.875v-6.876h-6.875v6.876"/><path d="M689.741 431.491h6.877v-6.876h-6.877v6.876m-34.255-6.851h6.875v-6.875h-6.875v6.875"/><path d="M655.486 431.491h6.875v-6.876h-6.875v6.876"/><path d="M662.15 438.342h6.871v-6.875h-6.873v6.875"/><path d="M655.292 438.342h6.875v-6.875h-6.875v6.875m34.416 0h6.877v-6.875h-6.877v6.875"/><path d="M696.413 438.342h6.875v-6.875h-6.875v6.875m-13.618 0h6.877v-6.875h-6.877v6.875"/><path d="M675.94 438.342h6.875v-6.875h-6.875v6.875m-6.88 6.851h6.875v-6.875h-6.875v6.875m-6.91 0h6.871v-6.875h-6.873v6.875"/><path d="M682.795 445.193h6.877v-6.875h-6.877v6.875"/><path d="M675.94 445.193h6.875v-6.875h-6.875v6.875m-27.305-13.702h6.877v-6.876h-6.877v6.876"/><path d="M648.44 438.342h6.875v-6.875h-6.875v6.875"/><path d="M642.071 438.247h6.874v-6.875h-6.874v6.875M621.038 89.292h6.875v-6.875h-6.875v6.874"/><path d="M614.187 89.292h6.875v-6.875h-6.875v6.874m13.748.001h6.877v-6.875h-6.877v6.874"/><path d="M634.787 89.292h6.875v-6.875h-6.875v6.874"/><path d="M641.639 89.292h6.875v-6.875h-6.875v6.874m-13.704-6.851h6.877v-6.874h-6.877v6.874"/><path d="M634.787 82.44h6.875v-6.874h-6.875v6.874m13.701 6.852h6.877v-6.875h-6.877v6.874"/><path d="M655.34 89.292h6.875v-6.875h-6.875v6.874m-27.323 6.851h6.875v-6.875h-6.877v6.875m6.898 0h6.875v-6.875h-6.875v6.875"/><path d="M641.765 96.142h6.875v-6.875h-6.875v6.875"/><path d="M648.617 96.142h6.875v-6.875h-6.877v6.875"/><path d="M655.467 96.142h6.875v-6.875h-6.875v6.875"/><path d="M662.316 96.142h6.877v-6.875h-6.875v6.875m-27.513 6.786h6.874v-6.873h-6.874v6.873m6.896 0h6.874v-6.873h-6.874v6.873"/><path d="M648.554 102.928h6.873v-6.873h-6.873v6.873"/><path d="M655.405 102.928h6.873v-6.873h-6.873v6.873"/><path d="M662.255 102.928h6.873v-6.873h-6.873v6.873"/><path d="M669.106 102.928h6.874v-6.873h-6.874v6.873m-20.679 6.855h6.873v-6.878h-6.873v6.876"/><path d="M655.278 109.783h6.873v-6.878h-6.873v6.876"/><path d="M662.128 109.783h6.874v-6.878h-6.874v6.876"/><path d="M668.98 109.783h6.873v-6.878h-6.873v6.876"/><path d="M675.832 109.783h6.873v-6.878h-6.873v6.876m-34.067 20.744h6.875v-6.875h-6.875v6.874"/><path d="M648.617 130.525h6.875v-6.875h-6.877v6.874"/><path d="M655.467 130.525h6.875v-6.875h-6.875v6.874m-13.702-6.851h6.875V116.8h-6.875v6.873"/><path d="M634.913 123.673h6.875V116.8h-6.875v6.873m13.704 0h6.875V116.8h-6.877v6.874"/><path d="M655.467 123.673h6.875V116.8h-6.875v6.873"/><path d="M662.316 123.673h6.877V116.8h-6.875v6.874"/><path d="M662.316 130.525h6.877v-6.875h-6.875v6.874"/><path d="M669.168 130.525h6.877v-6.875h-6.878v6.874m-27.322 6.851h6.875v-6.874h-6.875v6.874m6.9 0h6.873v-6.874h-6.873v6.874"/><path d="M655.595 137.375h6.874v-6.874h-6.874v6.874"/><path d="M662.446 137.375h6.874v-6.874h-6.874v6.874"/><path d="M669.299 137.375h6.873v-6.874h-6.873v6.874"/><path d="M676.15 137.375h6.871v-6.874h-6.873v6.874m-27.515 6.787h6.874v-6.874h-6.874v6.874m6.898 0h6.875v-6.874h-6.875v6.874"/><path d="M662.383 144.162h6.875v-6.874h-6.876l.001 6.874"/><path d="M669.233 144.162h6.875v-6.874h-6.875v6.874"/><path d="M676.083 144.162h6.877v-6.874h-6.875v6.874"/><path d="M682.935 144.162h6.877v-6.874h-6.877v6.874m-7.008-13.637h6.873v-6.875h-6.873v6.874"/><path d="M682.905 137.375h6.873v-6.874h-6.873v6.874"/><path d="M689.691 144.162h6.875v-6.874h-6.875v6.874m6.877 0h6.873v-6.874h-6.873v6.874m-34.313 6.851h6.873v-6.873h-6.873v6.873"/><path d="M669.106 151.013h6.874v-6.873h-6.874v6.873"/><path d="M675.958 151.013h6.874v-6.873h-6.874v6.873"/><path d="M682.809 151.013h6.873v-6.873h-6.873v6.873"/><path d="M689.66 151.013h6.873v-6.873h-6.873v6.873m-34.193 20.427h6.875v-6.874h-6.875v6.874"/><path d="M662.316 171.44h6.877v-6.874h-6.875v6.874"/><path d="M669.168 171.44h6.877v-6.874h-6.878l.001 6.874m-13.701-6.852h6.875v-6.872h-6.875v6.873"/><path d="M648.617 164.588h6.875v-6.872h-6.877v6.873m13.701-.001h6.877v-6.872h-6.875v6.873"/><path d="M669.168 164.588h6.877v-6.872h-6.878v6.873"/><path d="M676.02 171.44h6.875v-6.874h-6.875v6.874"/><path d="M682.872 171.44h6.875v-6.874h-6.875v6.874m-27.325 6.852h6.875v-6.876h-6.875v6.876m6.899 0h6.874v-6.876h-6.874v6.876"/><path d="M669.299 178.292h6.873v-6.876h-6.873v6.876"/><path d="M676.15 178.292h6.871v-6.876h-6.873v6.876"/><path d="M683 178.292h6.873v-6.876H683v6.876"/><path d="M689.85 178.292h6.875v-6.876h-6.873v6.876m-27.519 6.788h6.875v-6.874h-6.875v6.874m6.9 0h6.875v-6.874h-6.875v6.874"/><path d="M676.083 185.08h6.877v-6.874h-6.875v6.874"/><path d="M682.935 185.08h6.877v-6.874h-6.877v6.874"/><path d="M689.787 185.08h6.875v-6.874h-6.875v6.874"/><path d="M696.639 185.08h6.875v-6.874h-6.875v6.874m-7.011-13.64h6.874v-6.874h-6.874v6.874"/><path d="M696.606 178.292h6.874v-6.876h-6.874v6.876"/><path d="M703.394 185.08h6.875v-6.874h-6.875v6.874m-27.436 6.925h6.874v-6.878h-6.874v6.878"/><path d="M682.809 192.005h6.873v-6.878h-6.873v6.878"/><path d="M689.66 192.005h6.873v-6.878h-6.873v6.878"/><path d="M696.512 192.005h6.873v-6.878h-6.873v6.878"/><path d="M703.361 192.005h6.874v-6.878h-6.874v6.878m-6.849 6.895h6.873v-6.875h-6.873v6.875"/><path d="M703.361 198.9h6.874v-6.875h-6.874v6.875m13.704 20.595h6.873v-6.875h-6.873v6.875"/><path d="M717.065 212.635h6.873v-6.875h-6.873v6.875"/><path d="M717.065 205.917h6.873v-6.876h-6.873v6.875M717.065 199.04h6.873v-6.874h-6.873v6.874m0-6.873h6.873v-6.875h-6.873v6.875m0-6.875h6.873v-6.876h-6.873v6.876"/><path d="M717.065 178.417h6.873v-6.876h-6.873v6.875m-6.827-6.928h6.875v-6.875h-6.875v6.875"/><path d="M710.238 164.717h6.875v-6.875h-6.875v6.876m-6.922-6.771h6.875v-6.875h-6.877v6.875"/><path d="M703.316 151.213h6.875v-6.875h-6.877v6.875m-6.802-13.821h6.873v-6.876h-6.873v6.876"/><path d="M696.512 130.658h6.873v-6.876h-6.873v6.876m-6.807-6.965h6.875v-6.875h-6.875v6.875m0-6.891h6.875v-6.874h-6.875v6.874m-7.083-7.029h6.873v-6.875h-6.873v6.875m34.443 116.54h6.873v-6.875h-6.873v6.875"/><path d="M717.065 233.132h6.873v-6.877h-6.873v6.877"/><path d="M717.065 239.953h6.873v-6.875h-6.873v6.875"/><path d="M717.065 246.771h6.873v-6.876h-6.873v6.876"/><path d="M717.065 253.588h6.873v-6.875h-6.873v6.875"/><path d="M717.065 260.412h6.873v-6.877h-6.873v6.877"/><path d="M717.065 267.229h6.873v-6.875h-6.873v6.875m-6.756 7.042h6.873v-6.877h-6.873v6.877"/><path d="M710.309 281.121h6.873v-6.875h-6.873v6.875"/><path d="M710.309 287.973h6.873v-6.875h-6.873v6.875"/><path d="M710.309 294.825h6.873v-6.877h-6.873v6.877"/><path d="M710.309 301.627h6.873v-6.873h-6.873v6.873m-6.929 6.901h6.875v-6.875h-6.875v6.875"/><path d="M703.38 315.38h6.875v-6.875h-6.875v6.875"/><path d="M703.38 322.231h6.875v-6.875h-6.875v6.875"/><path d="M696.575 329.084h6.876v-6.877h-6.876v6.875"/><path d="M696.575 335.934h6.876v-6.875h-6.876v6.875m-6.913 6.849h6.873v-6.875h-6.873v6.877m0 6.899h6.873v-6.875h-6.873v6.873"/><path d="M682.812 356.486h6.873v-6.875h-6.873v6.875m0 6.897h6.873v-6.871h-6.873v6.873m-6.9 6.849h6.875v-6.873h-6.875v6.873"/><path d="M675.912 377.087h6.875v-6.874h-6.875v6.874"/><path d="M669.062 383.842h6.873v-6.873h-6.873v6.873"/><path d="M662.305 390.6h6.875v-6.875h-6.875v6.875m0 6.947h6.875v-6.875h-6.875v6.875"/><path d="M655.453 397.547h6.875v-6.875h-6.875v6.875"/><path d="M655.453 404.398h6.875v-6.875h-6.875v6.875"/><path d="M648.602 404.398h6.877v-6.875h-6.877v6.875"/><path d="M648.602 411.25h6.877v-6.877h-6.877v6.875"/><path d="M641.75 411.25h6.877v-6.877h-6.875v6.875m-.094 6.945h6.873v-6.873h-6.873v6.873"/><path d="M634.807 418.193h6.873v-6.873h-6.873v6.873"/><path d="M634.9 424.95h6.875v-6.875H634.9v6.875"/><path d="M628.05 424.95h6.875v-6.875h-6.873v6.876m-.002 6.874h6.875v-6.874h-6.873v6.874"/><path d="M621.2 431.825h6.873v-6.874H621.2v6.874"/><path d="M621.105 438.675h6.873v-6.873h-6.873v6.873"/><path d="M614.253 438.675h6.874v-6.873h-6.874v6.873"/><path d="M614.316 445.4h6.875v-6.875h-6.877v6.875"/><path d="M607.465 445.4h6.875v-6.875h-6.875v6.875m-.064 6.975h6.874v-6.87h-6.874v6.87"/><path d="M600.55 452.375h6.875v-6.87h-6.873v6.87m48.065-397.34h6.875v-6.874h-6.877v6.874"/><path d="M655.467 55.035h6.875v-6.874h-6.875v6.874m-20.617 0h6.875v-6.874h-6.873v6.874"/><path d="M641.717 55.035h6.877v-6.874h-6.875v6.874m6.898 6.805h6.875v-6.875h-6.877v6.875"/><path d="M655.467 61.84h6.875v-6.875h-6.875v6.875"/><path d="M662.316 61.84h6.877v-6.875h-6.875v6.875m-27.468 0h6.875v-6.875h-6.873v6.875"/><path d="M641.717 61.84h6.877v-6.875h-6.875v6.875m6.898 6.898h6.875v-6.873h-6.877v6.873"/><path d="M655.467 68.738h6.875v-6.873h-6.875v6.873"/><path d="M662.316 68.738h6.877v-6.873h-6.875v6.873m-13.701 6.849h6.875v-6.872h-6.877v6.872"/><path d="M655.467 75.587h6.875v-6.872h-6.875v6.872"/><path d="M662.316 75.587h6.877v-6.872h-6.875v6.872m-20.601-6.849h6.877v-6.873h-6.875v6.873"/><g><path d="M158.345 41.347h-6.878v-6.875h6.876v6.875m13.657 0h-6.875v-6.875H172v6.875"/><path d="M172 34.495h-6.875v-6.87H172v6.87m-6.875 0h-6.874v-6.87h6.874v6.87m-47.934 6.852h-6.875v-6.875h6.875v6.875M172 48.198h-6.875v-6.876H172v6.876"/><path d="M165.15 41.347h-6.875v-6.875h6.875v6.875"/><path d="M165.15 48.187h-6.875v-6.875h6.875v6.875"/><path d="M158.283 48.187h-6.876v-6.875h6.875v6.875m-6.899 0h-6.875v-6.875h6.875v6.875m-34.333 0h-6.876v-6.875h6.875v6.875m-6.899 0h-6.873v-6.875h6.873v6.875"/><path d="M117.05 54.908h-6.876v-6.875h6.875v6.875"/><path d="M123.9 54.908h-6.875v-6.875h6.875v6.875m-13.75 0h-6.873v-6.875h6.873v6.875m.175 6.98h-6.875v-6.875h6.875v6.875"/><path d="M117.175 61.888H110.3v-6.875h6.875v6.875"/><path d="M123.9 61.888h-6.875v-6.875h6.875v6.875m-20.475 0H96.55v-6.875h6.875v6.875m6.9 6.85h-6.875v-6.873h6.875v6.873"/><path d="M117.175 68.738H110.3v-6.873h6.875v6.873"/><path d="M123.9 68.738h-6.875v-6.873h6.875v6.873m-20.475 0H96.55v-6.873h6.875v6.873m6.9 6.849h-6.875v-6.872h6.875v6.872"/><path d="M117.175 75.587H110.3v-6.872h6.875v6.872"/><path d="M123.9 75.587h-6.875v-6.872h6.875v6.872m-20.475 0H96.55v-6.872h6.875v6.872m6.9 6.853h-6.875v-6.874h6.875v6.874"/><path d="M117.175 82.44H110.3v-6.874h6.875v6.874"/><path d="M123.9 82.44h-6.875v-6.874h6.875v6.874m-20.475 0H96.55v-6.874h6.875v6.874m6.9 6.852h-6.875v-6.875h6.875v6.874"/><path d="M117.175 89.292H110.3v-6.875h6.875v6.874"/><path d="M110.325 96.142h-6.875v-6.875h6.875v6.875"/><path d="M110.325 102.993h-6.875v-6.875h6.875v6.875"/><path d="M117.175 96.142H110.3v-6.875h6.875v6.875"/><path d="M123.981 96.142h-6.875v-6.875h6.875v6.875m6.944-6.667h-6.875V82.6h6.875v6.875m6.85-6.915H130.9v-6.878h6.875v6.878m-34.35 6.732H96.55v-6.875h6.875v6.874m75.55 260.478H172.1v-6.874h6.875v6.874"/><path d="M178.832 356.606h-6.875v-6.875h6.875v6.875"/><path d="M178.832 363.328h-6.875v-6.875h6.875v6.875"/><path d="M185.684 363.328h-6.877v-6.875h6.875v6.875m-13.748 0h-6.877v-6.875h6.875v6.875"/><path d="M172.012 370.117h-6.874v-6.875h6.874v6.875"/><path d="M178.863 370.117h-6.875v-6.875h6.875v6.875"/><path d="M185.587 370.117h-6.874v-6.875h6.874v6.875m-13.575 6.852h-6.874v-6.875h6.874v6.875"/><path d="M178.863 376.969h-6.875v-6.875h6.875v6.875"/><path d="M185.587 376.969h-6.874v-6.875h6.874v6.875m-13.575 6.851h-6.874v-6.875h6.874v6.875"/><path d="M178.863 383.82h-6.875v-6.875h6.875v6.875"/><path d="M185.587 383.82h-6.874v-6.875h6.874v6.875m-20.427 0h-6.874v-6.875h6.874v6.875"/><path d="M172.012 390.672h-6.874v-6.877h6.874v6.877"/><path d="M178.863 390.672h-6.875v-6.877h6.875v6.877"/><path d="M185.587 390.672h-6.874v-6.877h6.874v6.877m0 6.896h-6.874v-6.873h6.874v6.873m-20.427-6.896h-6.874v-6.877h6.874v6.877"/><path d="M172.012 397.523h-6.874v-6.877h6.874v6.877"/><path d="M165.16 397.523h-6.874v-6.877h6.874v6.877m13.703 0h-6.875v-6.877h6.875v6.877"/><path d="M172.012 404.373h-6.874v-6.876h6.874v6.876"/><path d="M172.012 411.225h-6.874v-6.876h6.874v6.876"/><path d="M178.863 404.373h-6.875v-6.876h6.875v6.876M82.903 82.56h-6.875v-6.878h6.875v6.878"/><path d="M82.896 89.394h-6.873v-6.872h6.873v6.872"/><path d="M76.077 89.394h-6.875v-6.872h6.875v6.872"/><path d="M82.875 96.12h-6.876v-6.875h6.876v6.875"/><path d="M89.652 96.12h-6.875v-6.875h6.875v6.875m-13.575 0h-6.875v-6.875h6.875v6.875"/><path d="M76.068 102.993h-6.874v-6.875h6.874v6.875"/><path d="M82.92 102.993h-6.875v-6.875h6.875v6.875"/><path d="M89.644 102.993H82.77v-6.875h6.874v6.875m-13.576 6.852h-6.874v-6.878h6.874v6.876"/><path d="M82.92 109.845h-6.875v-6.878h6.875v6.876"/><path d="M89.644 109.845H82.77v-6.878h6.874v6.876m-13.576 6.85h-6.874v-6.874h6.874v6.874"/><path d="M82.92 116.693h-6.875v-6.874h6.875v6.874"/><path d="M89.644 116.693H82.77v-6.874h6.874v6.874m-13.576 6.854h-6.874v-6.875h6.874v6.875"/><path d="M82.92 123.547h-6.875v-6.875h6.875v6.875"/><path d="M89.644 123.547H82.77v-6.875h6.874v6.875"/><path d="M96.495 116.693H89.62v-6.874h6.875v6.874"/><path d="M96.495 123.547H89.62v-6.875h6.875v6.875m-20.427 6.851h-6.874v-6.877h6.874v6.877"/><path d="M82.92 130.398h-6.875v-6.877h6.875v6.877"/><path d="M89.771 130.398h-6.876v-6.877h6.876v6.877"/><path d="M89.771 137.25h-6.876v-6.877h6.876v6.875"/><path d="M82.92 137.25h-6.875v-6.877h6.875v6.875"/><path d="M89.771 144.1h-6.876v-6.875h6.876v6.875m61.739 178.242h6.875v-6.875h-6.875v6.875"/><path d="M144.72 329.178h6.875v-6.876h-6.875v6.876m6.898 0h6.875v-6.876h-6.875v6.876"/><path d="M144.72 335.902h6.875v-6.874h-6.875v6.874"/><path d="M137.868 335.902h6.875v-6.874h-6.875v6.874m13.75 0h6.875v-6.874h-6.875v6.874m-.173 6.978h6.875v-6.875h-6.875v6.875"/><path d="M144.593 342.88h6.875v-6.875h-6.875v6.875"/><path d="M137.868 342.88h6.875v-6.875h-6.875v6.875m13.577 6.851h6.875v-6.875h-6.875v6.875"/><path d="M144.593 349.731h6.875v-6.875h-6.875v6.875"/><path d="M137.868 349.731h6.875v-6.875h-6.875v6.875m13.577 6.853h6.875v-6.877h-6.875v6.875"/><path d="M144.593 356.584h6.875v-6.877h-6.875v6.875"/><path d="M137.868 356.584h6.875v-6.877h-6.875v6.875m-6.883-13.723h6.875v-6.875h-6.876v6.875"/><path d="M144.593 363.434h6.875v-6.875h-6.875v6.875"/><path d="M137.868 363.434h6.875v-6.875h-6.875v6.875"/><path d="M131.017 356.584h6.877v-6.877h-6.877v6.875"/><path d="M131.017 363.434h6.877v-6.875h-6.877v6.875m-.032-13.722h6.875v-6.875h-6.876v6.875m13.609 20.571h6.875v-6.875h-6.875v6.877"/><path d="M131.124 370.283h6.873v-6.875h-6.873v6.877"/><path d="M137.742 370.283h6.875v-6.875h-6.875v6.877"/><path d="M137.742 377.135h6.875v-6.875h-6.875v6.875M62.367 144.302h-6.874v-6.874h6.874v6.874"/><path d="M69.092 151.027h-6.875v-6.875h6.875v6.875"/><path d="M62.367 151.027h-6.874v-6.875h6.874v6.875"/><path d="M62.367 157.802h-6.874v-6.875h6.874v6.875"/><path d="M69.217 157.802h-6.874v-6.875h6.875v6.875"/><path d="M62.367 164.653h-6.874v-6.875h6.874v6.875"/><path d="M69.217 164.653h-6.874v-6.875h6.875v6.875"/><path d="M75.941 164.653h-6.873v-6.875h6.873v6.875m-13.574 6.852h-6.874v-6.876h6.874v6.876"/><path d="M69.217 171.505h-6.874v-6.876h6.875v6.876"/><path d="M75.941 171.505h-6.873v-6.876h6.873v6.876m-13.574 6.85h-6.874v-6.875h6.874v6.875m-6.85-34.053h-6.875v-6.874h6.875v6.874"/><path d="M55.517 137.45h-6.875v-6.872h6.875v6.87m0 13.579h-6.875v-6.875h6.875v6.875"/><path d="M55.517 157.802h-6.875v-6.875h6.875v6.875"/><path d="M55.517 164.653h-6.875v-6.875h6.875v6.875"/><path d="M55.517 171.505h-6.875v-6.876h6.875v6.876"/><path d="M55.517 178.355h-6.875v-6.875h6.875v6.875m13.7 0h-6.874v-6.875h6.875v6.875m6.875 0h-6.875v-6.875h6.875v6.875"/><path d="M62.367 185.207h-6.874v-6.875h6.874v6.875"/><path d="M69.217 185.207h-6.874v-6.875h6.875v6.875"/><path d="M76.068 185.207h-6.874v-6.875h6.874v6.875"/><path d="M76.068 192.059h-6.874v-6.877h6.874v6.877"/><path d="M69.217 192.059h-6.874v-6.877h6.875v6.877"/><path d="M76.068 198.908h-6.874v-6.875h6.874v6.875m54.687 88.965h6.875v-6.877h-6.875v6.877"/><path d="M124.032 294.595h6.875v-6.873h-6.875v6.873"/><path d="M130.755 294.595h6.875v-6.873h-6.875v6.873m0 6.98h6.875V294.7h-6.875v6.875"/><path d="M123.903 301.575h6.876V294.7h-6.876v6.875"/><path d="M117.307 301.575h6.875V294.7h-6.875v6.875m13.448 6.852h6.875v-6.875h-6.875v6.875"/><path d="M123.903 308.427h6.876v-6.875h-6.876v6.875"/><path d="M117.18 308.427h6.875v-6.875h-6.875v6.875m13.575 6.848h6.875v-6.873h-6.875v6.873"/><path d="M123.903 315.275h6.876v-6.873h-6.876v6.873"/><path d="M117.18 315.275h6.875v-6.873h-6.875v6.873m13.575 6.852h6.875v-6.873h-6.875v6.873m6.851-34.254h6.875v-6.877h-6.875v6.877"/><path d="M137.606 281.023h6.875v-6.877h-6.875v6.877m0 13.572h6.875v-6.873h-6.875v6.873m0 6.98h6.875V294.7h-6.875v6.875m-13.703 20.552h6.876v-6.873h-6.876v6.873"/><path d="M117.18 322.127h6.875v-6.873h-6.875v6.873"/><path d="M123.903 328.977h6.876v-6.875h-6.876v6.875"/><path d="M117.053 328.977h6.875v-6.875h-6.875v6.875m-6.598-20.55h6.875v-6.875h-6.875v6.875"/><path d="M110.455 315.275h6.875v-6.873h-6.875v6.873"/><path d="M110.455 322.127h6.875v-6.873h-6.875v6.873"/><path d="M110.455 328.977h6.875v-6.875h-6.875v6.875"/><path d="M117.053 335.828h6.875v-6.875h-6.875v6.875M48.6 192.153h-6.874v-6.875h6.875v6.875"/><path d="M55.325 198.875H48.45v-6.87h6.875v6.87"/><path d="M48.6 198.875h-6.874v-6.87h6.875v6.87m-.001 6.98h-6.874v-6.875h6.875v6.875"/><path d="M55.452 205.855h-6.875v-6.875h6.875v6.875"/><path d="M48.6 212.707h-6.874v-6.875h6.875v6.875"/><path d="M55.452 212.707h-6.875v-6.875h6.875v6.875"/><path d="M62.303 212.707h-6.875v-6.875h6.875v6.875M48.6 219.559h-6.874v-6.877h6.875v6.877"/><path d="M55.452 219.559h-6.875v-6.877h6.875v6.877"/><path d="M62.303 219.559h-6.875v-6.877h6.875v6.877M48.6 226.408h-6.874v-6.875h6.875v6.875m-6.851-34.255h-6.875v-6.875h6.875v6.875"/><path d="M41.75 185.302h-6.875v-6.875h6.875v6.875m0 13.573h-6.875v-6.87h6.875v6.87m0 6.98h-6.875v-6.875h6.875v6.875"/><path d="M41.75 212.707h-6.875v-6.875h6.875v6.875"/><path d="M41.75 219.559h-6.875v-6.877h6.875v6.877m13.702 6.849h-6.875v-6.875h6.875v6.875"/><path d="M62.303 226.408h-6.875v-6.875h6.875v6.875M48.6 233.26h-6.874v-6.875h6.875v6.875"/><path d="M55.452 233.26h-6.875v-6.875h6.875v6.875"/><path d="M62.303 233.26h-6.875v-6.875h6.875v6.875"/><path d="M62.303 240.112h-6.875v-6.877h6.875v6.877"/><path d="M55.452 240.112h-6.875v-6.877h6.875v6.877"/><path d="M62.303 246.962h-6.875v-6.875h6.875v6.875m6.869-27.403h-6.875v-6.877h6.875v6.877"/><path d="M69.172 226.408h-6.875v-6.875h6.875v6.875"/><path d="M69.172 233.26h-6.875v-6.875h6.875v6.875"/><path d="M69.172 240.112h-6.875v-6.877h6.875v6.877"/><path d="M69.172 246.962h-6.875v-6.875h6.875v6.875m54.731-41.175h6.876v-6.875h-6.876v6.875"/><path d="M117.307 205.787h6.875v-6.875h-6.875v6.875"/><path d="M117.18 212.512h6.875v-6.877h-6.875v6.877"/><path d="M123.903 212.512h6.876v-6.877h-6.876v6.877m-20.361 0h6.874v-6.877h-6.874v6.877"/><path d="M110.265 212.512h6.875v-6.877h-6.875v6.877m13.638 6.976h6.876v-6.875h-6.876v6.875"/><path d="M117.053 219.488h6.875v-6.875h-6.875v6.875"/><path d="M110.265 219.488h6.875v-6.875h-6.875v6.875"/><path d="M103.415 219.488h6.873v-6.875h-6.872v6.875"/><path d="M96.563 219.488h6.875v-6.875h-6.875v6.875m20.49 6.852h6.875v-6.875h-6.875v6.875"/><path d="M110.2 226.34h6.876v-6.875h-6.875v6.875"/><path d="M103.35 226.34h6.875v-6.875h-6.875v6.875"/><path d="M96.5 226.34h6.875v-6.875H96.5v6.875"/><path d="M89.775 226.34h6.875v-6.875h-6.875v6.875m20.425 6.851h6.876v-6.876h-6.875v6.876m20.554-27.404h6.875v-6.875h-6.875v6.875"/><path d="M130.755 198.934h6.875v-6.874h-6.875v6.874m-27.422 34.257h6.875v-6.876h-6.874v6.876"/><path d="M96.595 233.191h6.875v-6.876h-6.875v6.876"/><path d="M89.727 233.191h6.875v-6.876h-6.875v6.876"/><path d="M96.595 240.042h6.875v-6.875h-6.875v6.875"/><path d="M96.595 246.828h6.875v-6.875h-6.875v6.875"/><path d="M89.727 240.042h6.875v-6.875h-6.875v6.875"/><path d="M89.727 246.828h6.875v-6.875h-6.875v6.875m13.606-6.786h6.875v-6.875h-6.874v6.875M41.815 253.75H34.94v-6.875h6.875v6.873"/><path d="M48.6 253.75h-6.874v-6.875h6.875v6.873"/><path d="M48.538 260.473h-6.875v-6.875h6.875v6.875"/><path d="M41.815 260.473H34.94v-6.875h6.875v6.875m0 6.977H34.94v-6.875h6.875v6.875"/><path d="M48.665 267.45h-6.874v-6.875h6.874v6.875m6.787-6.977h-6.875v-6.875h6.875v6.875m.126 6.977h-6.873v-6.875h6.873v6.875"/><path d="M41.815 274.302H34.94v-6.875h6.875v6.875"/><path d="M48.665 274.302h-6.874v-6.875h6.874v6.875"/><path d="M55.517 274.302h-6.875v-6.875h6.875v6.875m6.913-6.852h-6.875v-6.875h6.875v6.875"/><path d="M62.367 274.302h-6.874v-6.875h6.874v6.875m-20.552 6.851H34.94v-6.875h6.875v6.875"/><path d="M48.665 281.153h-6.874v-6.875h6.874v6.875"/><path d="M55.517 281.153h-6.875v-6.875h6.875v6.875M34.963 253.75h-6.875v-6.875h6.875v6.873"/><path d="M34.963 246.898h-6.875v-6.874h6.875v6.874m0 13.575h-6.875v-6.875h6.875v6.875m13.702 27.532h-6.874v-6.876h6.874v6.876"/><path d="M55.517 288.005h-6.875v-6.876h6.875v6.876"/><path d="M62.383 281.153h-6.875v-6.875h6.875v6.875"/><path d="M62.383 288.005h-6.875v-6.876h6.875v6.876"/><path d="M62.383 294.856h-6.875v-6.876h6.875v6.876m6.834-20.554h-6.874v-6.875h6.875v6.875"/><path d="M69.233 281.153h-6.875v-6.875h6.876v6.875"/><path d="M69.233 288.005h-6.875v-6.876h6.876v6.876"/><path d="M69.233 294.856h-6.875v-6.876h6.876v6.876"/><path d="M76.085 288.005H69.21v-6.876h6.875v6.876"/><path d="M76.085 294.856H69.21v-6.876h6.875v6.876m47.582-47.836h6.875v-6.875h-6.875v6.875"/><path d="M116.878 247.02h6.875v-6.875h-6.875v6.875"/><path d="M116.941 253.745h6.877v-6.877h-6.877v6.877"/><path d="M123.667 253.745h6.875v-6.877h-6.875v6.877m0 6.977h6.875v-6.875h-6.875v6.875"/><path d="M116.816 260.722h6.874v-6.875h-6.875v6.875m-6.788-6.977h6.875v-6.877h-6.875v6.877m-.127 6.977h6.875v-6.875H109.9v6.875"/><path d="M123.667 267.573h6.875v-6.875h-6.875v6.875"/><path d="M116.816 267.573h6.874v-6.875h-6.875v6.875"/><path d="M109.965 267.573h6.875v-6.875h-6.875v6.875m-6.915-6.851h6.874v-6.875h-6.874v6.875"/><path d="M103.113 267.573h6.875v-6.875h-6.875v6.875m20.554 6.852h6.875v-6.876h-6.875v6.876"/><path d="M116.816 274.425h6.874v-6.876h-6.875v6.876"/><path d="M109.965 274.425h6.875v-6.876h-6.875v6.876m20.552-27.405h6.875v-6.875h-6.875v6.875"/><path d="M130.517 240.168h6.875v-6.875h-6.875v6.875m0 13.577h6.875v-6.877h-6.875v6.877m-13.701 27.53h6.874V274.4h-6.875v6.875"/><path d="M109.965 281.275h6.875V274.4h-6.875v6.875"/><path d="M103.097 274.425h6.875v-6.876h-6.875v6.876"/><path d="M103.097 281.275h6.875V274.4h-6.875v6.875"/><path d="M103.097 288.125h6.875v-6.873h-6.875v6.873m-6.835-20.552h6.875v-6.875h-6.875v6.875"/><path d="M96.245 274.425h6.875v-6.876h-6.875v6.876"/><path d="M96.245 281.275h6.875V274.4h-6.875v6.875"/><path d="M96.245 288.125h6.875v-6.873h-6.875v6.873m-47.327 27.283h-6.874v-6.875h6.874v6.875"/><path d="M55.707 315.408h-6.875v-6.875h6.875v6.875"/><path d="M62.462 315.408h-6.875v-6.875h6.875v6.875"/><path d="M55.642 322.133h-6.873v-6.875h6.873v6.875"/><path d="M48.918 322.133h-6.874v-6.875h6.874v6.875m0 6.978h-6.874v-6.877h6.874v6.877"/><path d="M55.769 329.111h-6.874v-6.877h6.874v6.877m6.788-6.978h-6.874v-6.875h6.875v6.875"/><path d="M69.422 322.133h-6.875v-6.875h6.875v6.875m-6.738 6.978H55.81v-6.877h6.874v6.877m-6.915 6.851h-6.874v-6.875h6.874v6.875"/><path d="M62.62 335.962h-6.875v-6.875h6.875v6.875"/><path d="M69.422 329.111h-6.875v-6.877h6.875v6.877m6.945-6.978h-6.875v-6.875h6.875v6.875m0 6.978h-6.875v-6.877h6.875v6.877"/><path d="M69.422 335.962h-6.875v-6.875h6.875v6.875"/><path d="M62.62 342.813h-6.875v-6.875h6.875v6.875m-20.552-27.405h-6.875v-6.875h6.875v6.875"/><path d="M42.068 322.163h-6.875v-6.875h6.875v6.875m0-13.604h-6.875v-6.877h6.875v6.877m27.354 34.254h-6.875v-6.875h6.875v6.875"/><path d="M69.422 349.663h-6.875v-6.875h6.875v6.875m6.911-13.701h-6.875v-6.875h6.875v6.875"/><path d="M76.333 342.813h-6.875v-6.875h6.875v6.875m6.695-13.702h-6.875v-6.877h6.875v6.877"/><path d="M82.995 335.962H76.12v-6.875h6.875v6.875"/><path d="M82.995 342.813H76.12v-6.875h6.875v6.875"/><path d="M76.333 349.663h-6.875v-6.875h6.875v6.875"/><path d="M83.19 349.663h-6.875v-6.875h6.875v6.875m6.657-13.701H82.97v-6.875h6.876v6.875"/><path d="M89.847 342.813H82.97v-6.875h6.876v6.875"/><path d="M90.042 349.663h-6.875v-6.875h6.877v6.875"/><path d="M96.41 342.813h-6.874v-6.875h6.874v6.875"/><path d="M96.606 349.663h-6.875v-6.875h6.875v6.875m-13.559 20.299h-6.875v-6.874h6.875v6.874"/><path d="M76.323 369.962h-6.875v-6.874h6.875v6.874m0 6.979h-6.875v-6.875h6.875v6.875"/><path d="M69.472 376.941h-6.875v-6.875h6.875v6.875m13.701 0H76.3v-6.875h6.875v6.875m6.787-6.979h-6.875v-6.874h6.875v6.874"/><path d="M96.825 369.962H89.95v-6.874h6.875v6.874m-6.737 6.979h-6.872v-6.875h6.873v6.875m-6.916 6.852H76.3v-6.875h6.875v6.875"/><path d="M76.323 383.793h-6.875v-6.875h6.875v6.875m13.702 0H83.15v-6.875h6.875v6.875"/><path d="M96.825 376.941H89.95v-6.875h6.875v6.875m6.946 0h-6.875v-6.875h6.875v6.875"/><path d="M96.825 383.793H89.95v-6.875h6.875v6.875"/><path d="M90.025 390.644H83.15v-6.875h6.875v6.875m-7.042 0h-6.875v-6.875h6.876v6.875m-13.512-20.682h-6.875v-6.874h6.875v6.874m-7.01 0h-6.875v-6.874h6.875v6.874"/><path d="M96.825 390.644H89.95v-6.875h6.875v6.875"/><path d="M96.825 397.495H89.95v-6.875h6.875v6.875m6.913-13.702h-6.875v-6.875h6.875v6.875"/><path d="M103.738 390.644h-6.875v-6.875h6.875v6.875m6.696-13.703h-6.875v-6.875h6.875v6.875"/><path d="M110.4 383.793h-6.876v-6.875h6.875v6.875"/><path d="M110.4 390.644h-6.876v-6.875h6.875v6.875"/><path d="M103.738 397.495h-6.875v-6.875h6.875v6.875"/><path d="M110.595 397.495h-6.875v-6.875h6.875v6.875m6.655-13.702h-6.875v-6.875h6.874v6.875"/><path d="M117.25 390.644h-6.875v-6.875h6.874v6.875"/><path d="M117.447 397.495h-6.877v-6.875h6.877v6.875"/><path d="M123.816 390.644h-6.876v-6.875h6.875v6.875"/><path d="M124.01 397.495h-6.873v-6.875h6.873v6.875m-13.572 20.293h-6.877v-6.875h6.877v6.875"/><path d="M103.587 417.788h-6.875v-6.875h6.875v6.875m13.701 0h-6.875v-6.875h6.875v6.875m6.914 0h-6.875v-6.875h6.875v6.875"/><path d="M117.288 424.64h-6.875v-6.875h6.875v6.875"/><path d="M110.438 424.64h-6.877v-6.875h6.877v6.875m13.702 0h-6.875v-6.875h6.875v6.875m-27.405 0H89.86v-6.875h6.875v6.875"/><path d="M89.883 424.64h-6.875v-6.875h6.875v6.875m13.704 0h-6.875v-6.875h6.875v6.875m27.353-6.852h-6.875v-6.875h6.875v6.875"/><path d="M130.94 424.64h-6.875v-6.875h6.875v6.875"/><path d="M124.14 431.491h-6.875v-6.876h6.875v6.876m-7.043 0h-6.874v-6.876h6.874v6.876"/><path d="M130.94 431.491h-6.875v-6.876h6.875v6.876"/><path d="M130.94 438.342h-6.875v-6.875h6.875v6.875m6.91-13.702h-6.874v-6.875h6.875v6.875"/><path d="M137.85 431.491h-6.874v-6.876h6.875v6.876m-41.116 0H89.86v-6.876h6.875v6.876"/><path d="M103.587 431.491h-6.875v-6.876h6.875v6.876"/><path d="M110.257 431.491h-6.874v-6.876h6.875v6.876m34.255-6.851h-6.875v-6.875h6.875v6.875"/><path d="M144.513 431.491h-6.875v-6.876h6.875v6.876"/><path d="M137.85 438.342h-6.874v-6.875h6.875v6.875"/><path d="M144.708 438.342h-6.875v-6.875h6.875v6.875m-34.416 0h-6.876v-6.875h6.876v6.875"/><path d="M103.587 438.342h-6.875v-6.875h6.875v6.875m13.616 0h-6.875v-6.875h6.875v6.875"/><path d="M124.06 438.342h-6.875v-6.875h6.875v6.875m6.88 6.851h-6.875v-6.875h6.875v6.875m6.91 0h-6.874v-6.875h6.875v6.875"/><path d="M117.203 445.193h-6.875v-6.875h6.875v6.875"/><path d="M124.06 445.193h-6.875v-6.875h6.875v6.875m27.303-13.702h-6.875v-6.876h6.875v6.876"/><path d="M151.558 438.342h-6.875v-6.875h6.875v6.875"/><path d="M157.93 438.247h-6.875v-6.875h6.875v6.875m21.033-348.955h-6.875v-6.875h6.875v6.874"/><path d="M185.813 89.292h-6.874v-6.875h6.874v6.874m-13.75.001h-6.874v-6.875h6.874v6.874"/><path d="M165.213 89.292h-6.875v-6.875h6.875v6.874"/><path d="M158.362 89.292h-6.875v-6.875h6.875v6.874m13.701-6.851h-6.874v-6.874h6.874v6.874"/><path d="M165.213 82.44h-6.875v-6.874h6.875v6.874m-13.703 6.852h-6.875v-6.875h6.875v6.874"/><path d="M144.66 89.292h-6.877v-6.875h6.877v6.874m27.323 6.851h-6.874v-6.875h6.875v6.875m-6.897 0h-6.875v-6.875h6.875v6.875"/><path d="M158.233 96.142h-6.874v-6.875h6.875v6.875"/><path d="M151.383 96.142h-6.875v-6.875h6.875v6.875"/><path d="M144.533 96.142h-6.876v-6.875h6.875v6.875"/><path d="M137.682 96.142h-6.875v-6.875h6.875v6.875m27.515 6.786h-6.875v-6.873h6.875v6.873m-6.899 0h-6.875v-6.873h6.875v6.873"/><path d="M151.447 102.928h-6.875v-6.873h6.875v6.873"/><path d="M144.597 102.928h-6.875v-6.873h6.875v6.873"/><path d="M137.745 102.928h-6.875v-6.873h6.875v6.873"/><path d="M130.894 102.928h-6.875v-6.873h6.875v6.873m20.679 6.855H144.7v-6.878h6.873v6.876"/><path d="M144.722 109.783h-6.872v-6.878h6.873v6.876"/><path d="M137.872 109.783h-6.875v-6.878h6.875v6.876"/><path d="M131.021 109.783h-6.876v-6.878h6.876v6.876"/><path d="M124.17 109.783h-6.875v-6.878h6.875v6.876m34.063 20.744h-6.874v-6.875h6.875v6.874"/><path d="M151.383 130.525h-6.875v-6.875h6.875v6.874"/><path d="M144.533 130.525h-6.876v-6.875h6.875v6.874m13.701-6.851h-6.874V116.8h6.875v6.874"/><path d="M165.087 123.673h-6.875V116.8h6.875v6.873m-13.704 0h-6.875V116.8h6.875v6.873"/><path d="M144.533 123.673h-6.876V116.8h6.875v6.874"/><path d="M137.682 123.673h-6.875V116.8h6.875v6.873"/><path d="M137.682 130.525h-6.875v-6.875h6.875v6.874"/><path d="M130.83 130.525h-6.875v-6.875h6.875v6.874m27.325 6.851h-6.875v-6.874h6.875v6.874m-6.898 0h-6.875v-6.874h6.875v6.874"/><path d="M144.405 137.375h-6.875v-6.874h6.875v6.874"/><path d="M137.553 137.375h-6.873v-6.874h6.873v6.874"/><path d="M130.703 137.375h-6.875v-6.874h6.875v6.874"/><path d="M123.852 137.375h-6.875v-6.874h6.875v6.874m27.515 6.787h-6.874v-6.874h6.874v6.874m-6.897 0h-6.875v-6.874h6.875v6.874"/><path d="M137.617 144.162h-6.874v-6.874h6.875v6.874"/><path d="M130.767 144.162h-6.875v-6.874h6.875v6.874"/><path d="M123.917 144.162h-6.875v-6.874h6.874v6.874"/><path d="M117.066 144.162h-6.876v-6.874h6.875v6.874m7.01-13.637H117.2v-6.875h6.875v6.874"/><path d="M117.097 137.375h-6.875v-6.874h6.875v6.874"/><path d="M110.308 144.162h-6.875v-6.874h6.875v6.874m-6.874 0h-6.877v-6.874h6.875v6.874m34.313 6.851h-6.875v-6.873h6.875v6.873"/><path d="M130.894 151.013h-6.875v-6.873h6.875v6.873"/><path d="M124.042 151.013h-6.873v-6.873h6.873v6.873"/><path d="M117.191 151.013h-6.875v-6.873h6.875v6.873"/><path d="M110.34 151.013h-6.873v-6.873h6.873v6.873m34.193 20.427h-6.876v-6.874h6.875v6.874"/><path d="M137.682 171.44h-6.875v-6.874h6.875v6.874"/><path d="M130.83 171.44h-6.875v-6.874h6.875v6.874m13.703-6.852h-6.876v-6.872h6.875v6.873"/><path d="M151.383 164.588h-6.875v-6.872h6.875v6.873m-13.701-.001h-6.875v-6.872h6.875v6.873"/><path d="M130.83 164.588h-6.875v-6.872h6.875v6.873"/><path d="M123.979 171.44h-6.874v-6.874h6.874v6.874"/><path d="M117.128 171.44h-6.875v-6.874h6.875v6.874m27.325 6.852h-6.875v-6.876h6.875v6.876m-6.9 0h-6.873v-6.876h6.873v6.876"/><path d="M130.703 178.292h-6.875v-6.876h6.875v6.876"/><path d="M123.852 178.292h-6.875v-6.876h6.875v6.876"/><path d="M117 178.292h-6.875v-6.876h6.876v6.876"/><path d="M110.15 178.292h-6.873v-6.876h6.873v6.876m27.517 6.788h-6.875v-6.874h6.874v6.874m-6.899 0h-6.875v-6.874h6.875v6.874"/><path d="M123.917 185.08h-6.875v-6.874h6.874v6.874"/><path d="M117.066 185.08h-6.876v-6.874h6.875v6.874"/><path d="M110.213 185.08h-6.875v-6.874h6.875v6.874"/><path d="M103.363 185.08h-6.875v-6.874h6.875v6.874m7.009-13.64h-6.875v-6.874h6.875v6.874"/><path d="M103.394 178.292h-6.875v-6.876h6.875v6.876"/><path d="M96.606 185.08h-6.875v-6.874h6.875v6.874m27.436 6.925h-6.873v-6.878h6.873v6.878"/><path d="M117.191 192.005h-6.875v-6.878h6.875v6.878"/><path d="M110.34 192.005h-6.873v-6.878h6.873v6.878"/><path d="M103.49 192.005h-6.875v-6.878h6.875v6.878"/><path d="M96.638 192.005h-6.875v-6.878h6.875v6.878m6.852 6.895h-6.875v-6.875h6.875v6.875"/><path d="M96.638 198.9h-6.875v-6.875h6.875v6.875m-13.701 20.595H76.06v-6.875h6.876v6.875"/><path d="M82.937 212.635H76.06v-6.875h6.876v6.875"/><path d="M82.937 205.917H76.06v-6.876h6.876v6.875M82.937 199.04H76.06v-6.874h6.876v6.874m.001-6.873H76.06v-6.875h6.876v6.875m.001-6.875H76.06v-6.876h6.876v6.876"/><path d="M82.937 178.417H76.06v-6.876h6.876v6.875m6.826-6.928h-6.875v-6.875h6.875v6.875"/><path d="M89.762 164.717h-6.875v-6.875h6.875v6.876m6.921-6.771h-6.875v-6.875h6.875v6.875"/><path d="M96.683 151.213h-6.875v-6.875h6.875v6.875m6.807-13.821h-6.875v-6.876h6.875v6.876"/><path d="M103.49 130.658h-6.875v-6.876h6.875v6.876m6.805-6.965h-6.875v-6.875h6.875v6.875m0-6.891h-6.875v-6.874h6.875v6.874m7.083-7.029h-6.875v-6.875h6.875v6.875m-34.441 116.54H76.06v-6.875h6.876v6.875"/><path d="M82.937 233.132H76.06v-6.877h6.876v6.877"/><path d="M82.937 239.953H76.06v-6.875h6.876v6.875"/><path d="M82.937 246.771H76.06v-6.876h6.876v6.876"/><path d="M82.937 253.588H76.06v-6.875h6.876v6.875"/><path d="M82.937 260.412H76.06v-6.877h6.876v6.877"/><path d="M82.937 267.229H76.06v-6.875h6.876v6.875m6.755 7.042h-6.875v-6.877h6.875v6.877"/><path d="M89.691 281.121h-6.875v-6.875h6.875v6.875"/><path d="M89.691 287.973h-6.875v-6.875h6.875v6.875"/><path d="M89.691 294.825h-6.875v-6.877h6.875v6.877"/><path d="M89.691 301.627h-6.875v-6.873h6.875v6.873m6.929 6.901h-6.875v-6.875h6.875v6.875"/><path d="M96.62 315.38h-6.875v-6.875h6.875v6.875"/><path d="M96.62 322.231h-6.875v-6.875h6.875v6.875"/><path d="M103.423 329.084H96.55v-6.877h6.875v6.875"/><path d="M103.423 335.934H96.55v-6.875h6.875v6.875m6.913 6.849h-6.875v-6.875h6.875v6.877m0 6.899h-6.875v-6.875h6.875v6.873"/><path d="M117.19 356.486h-6.875v-6.875h6.875v6.875m0 6.897h-6.875v-6.871h6.875v6.873m6.898 6.849h-6.875v-6.873h6.875v6.873"/><path d="M124.088 377.087h-6.875v-6.874h6.875v6.874"/><path d="M130.938 383.842h-6.872v-6.873h6.874v6.873"/><path d="M137.695 390.6h-6.875v-6.875h6.875v6.875m0 6.947h-6.875v-6.875h6.875v6.875"/><path d="M144.547 397.547h-6.875v-6.875h6.875v6.875"/><path d="M144.547 404.398h-6.875v-6.875h6.875v6.875"/><path d="M151.398 404.398h-6.875v-6.875h6.875v6.875"/><path d="M151.398 411.25h-6.875v-6.877h6.875v6.875"/><path d="M158.249 411.25h-6.874v-6.877h6.874v6.875m.094 6.945h-6.876v-6.873h6.875v6.873"/><path d="M165.195 418.193h-6.875v-6.873h6.875v6.873"/><path d="M165.1 424.95h-6.875v-6.875h6.875v6.875"/><path d="M171.95 424.95h-6.874v-6.875h6.874v6.875m0 6.875h-6.874v-6.874h6.874v6.874"/><path d="M178.8 431.825h-6.873v-6.874h6.875v6.874"/><path d="M178.896 438.675h-6.875v-6.873h6.875v6.873"/><path d="M185.747 438.675h-6.875v-6.873h6.875v6.873"/><path d="M185.684 445.4h-6.874v-6.875h6.875v6.875"/><path d="M192.535 445.4h-6.875v-6.875h6.875v6.875m.065 6.975h-6.877v-6.87h6.875v6.87"/><path d="M199.45 452.375h-6.875v-6.87h6.875v6.87m-48.067-397.34h-6.875v-6.874h6.875v6.874"/><path d="M144.533 55.035h-6.876v-6.874h6.875v6.874m20.618 0h-6.875v-6.874h6.875v6.874"/><path d="M158.283 55.035h-6.876v-6.874h6.875v6.874m-6.899 6.805h-6.875v-6.875h6.875v6.875"/><path d="M144.533 61.84h-6.876v-6.875h6.875v6.875"/><path d="M137.682 61.84h-6.875v-6.875h6.875v6.875m27.468 0h-6.875v-6.875h6.875v6.875"/><path d="M158.283 61.84h-6.876v-6.875h6.875v6.875m-6.899 6.898h-6.875v-6.873h6.875v6.873"/><path d="M144.533 68.738h-6.876v-6.873h6.875v6.873"/><path d="M137.682 68.738h-6.875v-6.873h6.875v6.873m13.701 6.849h-6.875v-6.872h6.875v6.872"/><path d="M144.533 75.587h-6.876v-6.872h6.875v6.872"/><path d="M137.682 75.587h-6.875v-6.872h6.875v6.872m20.601-6.849h-6.876v-6.873h6.875v6.873"/></g><g><path d="m352.479 265.734-6.284 31.467c-.286.921-.904 1.381-1.856 1.381h-5.284c-1.016 0-1.635-.476-1.857-1.428l-4.76-24.137c-.318-1.649-.54-2.887-.667-3.713h-1l-.714 3.713-4.713 24.137c-.064.412-.278.754-.643 1.023-.365.27-.77.404-1.214.404h-5.332c-.984 0-1.587-.46-1.809-1.381l-6.284-31.467h5.046l4.713 25.04c.095.54.286 1.937.571 4.189h1.095c.158-1.364.396-2.761.714-4.189l4.713-23.469c.222-1.048.825-1.571 1.809-1.571h5.094c.444 0 .833.151 1.167.452.333.302.547.675.643 1.119l4.666 23.517c.253 1.27.491 2.65.714 4.142h1.095c.063-.444.159-1.126.286-2.047.126-.92.238-1.603.333-2.047l4.713-25.136h5.045zM362.666 298.582h-4.76v-32.848h4.76v32.848zM396.37 265.734v30.991c0 1.237-.587 1.856-1.761 1.856h-4.522c-.952 0-1.635-.491-2.047-1.476l-10.235-22.375c-1.143-2.476-1.793-3.998-1.952-4.569h-.667c.158 1.27.238 2.793.238 4.569v23.851h-4.76V267.59c0-1.237.603-1.856 1.809-1.856h4.38c.92 0 1.619.492 2.095 1.476l9.949 21.804c.126.285.349.754.667 1.404a93.631 93.631 0 0 1 1.619 3.499h.714a61.887 61.887 0 0 1-.238-5.094v-23.089h4.711zM430.074 265.734v30.991c0 1.237-.588 1.856-1.762 1.856h-4.521c-.953 0-1.635-.491-2.047-1.476l-10.236-22.375c-1.143-2.476-1.793-3.998-1.951-4.569h-.666c.158 1.27.238 2.793.238 4.569v23.851h-4.762V267.59c0-1.237.604-1.856 1.809-1.856h4.381c.92 0 1.617.492 2.094 1.476l9.949 21.804c.127.285.35.754.668 1.404.316.65.609 1.27.881 1.856.268.588.514 1.135.736 1.643h.715a61.447 61.447 0 0 1-.238-5.094v-23.089h4.712zM458.257 294.631l.238 3.666c-2.889.254-7.586.38-14.092.38-2.031 0-3.634-.53-4.808-1.595-1.175-1.063-1.778-2.499-1.81-4.308v-21.232c.031-1.809.635-3.244 1.81-4.308 1.174-1.063 2.776-1.595 4.808-1.595 6.506 0 11.203.127 14.092.381l-.238 3.713h-13.044c-.952 0-1.627.23-2.023.69-.397.46-.595 1.246-.595 2.356v6.569h13.853v3.855h-13.853v8.379c0 1.111.197 1.896.595 2.356.396.461 1.071.69 2.023.69h13.044zM488.343 298.582h-5.094l-2.809-10.235c-.698-2.189-2.079-3.284-4.142-3.284l-6.76-.048v13.567h-4.713v-32.848c2.697-.285 6.521-.429 11.473-.429 3.967 0 6.768.684 8.402 2.047 1.634 1.365 2.452 3.856 2.452 7.475 0 2.635-.469 4.617-1.405 5.95s-2.483 2.143-4.641 2.428v.238c2.125.636 3.506 2.222 4.142 4.761l3.095 10.378zm-18.804-17.614h6.665c2.348-.031 3.958-.452 4.831-1.261.873-.81 1.31-2.341 1.31-4.595 0-2.221-.437-3.729-1.31-4.522-.873-.793-2.483-1.189-4.831-1.189-3.237 0-5.459.016-6.665.047v11.52zM322.631 355.708h-4.76V322.86h4.76v32.848zM350.527 326.859H338.34c-1.111 0-1.897.23-2.356.69-.46.46-.69 1.246-.69 2.356v7.093h13.425v3.856h-13.425v14.853h-4.76v-26.802c0-1.936.595-3.443 1.785-4.522 1.19-1.078 2.8-1.618 4.832-1.618 6.284 0 10.822.143 13.615.428l-.239 3.666zM357.144 334.666h1.523c.634 0 1.079.119 1.333.357.253.238.381.675.381 1.31v2.57c0 .636-.127 1.071-.381 1.31-.254.237-.699.356-1.333.356h-1.523c-.603 0-1.032-.126-1.285-.381-.254-.254-.381-.682-.381-1.285v-2.57c0-.603.126-1.031.381-1.286.253-.253.682-.381 1.285-.381zm0 15.139h1.523c.634 0 1.079.119 1.333.357.253.238.381.675.381 1.309v2.523c0 .636-.127 1.079-.381 1.333-.254.255-.699.381-1.333.381h-1.523c-.635 0-1.071-.126-1.309-.381-.238-.254-.357-.697-.357-1.333v-2.523c0-.603.126-1.03.381-1.285.253-.253.682-.381 1.285-.381zM384.231 338.57v.19c2.38.223 4.07 1.056 5.07 2.499 1 1.444 1.5 3.531 1.5 6.26 0 3.302-.785 5.555-2.356 6.761-1.571 1.206-4.308 1.809-8.212 1.809-5.364 0-9.49-.127-12.377-.381V322.86c2.57-.254 6.22-.381 10.949-.381 4.125 0 6.99.595 8.593 1.785 1.602 1.19 2.404 3.451 2.404 6.784 0 2.38-.445 4.182-1.333 5.403-.89 1.223-2.302 1.929-4.238 2.119zm-11.711-1.714h6.665c2.285 0 3.863-.357 4.736-1.071.873-.714 1.309-2.102 1.309-4.165 0-2.031-.476-3.388-1.428-4.07s-2.698-1.023-5.237-1.023h-6.046v10.329zm0 15.139 6.998.047c2.507 0 4.213-.356 5.118-1.07.904-.715 1.356-2.135 1.356-4.261 0-2.381-.484-3.999-1.452-4.856-.969-.856-2.737-1.301-5.308-1.333h-6.712v11.473zM409.366 322.241c4.887 0 8.299 1.238 10.235 3.714 1.935 2.476 2.903 6.919 2.903 13.329 0 6.411-.969 10.854-2.903 13.329-1.937 2.476-5.349 3.714-10.235 3.714-4.856 0-8.253-1.238-10.188-3.714-1.936-2.475-2.904-6.918-2.904-13.329 0-6.41.968-10.854 2.904-13.329 1.935-2.476 5.332-3.714 10.188-3.714zm6.379 6.998c-1.175-1.84-3.301-2.761-6.379-2.761-3.079 0-5.197.921-6.355 2.761-1.159 1.841-1.737 5.189-1.737 10.045s.578 8.204 1.737 10.045c1.158 1.841 3.276 2.761 6.355 2.761 3.078 0 5.204-.92 6.379-2.761 1.174-1.841 1.762-5.189 1.762-10.045s-.588-8.204-1.762-10.045zM441.214 322.241c4.887 0 8.299 1.238 10.235 3.714 1.935 2.476 2.903 6.919 2.903 13.329 0 6.411-.969 10.854-2.903 13.329-1.937 2.476-5.349 3.714-10.235 3.714-4.856 0-8.252-1.238-10.188-3.714-1.937-2.475-2.904-6.918-2.904-13.329 0-6.41.968-10.854 2.904-13.329 1.936-2.476 5.331-3.714 10.188-3.714zm6.379 6.998c-1.175-1.84-3.301-2.761-6.379-2.761-3.079 0-5.197.921-6.355 2.761-1.159 1.841-1.737 5.189-1.737 10.045s.578 8.204 1.737 10.045c1.158 1.841 3.276 2.761 6.355 2.761 3.078 0 5.204-.92 6.379-2.761 1.174-1.841 1.762-5.189 1.762-10.045s-.588-8.204-1.762-10.045zM469.301 340.521h-3.714c.222 1.333.334 2.46.334 3.381v11.806h-4.761V322.86h4.761v10.093c0 1.364-.112 2.603-.334 3.713h3.714l9.663-13.806h5.189l-9.283 13.425c-.508.73-1.175 1.492-1.999 2.285v.143a13.993 13.993 0 0 1 2.285 2.476l9.616 14.52h-5.284l-10.187-15.188zM303.113 379.987h5.189c1.238 0 1.888.651 1.952 1.952l1.333 30.896h-4.761l-1.143-28.896h-.952l-6.665 23.374c-.286 1.079-.968 1.619-2.047 1.619h-4.142c-1.111 0-1.809-.54-2.095-1.619l-6.712-23.374h-.904l-1.095 28.896h-4.713l1.238-30.896c.063-1.301.714-1.952 1.952-1.952h5.284c.983 0 1.65.54 2 1.618l5.57 19.233c.317 1.143.682 2.618 1.095 4.427h.856a75.36 75.36 0 0 1 1.143-4.475l5.522-19.186c.349-1.077 1.048-1.617 2.095-1.617zM336.341 402.933H323.25l-3.047 9.902h-4.856l10.283-31.563c.254-.856.841-1.285 1.762-1.285h4.855c.952 0 1.523.429 1.714 1.285l10.331 31.563h-4.903l-3.048-9.902zm-1.237-4.142-3.856-12.473c-.095-.285-.23-.729-.405-1.332a39.98 39.98 0 0 0-.404-1.333h-1.286l-.762 2.665-3.856 12.473h10.569zM353.479 412.835h-4.76v-32.848h4.76v32.848zM387.183 379.987v30.991c0 1.237-.587 1.856-1.761 1.856H380.9c-.952 0-1.635-.491-2.047-1.476l-10.235-22.375c-1.143-2.476-1.793-3.998-1.952-4.569h-.667c.158 1.27.238 2.793.238 4.569v23.851h-4.76v-30.991c0-1.237.603-1.856 1.809-1.856h4.38c.92 0 1.619.492 2.095 1.476l9.949 21.804c.126.285.349.754.667 1.404a93.631 93.631 0 0 1 1.619 3.499h.714a61.887 61.887 0 0 1-.238-5.094v-23.089h4.711zM405.748 412.835v-32.848c2.697-.285 6.505-.429 11.425-.429 4.095 0 6.91.73 8.45 2.19 1.539 1.46 2.309 4.189 2.309 8.188 0 4.031-.737 6.776-2.214 8.236-1.476 1.46-4.134 2.189-7.974 2.189a62.19 62.19 0 0 1-7.235-.429v12.901h-4.761zm4.761-16.566h6.569c2.316-.031 3.903-.477 4.761-1.333.856-.857 1.285-2.523 1.285-4.999s-.429-4.142-1.285-4.998c-.857-.857-2.444-1.285-4.761-1.285-3.174 0-5.364.016-6.569.047v12.568zM457.446 412.835h-5.094l-2.809-10.235c-.698-2.189-2.079-3.284-4.142-3.284l-6.76-.048v13.567h-4.713v-32.848c2.697-.285 6.521-.429 11.473-.429 3.967 0 6.768.684 8.402 2.047 1.634 1.365 2.452 3.856 2.452 7.475 0 2.635-.469 4.617-1.405 5.95s-2.483 2.143-4.641 2.428v.238c2.125.636 3.506 2.222 4.142 4.761l3.095 10.378zm-18.803-17.614h6.665c2.348-.031 3.958-.452 4.831-1.261.873-.81 1.31-2.341 1.31-4.595 0-2.221-.437-3.729-1.31-4.522-.873-.793-2.483-1.189-4.831-1.189-3.237 0-5.459.016-6.665.047v11.52zM468.206 412.835h-4.761v-32.848h4.761v32.848zM497.007 408.788v4.047h-22.518v-4.047l16.995-24.754h-16.757v-4.047h21.945v4.047l-16.947 24.754h17.282zM523.427 408.884l.238 3.666c-2.889.254-7.586.38-14.092.38-2.031 0-3.634-.53-4.808-1.595-1.175-1.063-1.778-2.499-1.81-4.308v-21.232c.031-1.809.635-3.244 1.81-4.308 1.174-1.063 2.776-1.595 4.808-1.595 6.506 0 11.203.127 14.092.381l-.238 3.713h-13.044c-.952 0-1.627.23-2.023.69-.397.46-.595 1.246-.595 2.356v6.569h13.853v3.855h-13.853v8.379c0 1.111.197 1.896.595 2.356.396.461 1.071.69 2.023.69h13.044z"/></g><g><path d="M283.263 83.465v36.368c0 1.453-.689 2.179-2.067 2.179h-5.307c-1.117 0-1.918-.577-2.402-1.732l-12.011-26.256c-1.341-2.905-2.104-4.692-2.291-5.363h-.782c.186 1.49.279 3.278.279 5.363v27.988h-5.587V85.644c0-1.453.708-2.179 2.123-2.179h5.14c1.08 0 1.899.578 2.458 1.731l11.676 25.586c.148.335.409.885.782 1.648a110.236 110.236 0 0 1 1.899 4.106h.838c-.187-2.235-.279-4.227-.279-5.978V83.465h5.531zM316.335 117.375l.279 4.302c-3.39.298-8.902.447-16.536.447-2.384 0-4.265-.624-5.642-1.872-1.378-1.248-2.086-2.933-2.123-5.056V90.281c.037-2.123.745-3.808 2.123-5.056 1.377-1.248 3.258-1.872 5.642-1.872 7.634 0 13.146.149 16.536.447l-.279 4.357h-15.307c-1.117 0-1.909.271-2.374.81-.466.541-.698 1.462-.698 2.765v7.709h16.256v4.525h-16.256v9.833c0 1.304.232 2.226.698 2.765.465.541 1.257.81 2.374.81h15.307zM370.802 83.465l-7.374 36.926c-.335 1.081-1.062 1.62-2.179 1.62h-6.201c-1.192 0-1.918-.559-2.179-1.676l-5.586-28.324a127.857 127.857 0 0 1-.782-4.357h-1.173l-.838 4.357-5.531 28.324c-.075.484-.326.885-.754 1.201a2.348 2.348 0 0 1-1.425.475h-6.257c-1.155 0-1.863-.54-2.123-1.62l-7.375-36.926h5.922l5.531 29.385c.111.633.335 2.272.67 4.916h1.285a48.29 48.29 0 0 1 .838-4.916l5.531-27.542c.26-1.229.968-1.843 2.123-1.843h5.978c.521 0 .978.177 1.369.531.391.354.643.792.754 1.313l5.475 27.597c.298 1.49.577 3.11.838 4.86h1.285c.074-.521.186-1.322.335-2.402.148-1.08.279-1.88.391-2.402l5.531-29.496h5.921zM419.516 83.465h6.089c1.453 0 2.216.764 2.291 2.29l1.564 36.256h-5.587l-1.341-33.91h-1.117l-7.821 27.429c-.335 1.267-1.137 1.899-2.402 1.899h-4.859c-1.305 0-2.123-.633-2.459-1.899l-7.876-27.429h-1.062l-1.285 33.91h-5.531l1.453-36.256c.074-1.526.838-2.29 2.291-2.29h6.201c1.154 0 1.936.633 2.347 1.899l6.536 22.569c.372 1.34.8 3.072 1.285 5.195h1.005a88.22 88.22 0 0 1 1.341-5.251l6.48-22.513c.408-1.265 1.227-1.899 2.457-1.899zM461.749 117.375l.279 4.302c-3.389.298-8.901.447-16.535.447-2.384 0-4.266-.624-5.643-1.872-1.379-1.248-2.086-2.933-2.123-5.056V90.281c.037-2.123.744-3.808 2.123-5.056 1.377-1.248 3.259-1.872 5.643-1.872 7.634 0 13.146.149 16.535.447l-.279 4.357h-15.307c-1.117 0-1.909.271-2.374.81-.466.541-.698 1.462-.698 2.765v7.709h16.257v4.525H443.37v9.833c0 1.304.232 2.226.698 2.765.465.541 1.257.81 2.374.81h15.307zM469.458 122.012V83.465c4.879-.335 9.516-.503 13.91-.503 5.661 0 9.618 1.434 11.872 4.302 2.253 2.868 3.379 8.026 3.379 15.474 0 7.449-1.126 12.607-3.379 15.475-2.254 2.868-6.211 4.302-11.872 4.302-4.394 0-9.031-.168-13.91-.503zm5.587-34.134v29.608c2.383.112 5.157.167 8.323.167 3.501 0 5.931-1.08 7.291-3.24 1.358-2.16 2.039-6.052 2.039-11.676 0-5.623-.681-9.515-2.039-11.676-1.36-2.159-3.79-3.24-7.291-3.24-1.117 0-2.598.009-4.44.028-1.844.021-3.139.029-3.883.029zM512.194 122.012h-5.587V83.465h5.587v38.547zM542.025 110.392h-15.362l-3.575 11.62h-5.698l12.066-37.038c.298-1.006.986-1.508 2.067-1.508h5.698c1.117 0 1.787.502 2.011 1.508l12.123 37.038h-5.754l-3.576-11.62zm-1.452-4.86-4.525-14.637a44.467 44.467 0 0 1-.475-1.564 45.15 45.15 0 0 0-.475-1.564h-1.509l-.894 3.128-4.525 14.637h12.403zM259.326 150.503l-7.374 36.926c-.335 1.081-1.062 1.62-2.179 1.62h-6.201c-1.192 0-1.918-.559-2.179-1.676l-5.586-28.324a127.857 127.857 0 0 1-.782-4.357h-1.173l-.838 4.357-5.531 28.324c-.075.484-.326.885-.754 1.201a2.348 2.348 0 0 1-1.425.475h-6.257c-1.155 0-1.863-.54-2.123-1.62l-7.375-36.926h5.922l5.531 29.385c.111.633.335 2.272.67 4.916h1.285a48.29 48.29 0 0 1 .838-4.916l5.531-27.542c.26-1.229.968-1.843 2.123-1.843h5.978c.521 0 .978.177 1.369.531.391.354.643.792.754 1.313l5.475 27.597c.298 1.49.577 3.11.838 4.86h1.285c.074-.521.186-1.322.335-2.402.148-1.08.279-1.88.391-2.402l5.531-29.496h5.921zM293.291 189.049h-5.978l-3.296-12.011c-.819-2.57-2.439-3.855-4.86-3.855l-7.933-.056v15.921h-5.531v-38.546c3.166-.335 7.654-.503 13.463-.503 4.655 0 7.942.801 9.86 2.402 1.917 1.602 2.877 4.525 2.877 8.771 0 3.092-.55 5.419-1.648 6.983-1.099 1.564-2.915 2.514-5.447 2.849v.279c2.495.746 4.115 2.607 4.86 5.586l3.633 12.18zm-22.066-20.67h7.821c2.755-.037 4.646-.531 5.67-1.48 1.024-.95 1.537-2.746 1.537-5.391 0-2.606-.513-4.376-1.537-5.307s-2.915-1.397-5.67-1.397c-3.799 0-6.406.02-7.821.056v13.519zM305.917 189.049h-5.587v-38.546h5.587v38.546zM341.948 155.475h-12.234v33.575h-5.642v-33.575h-12.123v-4.972h29.999v4.972zM353.513 189.049h-5.587v-38.546h5.587v38.546zM393.064 150.503v36.368c0 1.453-.689 2.179-2.067 2.179h-5.307c-1.117 0-1.918-.577-2.402-1.732l-12.011-26.256c-1.341-2.905-2.104-4.692-2.291-5.363h-.782c.186 1.49.279 3.278.279 5.363v27.988h-5.587v-36.368c0-1.453.708-2.179 2.123-2.179h5.14c1.08 0 1.899.578 2.458 1.731l11.676 25.586c.148.335.409.885.782 1.648a110.236 110.236 0 0 1 1.899 4.106h.838c-.187-2.235-.279-4.227-.279-5.978v-27.094h5.531zM429.264 166.815v22.234h-4.133l-.559-3.911c-3.24 3.092-7.059 4.637-11.453 4.637-4.246 0-7.318-1.62-9.218-4.86-1.899-3.24-2.849-8.342-2.849-15.307 0-5.176.539-9.189 1.619-12.039s2.774-4.86 5.084-6.034c2.309-1.173 5.549-1.76 9.721-1.76 4.021 0 7.598.391 10.727 1.173l-.559 4.246a104.108 104.108 0 0 0-9.832-.447c-1.752 0-3.166.103-4.246.307a8.51 8.51 0 0 0-3.018 1.201c-.932.596-1.629 1.472-2.094 2.625-.467 1.155-.83 2.626-1.09 4.414-.262 1.788-.391 4.022-.391 6.704 0 5.55.566 9.423 1.703 11.62 1.137 2.198 3.137 3.296 6.006 3.296 2.719 0 5.754-1.136 9.105-3.408v-14.692h5.477zM449.988 189.049v-38.546c3.165-.335 7.635-.503 13.408-.503 4.804 0 8.108.857 9.915 2.57 1.807 1.713 2.71 4.916 2.71 9.608 0 4.73-.866 7.952-2.598 9.665-1.731 1.713-4.852 2.569-9.357 2.569-2.793 0-5.624-.167-8.491-.502v15.139h-5.587zm5.587-19.441h7.709c2.719-.037 4.581-.559 5.587-1.564 1.005-1.006 1.508-2.961 1.508-5.866s-.503-4.86-1.508-5.866c-1.006-1.005-2.868-1.508-5.587-1.508-3.725 0-6.294.02-7.709.056v14.748zM510.658 189.049h-5.978l-3.296-12.011c-.82-2.57-2.44-3.855-4.86-3.855l-7.933-.056v15.921h-5.531v-38.546c3.165-.335 7.653-.503 13.464-.503 4.655 0 7.941.801 9.859 2.402 1.918 1.602 2.878 4.525 2.878 8.771 0 3.092-.551 5.419-1.648 6.983-1.099 1.564-2.915 2.514-5.447 2.849v.279c2.495.746 4.115 2.607 4.86 5.586l3.632 12.18zm-22.066-20.67h7.82c2.756-.037 4.646-.531 5.671-1.48 1.023-.95 1.536-2.746 1.536-5.391 0-2.606-.513-4.376-1.536-5.307-1.025-.931-2.915-1.397-5.671-1.397-3.799 0-6.406.02-7.82.056v13.519zM523.283 189.049h-5.587v-38.546h5.587v38.546zM557.08 184.301v4.749h-26.424v-4.749l19.943-29.049h-19.664v-4.749h25.754v4.749L536.8 184.301h20.28zM588.084 184.413l.279 4.302c-3.389.298-8.901.447-16.535.447-2.384 0-4.266-.624-5.643-1.872-1.379-1.248-2.086-2.933-2.123-5.056v-24.916c.037-2.123.744-3.808 2.123-5.056 1.377-1.248 3.259-1.872 5.643-1.872 7.634 0 13.146.149 16.535.447l-.279 4.357h-15.307c-1.117 0-1.909.271-2.374.81-.466.541-.698 1.462-.698 2.765v7.709h16.257v4.525h-16.257v9.833c0 1.304.232 2.226.698 2.765.465.541 1.257.81 2.374.81h15.307z"/></g></svg>