<svg aria-hidden="true" style="position: absolute; width: 0; height: 0; overflow: hidden;" version="1.1" xmlns="http://www.w3.org/2000/svg" xmlns:xlink="http://www.w3.org/1999/xlink">
<defs>
<symbol id="omnipedia-globe" viewBox="0 0 32 32">
<path d="M3.704 10.703c-0.034 0.095-0.081 0.147-0.144 0.158-0.438 0.008-0.821-0-1.137-0.028-0.232-0.020-0.421-0.049-0.569-0.087-0.018-0.022-0.028-0.049 0.012-0.167 0.441-1.191 1.021-2.321 1.725-3.367 0.064-0.090 0.088-0.105 0.118-0.125 0.128 0.029 0.279 0.053 0.464 0.069 0.253 0.022 0.559 0.029 0.91 0.022 0.008 0.003 0.018 0.007 0.025 0.010 0.012 0.036 0.016 0.050-0.020 0.125-0.575 1.054-1.041 2.193-1.385 3.39z"></path>
<path d="M3.009 15.429c-0.008 0.104-0.046 0.161-0.116 0.172-0.501 0.010-0.938-0-1.299-0.031-0.264-0.023-0.48-0.056-0.65-0.099-0.026-0.025-0.046-0.054-0.043-0.183 0.064-1.299 0.288-2.572 0.657-3.791 0.035-0.106 0.057-0.123 0.084-0.146 0.162 0.038 0.356 0.068 0.593 0.088 0.324 0.028 0.716 0.037 1.165 0.028 0.049 0.016 0.085 0.037 0.065 0.157-0.282 1.225-0.438 2.502-0.456 3.804z"></path>
<path d="M7.115 15.090c-0.005 0.105-0.055 0.166-0.156 0.189-1.266 0.151-2.406 0.253-3.368 0.299-0.078-0.007-0.117-0.059-0.124-0.164 0.008-1.302 0.15-2.578 0.413-3.803 0.028-0.098 0.076-0.151 0.146-0.164 0.863-0.041 1.886-0.133 3.021-0.268 0.090-0.001 0.133 0.045 0.133 0.14-0.112 1.211-0.137 2.477-0.065 3.772z"></path>
<path d="M18.141 13.148c0.013 0.103-0.040 0.171-0.161 0.208-1.55 0.343-3.111 0.658-4.629 0.936-0.123 0.012-0.196-0.031-0.224-0.13-0.203-1.275-0.373-2.511-0.508-3.683 0-0.095 0.053-0.156 0.16-0.185 1.362-0.25 2.762-0.532 4.152-0.84 0.114-0.015 0.187 0.019 0.226 0.107 0.342 1.131 0.673 2.334 0.985 3.587z"></path>
<path d="M3.617 20.383c0.026 0.136-0.026 0.154-0.072 0.169-0.514 0.010-0.962-0-1.334-0.032-0.272-0.023-0.493-0.058-0.667-0.102-0.032-0.025-0.060-0.053-0.099-0.181-0.096-0.349-0.18-0.705-0.253-1.066-0.194-0.967-0.295-1.933-0.309-2.888 0.001-0.093 0.009-0.108 0.030-0.149 0.191 0.035 0.409 0.069 0.676 0.092 0.365 0.031 0.806 0.041 1.312 0.032 0.070 0.009 0.11 0.064 0.121 0.169 0.039 0.957 0.153 1.923 0.347 2.89 0.073 0.361 0.155 0.717 0.248 1.066z"></path>
<path d="M7.848 20.033c0.014 0.104-0.028 0.165-0.129 0.188-1.299 0.155-2.47 0.26-3.458 0.307-0.081-0.006-0.138-0.059-0.172-0.161-0.091-0.349-0.174-0.705-0.246-1.066-0.194-0.967-0.311-1.934-0.356-2.89 0.003-0.106 0.041-0.163 0.118-0.177 0.971-0.046 2.123-0.15 3.401-0.302 0.103-0.002 0.163 0.047 0.182 0.15 0.088 0.953 0.228 1.917 0.422 2.884 0.073 0.361 0.152 0.717 0.237 1.067z"></path>
<path d="M13.264 19.217c0.010 0.105-0.043 0.171-0.163 0.203-1.533 0.267-3.008 0.494-4.369 0.674-0.11 0.004-0.181-0.043-0.217-0.144-0.084-0.35-0.163-0.706-0.235-1.067-0.194-0.967-0.338-1.931-0.434-2.883 0-0.105 0.051-0.168 0.156-0.193 1.338-0.177 2.789-0.4 4.297-0.663 0.121-0.011 0.194 0.033 0.223 0.134 0.151 0.943 0.324 1.903 0.518 2.87 0.073 0.361 0.147 0.718 0.223 1.069z"></path>
<path d="M19.207 18.033c0.007 0.106-0.051 0.176-0.176 0.215-1.591 0.352-3.193 0.675-4.752 0.961-0.126 0.012-0.204-0.030-0.239-0.131-0.075-0.351-0.149-0.708-0.221-1.069-0.194-0.967-0.372-1.926-0.532-2.867-0.005-0.107 0.049-0.172 0.171-0.205 1.533-0.281 3.109-0.599 4.674-0.945 0.129-0.018 0.206 0.021 0.244 0.121 0.22 0.929 0.429 1.882 0.623 2.849 0.073 0.361 0.142 0.719 0.208 1.072z"></path>
<path d="M5.461 24.781c0.053 0.102 0.021 0.122-0.026 0.137-0.475 0.009-0.889-0-1.232-0.030-0.251-0.022-0.456-0.053-0.616-0.094-0.029-0.017-0.062-0.037-0.139-0.149-0.699-1.051-1.275-2.205-1.704-3.447-0.028-0.087-0.025-0.102-0.019-0.14 0.189 0.037 0.41 0.071 0.68 0.094 0.37 0.032 0.816 0.042 1.328 0.032 0.074 0.009 0.129 0.061 0.168 0.159 0.404 1.24 0.931 2.391 1.561 3.437z"></path>
<path d="M9.384 24.457c0.028 0.080-0.006 0.137-0.092 0.155-1.2 0.143-2.282 0.24-3.195 0.284-0.077-0.005-0.142-0.047-0.198-0.13-0.615-1.047-1.132-2.198-1.53-3.438-0.029-0.122 0.015-0.147 0.076-0.167 0.983-0.047 2.149-0.152 3.442-0.306 0.106-0.002 0.176 0.044 0.215 0.142 0.354 1.244 0.787 2.403 1.282 3.46z"></path>
<path d="M14.406 23.7c0.014 0.088-0.032 0.144-0.142 0.172-1.416 0.246-2.779 0.456-4.036 0.622-0.103 0.005-0.177-0.033-0.224-0.116-0.474-1.060-0.892-2.221-1.238-3.465-0.017-0.1 0.026-0.161 0.131-0.185 1.355-0.179 2.823-0.405 4.349-0.671 0.123-0.011 0.201 0.031 0.236 0.128 0.291 1.253 0.602 2.43 0.925 3.514z"></path>
<path d="M19.917 22.602c-0.001 0.091-0.058 0.153-0.174 0.188-1.47 0.325-2.951 0.624-4.391 0.888-0.117 0.012-0.191-0.022-0.226-0.106-0.299-1.088-0.592-2.268-0.874-3.523-0.010-0.102 0.044-0.168 0.165-0.2 1.552-0.285 3.147-0.607 4.731-0.957 0.128-0.018 0.205 0.021 0.235 0.119 0.221 1.267 0.399 2.471 0.533 3.592z"></path>
<path d="M21.674 7.521c0.036 0.080 0.011 0.144-0.070 0.176-0.732 0.204-1.528 0.413-2.382 0.624-0.472 0.117-0.949 0.23-1.429 0.342-0.11 0.016-0.184-0.017-0.225-0.101-0.382-1.085-0.778-2.090-1.18-2.993-0.010-0.053-0.022-0.113 0.089-0.149 0.384-0.089 0.766-0.18 1.144-0.273 0.684-0.169 1.321-0.336 1.907-0.5 0.059-0.005 0.125-0.011 0.208 0.074 0.691 0.83 1.343 1.77 1.94 2.801z"></path>
<path d="M27.57 10.505c0.038 0.108 0.013 0.142-0.019 0.185-0.845 0.326-1.873 0.666-3.083 1.022-0.1 0.018-0.17-0.018-0.216-0.113-0.446-1.219-0.974-2.372-1.568-3.439-0.038-0.087-0.017-0.146 0.064-0.18 1.084-0.319 2.007-0.624 2.746-0.906 0.049-0.004 0.105-0.009 0.191 0.096 0.73 1.022 1.365 2.14 1.884 3.335z"></path>
<path d="M24.858 16.622c0.006 0.107-0.042 0.178-0.146 0.219-0.859 0.24-1.793 0.485-2.795 0.732-0.554 0.137-1.113 0.27-1.676 0.401-0.128 0.019-0.205-0.021-0.237-0.121-0.065-0.353-0.134-0.711-0.206-1.072-0.194-0.967-0.408-1.918-0.637-2.845-0.013-0.106 0.039-0.173 0.162-0.213 0.553-0.128 1.104-0.26 1.648-0.394 0.985-0.243 1.904-0.484 2.749-0.72 0.107-0.019 0.18 0.019 0.222 0.115 0.286 0.913 0.529 1.857 0.723 2.824 0.073 0.361 0.137 0.72 0.194 1.075z"></path>
<path d="M28.922 15.31c0.011 0.143-0.041 0.18-0.086 0.213-0.847 0.323-1.902 0.672-3.144 1.037-0.1 0.018-0.162-0.022-0.188-0.123-0.056-0.356-0.12-0.714-0.192-1.076-0.194-0.967-0.442-1.91-0.735-2.82-0.022-0.102 0.013-0.171 0.106-0.209 1.221-0.359 2.259-0.703 3.092-1.020 0.062-0.005 0.114 0.001 0.167 0.119 0.333 0.898 0.601 1.833 0.795 2.8 0.073 0.361 0.134 0.721 0.184 1.079z"></path>
<path d="M25.157 21.294c-0.014 0.095-0.068 0.159-0.166 0.196-0.794 0.221-1.656 0.448-2.582 0.677-0.512 0.126-1.029 0.25-1.549 0.37-0.117 0.018-0.184-0.015-0.204-0.102-0.109-1.127-0.269-2.334-0.481-3.604-0.004-0.104 0.054-0.173 0.178-0.212 0.56-0.13 1.117-0.263 1.668-0.399 0.997-0.246 1.927-0.49 2.782-0.729 0.107-0.019 0.17 0.020 0.193 0.119 0.155 1.284 0.206 2.519 0.161 3.685z"></path>
<path d="M28.926 20.077c-0.017 0.085-0.048 0.14-0.103 0.184-0.803 0.309-1.779 0.632-2.925 0.969-0.086 0.017-0.137-0.023-0.141-0.108 0.066-1.171 0.029-2.411-0.119-3.697-0.002-0.105 0.044-0.175 0.142-0.214 1.236-0.363 2.287-0.711 3.13-1.032 0.048-0.003 0.103-0.007 0.123 0.127 0.108 1.299 0.068 2.564-0.107 3.771z"></path>
<path d="M26.875 5.518c0.060 0.067 0.067 0.084 0.085 0.127-0.248 0.223-0.695 0.46-1.325 0.723-0.044 0.004-0.095 0.008-0.186-0.091-0.795-0.965-1.682-1.828-2.638-2.571-0.079-0.066-0.074-0.088-0.069-0.116 0.515-0.218 0.873-0.408 1.069-0.57 0.044 0.004 0.063 0.005 0.162 0.068 1.057 0.689 2.033 1.505 2.902 2.43z"></path>
<path d="M29.593 9.481c0.047 0.105 0.046 0.136 0.043 0.174-0.285 0.241-0.796 0.512-1.516 0.813-0.047 0.003-0.099 0.007-0.163-0.116-0.527-1.192-1.175-2.305-1.921-3.32-0.067-0.102-0.046-0.135-0.012-0.167 0.646-0.269 1.104-0.513 1.355-0.721 0.035 0.006 0.060 0.011 0.138 0.1 0.813 0.98 1.514 2.065 2.076 3.237z"></path>
<path d="M31.005 14.255c0.012 0.118 0.004 0.151-0.008 0.193-0.294 0.248-0.818 0.526-1.558 0.835-0.053 0.003-0.095-0.005-0.12-0.131-0.049-0.358-0.11-0.718-0.183-1.079-0.194-0.967-0.465-1.902-0.802-2.798-0.034-0.11-0.012-0.145 0.017-0.188 0.745-0.314 1.261-0.588 1.543-0.822 0.030 0.009 0.052 0.016 0.1 0.128 0.357 0.885 0.638 1.815 0.832 2.782 0.073 0.361 0.132 0.722 0.178 1.081z"></path>
<path d="M30.858 19.098c-0.023 0.11-0.038 0.141-0.058 0.18-0.273 0.229-0.757 0.486-1.44 0.771-0.010 0.001-0.023 0.002-0.033 0.002-0.021-0.020-0.041-0.038-0.032-0.122 0.187-1.212 0.236-2.481 0.133-3.782-0.003-0.141 0.043-0.177 0.083-0.209 0.736-0.307 1.258-0.584 1.543-0.821 0.022 0.011 0.037 0.020 0.048 0.14 0.083 1.311-0.003 2.6-0.244 3.841z"></path>
<path d="M8.268 28.189c0.056 0.054 0.052 0.072 0.048 0.092-0.008 0.003-0.018 0.006-0.026 0.008-0.391 0.007-0.732-0-1.014-0.025-0.206-0.018-0.375-0.044-0.507-0.077-0.034-0.016-0.068-0.034-0.166-0.11-0.966-0.765-1.841-1.654-2.601-2.651-0.041-0.056-0.044-0.064-0.061-0.102 0.167 0.025 0.368 0.056 0.615 0.077 0.337 0.029 0.743 0.038 1.21 0.029 0.070 0.007 0.134 0.049 0.194 0.128 0.68 0.992 1.457 1.874 2.308 2.632z"></path>
<path d="M11.511 27.921c0.038 0.072 0.030 0.091-0.047 0.116-0.988 0.118-1.878 0.198-2.629 0.234-0.051-0.006-0.11-0.014-0.205-0.094-0.826-0.758-1.582-1.642-2.244-2.634-0.061-0.106-0.013-0.122 0.030-0.135 0.895-0.043 1.957-0.138 3.135-0.279 0.098-0.003 0.171 0.034 0.223 0.113 0.526 1.004 1.111 1.903 1.738 2.679z"></path>
<path d="M15.663 27.295c0.006 0.048 0.012 0.103-0.107 0.133-1.165 0.203-2.287 0.376-3.321 0.512-0.087 0.005-0.156-0.023-0.211-0.084-0.592-0.78-1.146-1.683-1.648-2.69-0.028-0.077 0.006-0.133 0.094-0.153 1.234-0.163 2.571-0.369 3.961-0.611 0.113-0.011 0.186 0.023 0.223 0.104 0.329 1.034 0.668 1.97 1.008 2.789z"></path>
<path d="M20.218 26.387c-0.012 0.052-0.026 0.112-0.155 0.149-1.209 0.268-2.428 0.513-3.613 0.731-0.084 0.009-0.138-0.008-0.182-0.058-0.31-0.848-0.614-1.79-0.915-2.829-0.013-0.085 0.035-0.141 0.145-0.17 1.413-0.259 2.867-0.552 4.309-0.872 0.116-0.017 0.182 0.016 0.203 0.099 0.113 1.077 0.181 2.067 0.207 2.948z"></path>
<path d="M11.781 30.416c0.040 0.017 0.040 0.017 0.074 0.038-0.275 0.022-0.511 0.016-0.706-0-0.143-0.012-0.259-0.030-0.351-0.053-0.036-0.011-0.078-0.025-0.178-0.062-1.156-0.428-2.252-1.001-3.263-1.702-0.055-0.039-0.061-0.044-0.092-0.072 0.127 0.022 0.289 0.047 0.488 0.064 0.272 0.023 0.601 0.031 0.977 0.024 0.047 0.007 0.099 0.015 0.201 0.089 0.888 0.693 1.845 1.256 2.849 1.674z"></path>
<path d="M14.041 30.229c0.015 0.012 0.032 0.034 0.037 0.052-0.010 0.005-0.024 0.011-0.034 0.016-0.683 0.081-1.299 0.137-1.818 0.162-0.047-0.004-0.094-0.010-0.194-0.051-0.972-0.419-1.899-0.983-2.76-1.677-0.045-0.039-0.046-0.047-0.052-0.077 0.010-0.005 0.024-0.013 0.034-0.018 0.723-0.035 1.582-0.112 2.534-0.225 0.081-0.003 0.149 0.022 0.209 0.079 0.648 0.713 1.335 1.298 2.044 1.741z"></path>
<path d="M16.936 29.793c0.015 0.047 0.005 0.061-0.061 0.083-0.806 0.14-1.581 0.26-2.297 0.354-0.048 0-0.086 0-0.16-0.034-0.682-0.46-1.326-1.051-1.936-1.768-0.039-0.055-0.021-0.096 0.050-0.111 0.997-0.132 2.078-0.298 3.201-0.494 0.092-0.009 0.154 0.015 0.19 0.074 0.341 0.759 0.681 1.397 1.013 1.896z"></path>
<path d="M20.112 29.16c-0.014 0.034-0.030 0.073-0.12 0.099-0.836 0.185-1.679 0.355-2.498 0.505-0.074 0.009-0.1-0.010-0.133-0.033-0.287-0.522-0.578-1.169-0.875-1.935-0.015-0.063 0.021-0.105 0.11-0.128 1.142-0.21 2.316-0.446 3.482-0.704 0.093-0.014 0.143 0.010 0.153 0.075 0.004 0.826-0.036 1.54-0.118 2.121z"></path>
<path d="M15.74 31.27c0.039 0.001 0.078 0.002 0.116 0.003-0.040 0.001-0.077 0.001-0.112 0.001-0.351-0.011-0.818-0.032-1.168-0.056-1.305-0.153-1.383-0.163-2.5-0.425l-0.448-0.122c-0.039-0.011-0.078-0.023-0.117-0.035s-0.078-0.023-0.116-0.036c0.073 0.017 0.182 0.034 0.315 0.046 0.182 0.016 0.402 0.021 0.654 0.016 0.036 0.003 0.076 0.007 0.191 0.044 1.027 0.343 2.096 0.536 3.186 0.563z"></path>
<path d="M16.787 31.183c0.017 0.002 0.039 0.004 0.056 0.006-0.308 0.042-0.585 0.067-0.819 0.078-0.063 0.001-0.128-0-0.167-0.001-1.050-0.029-2.083-0.223-3.076-0.567-0.039-0.014-0.039-0.014-0.073-0.033 0.491-0.039 1.064-0.090 1.701-0.166 0.044 0 0.093 0 0.177 0.039 0.72 0.368 1.459 0.589 2.201 0.645z"></path>
<path d="M18.127 30.981c0.004 0.003 0.009 0.007 0.013 0.010-0.004 0.003-0.009 0.008-0.013 0.011-0.372 0.065-0.721 0.119-1.044 0.162-0.036 0.003-0.070 0.003-0.131-0.002-0.687-0.063-1.374-0.29-2.046-0.665-0.034-0.022-0.034-0.026-0.034-0.046 0.005-0.003 0.012-0.008 0.018-0.012 0.682-0.091 1.405-0.203 2.156-0.333 0.038-0.004 0.083-0.004 0.13 0.028 0.338 0.439 0.654 0.723 0.951 0.846z"></path>
<path d="M19.598 30.688c-0.021 0.018-0.032 0.026-0.074 0.039-0.377 0.083-0.757 0.16-1.126 0.228-0.042 0.004-0.054 0.002-0.078-0.008-0.234-0.134-0.489-0.429-0.76-0.867-0.016-0.036 0.005-0.061 0.064-0.076 0.764-0.14 1.549-0.299 2.328-0.471 0.061-0.010 0.090 0.005 0.088 0.045-0.104 0.514-0.252 0.89-0.442 1.11z"></path>
<path d="M24.55 25.306c-0.030 0.078-0.085 0.131-0.168 0.161-0.653 0.182-1.363 0.369-2.125 0.557-0.421 0.104-0.846 0.206-1.274 0.305-0.097 0.015-0.146-0.010-0.154-0.079 0.016-0.891-0.017-1.889-0.1-2.973 0.005-0.089 0.062-0.15 0.176-0.185 0.51-0.118 1.018-0.239 1.52-0.363 0.909-0.224 1.755-0.447 2.534-0.664 0.095-0.018 0.143 0.016 0.145 0.104-0.093 1.129-0.281 2.182-0.554 3.139z"></path>
<path d="M27.666 24.3c-0.027 0.051-0.063 0.109-0.129 0.156-0.662 0.254-1.465 0.52-2.408 0.798-0.068 0.014-0.099-0.019-0.083-0.089 0.308-0.966 0.524-2.028 0.641-3.163 0.018-0.093 0.071-0.156 0.162-0.191 1.126-0.331 2.083-0.648 2.851-0.941 0.040-0.003 0.085-0.006 0.068 0.116-0.241 1.176-0.613 2.289-1.102 3.315z"></path>
<path d="M23.131 28.406c-0.043 0.055-0.094 0.092-0.153 0.113-0.452 0.126-0.942 0.255-1.469 0.385-0.291 0.072-0.585 0.142-0.881 0.211-0.087 0.014-0.088-0.021-0.090-0.052 0.138-0.594 0.228-1.319 0.27-2.156 0.013-0.069 0.064-0.116 0.156-0.145 0.412-0.095 0.822-0.194 1.228-0.294 0.734-0.181 1.418-0.361 2.048-0.537 0.075-0.014 0.103 0.013 0.086 0.083-0.317 0.906-0.717 1.71-1.194 2.39z"></path>
<path d="M25.303 27.705c-0.039 0.038-0.086 0.081-0.143 0.115-0.459 0.176-1.014 0.36-1.666 0.552-0.008 0.001-0.019 0.002-0.028 0.003-0.004-0.006-0.009-0.015-0.013-0.021 0.006-0.014 0.015-0.033 0.023-0.046 0.522-0.693 0.964-1.509 1.317-2.425 0.035-0.076 0.089-0.126 0.164-0.155 0.91-0.267 1.683-0.524 2.303-0.76 0.008-0.001 0.018-0.001 0.026-0.002 0.009 0.016 0.018 0.031-0.017 0.1-0.547 0.98-1.207 1.868-1.967 2.64z"></path>
<path d="M20.996 30.339c-0.070 0.035-0.102 0.046-0.126 0.054-0.204 0.057-0.425 0.115-0.662 0.174-0.131 0.032-0.264 0.064-0.397 0.095-0.005 0.001-0.011 0.001-0.016 0.002-0.001-0.004-0.003-0.010-0.005-0.015 0.262-0.241 0.471-0.632 0.634-1.158 0.019-0.044 0.059-0.074 0.122-0.092 0.276-0.064 0.55-0.129 0.821-0.196 0.491-0.121 0.948-0.241 1.369-0.359 0.011-0.002 0.026-0.001 0.036 0.001 0.006 0.018 0.007 0.023-0.018 0.056-0.515 0.616-1.103 1.103-1.758 1.439z"></path>
<path d="M22.002 30.014c-0.012 0.006-0.029 0.013-0.041 0.018l-0.162 0.067c-0.192 0.071-0.426 0.148-0.697 0.228 0.015-0.012 0.037-0.025 0.054-0.034 0.707-0.351 1.346-0.852 1.908-1.482 0.050-0.052 0.099-0.087 0.152-0.106 0.608-0.179 1.125-0.35 1.54-0.508-0.002 0.028-0.002 0.028-0.051 0.073-0.81 0.711-1.715 1.3-2.703 1.744z"></path>
<path d="M29.263 23.491c-0.054 0.096-0.074 0.123-0.099 0.156-0.225 0.188-0.624 0.4-1.186 0.635-0.007 0-0.016 0.001-0.023 0.001-0.011-0.045-0.011-0.045 0.016-0.105 0.51-1.035 0.9-2.155 1.156-3.337 0.022-0.084 0.053-0.138 0.103-0.181 0.689-0.29 1.164-0.543 1.424-0.758 0.015 0.035 0.015 0.035-0.008 0.131-0.317 1.215-0.784 2.376-1.383 3.458z"></path>
<path d="M26.417 27.141c-0.091 0.085-0.121 0.111-0.138 0.126-0.151 0.125-0.427 0.272-0.815 0.434 0.004-0.031 0.004-0.031 0.052-0.080 0.788-0.783 1.474-1.68 2.043-2.67 0.051-0.082 0.097-0.133 0.145-0.159 0.542-0.226 0.926-0.43 1.136-0.604-0.008 0.032-0.008 0.032-0.060 0.113-0.665 1.040-1.459 1.995-2.364 2.841z"></path>
<path d="M24.915 28.372c-1.078 0.728-1.098 0.742-2.194 1.316-0.159 0.075-0.372 0.175-0.533 0.247 0.987-0.452 1.894-1.039 2.708-1.741 0.094-0.079 0.127-0.098 0.156-0.114 0.359-0.15 0.614-0.285 0.756-0.401-0.268 0.208-0.615 0.499-0.893 0.693z"></path>
</symbol>
<symbol id="play" viewBox="0 0 32 32">
<path d="M30.573 16.094l-28.801 15.819v-31.639l28.801 15.819z"></path>
</symbol>
<symbol id="kickstarter" viewBox="0 0 32 32">
<path d="M9.557 0c-4.267 0-7.729 3.439-7.729 7.677v16.645c0 4.237 3.463 7.677 7.729 7.677 2.641 0 4.955-1.304 6.357-3.305l1.059 1.053c3.013 2.993 7.924 2.993 10.937 0 1.397-1.384 2.261-3.302 2.261-5.422 0-0.004 0-0.008 0-0.011v0.001c0-0.003 0-0.006 0-0.009 0-2.12-0.865-4.039-2.261-5.422l-0.001-0.001-2.909-2.891 2.909-2.875c1.397-1.384 2.261-3.302 2.261-5.423 0-0.003 0-0.007 0-0.010v0.001c0-0.003 0-0.006 0-0.010 0-2.12-0.865-4.039-2.261-5.422l-0.001-0.001c-3.013-2.995-7.923-2.995-10.937 0l-1.059 1.052c-1.415-2.009-3.725-3.305-6.338-3.305-0.007 0-0.014 0-0.020 0h0.001z"></path>
</symbol>
<symbol id="comment" viewBox="0 0 32 32">
<path d="M0 22c0 1.473 1.193 2.667 2.667 2.667h4v4.113c0 0.74 0.6 1.333 1.333 1.333 0.374 0 0.713-0.153 0.953-0.4l5.047-5.047h14.667c1.473 0 2.667-1.193 2.667-2.667l-0-16.667c0-1.473-1.193-2.667-2.667-2.667l-26 0c-1.473 0-2.667 1.193-2.667 2.667v16.667zM8 14.333c0-0.92 0.747-1.667 1.667-1.667s1.667 0.747 1.667 1.667-0.747 1.667-1.667 1.667-1.667-0.747-1.667-1.667zM14 14.333c0-0.92 0.747-1.667 1.667-1.667s1.667 0.747 1.667 1.667-0.747 1.667-1.667 1.667-1.667-0.747-1.667-1.667zM20 14.333c0-0.92 0.747-1.667 1.667-1.667s1.667 0.747 1.667 1.667-0.747 1.667-1.667 1.667-1.667-0.747-1.667-1.667z"></path>
</symbol>
<symbol id="discord" viewBox="0 0 32 32">
<path d="M26.963 0c1.875 0 3.387 1.516 3.476 3.3v28.7l-3.569-3.031-1.96-1.784-2.139-1.864 0.893 2.94h-18.717c-1.869 0-3.387-1.42-3.387-3.301v-21.653c0-1.784 1.52-3.303 3.393-3.303h22zM18.805 7.577h-0.040l-0.269 0.267c2.764 0.8 4.101 2.049 4.101 2.049-1.781-0.891-3.387-1.336-4.992-1.516-1.16-0.18-2.32-0.085-3.3 0h-0.267c-0.627 0-1.96 0.267-3.747 0.98-0.623 0.271-0.98 0.448-0.98 0.448s1.336-1.336 4.28-2.049l-0.18-0.18c0 0-2.229-0.085-4.636 1.693 0 0-2.407 4.192-2.407 9.36 0 0 1.333 2.32 4.991 2.408 0 0 0.533-0.711 1.073-1.336-2.053-0.624-2.853-1.872-2.853-1.872s0.179 0.088 0.447 0.267h0.080c0.040 0 0.059 0.020 0.080 0.040v0.008c0.021 0.021 0.040 0.040 0.080 0.040 0.44 0.181 0.88 0.36 1.24 0.533 0.621 0.269 1.42 0.537 2.4 0.715 1.24 0.18 2.661 0.267 4.28 0 0.8-0.18 1.6-0.356 2.4-0.713 0.52-0.267 1.16-0.533 1.863-0.983 0 0-0.8 1.248-2.94 1.872 0.44 0.621 1.060 1.333 1.060 1.333 3.659-0.080 5.080-2.4 5.16-2.301 0-5.16-2.42-9.36-2.42-9.36-2.18-1.619-4.22-1.68-4.58-1.68zM19.029 13.461c0.937 0 1.693 0.8 1.693 1.78 0 0.987-0.76 1.787-1.693 1.787s-1.693-0.8-1.693-1.779c0.003-0.987 0.764-1.784 1.693-1.788zM12.972 13.461c0.933 0 1.688 0.8 1.688 1.78 0 0.987-0.76 1.787-1.693 1.787s-1.693-0.8-1.693-1.779c0-0.987 0.76-1.784 1.699-1.788z"></path>
</symbol>
<symbol id="twitter" viewBox="0 0 32 32">
<path d="M31.939 6.092c-1.18 0.519-2.44 0.872-3.767 1.033 1.352-0.815 2.392-2.099 2.884-3.631-1.268 0.74-2.673 1.279-4.169 1.579-1.195-1.279-2.897-2.079-4.788-2.079-3.623 0-6.56 2.937-6.56 6.556 0 0.52 0.060 1.020 0.169 1.499-5.453-0.257-10.287-2.876-13.521-6.835-0.569 0.963-0.888 2.081-0.888 3.3 0 2.28 1.16 4.284 2.917 5.461-1.076-0.035-2.088-0.331-2.971-0.821v0.081c0 3.18 2.257 5.832 5.261 6.436-0.551 0.148-1.132 0.228-1.728 0.228-0.419 0-0.82-0.040-1.221-0.115 0.841 2.604 3.26 4.503 6.139 4.556-2.24 1.759-5.079 2.807-8.136 2.807-0.52 0-1.039-0.031-1.56-0.089 2.919 1.859 6.357 2.945 10.076 2.945 12.072 0 18.665-9.995 18.665-18.648 0-0.279 0-0.56-0.020-0.84 1.281-0.919 2.4-2.080 3.28-3.397z"></path>
</symbol>
</defs>
</svg>
