<svg xmlns="http://www.w3.org/2000/svg" width="512" height="512"><path d="M59.261 171.244c-.536 1.527-1.289 2.353-2.302 2.526-7.015.134-13.128-.005-18.193-.441-3.704-.319-6.728-.785-9.096-1.388-.281-.357-.446-.781.192-2.668a254.78 254.78 0 0127.605-53.869c1.018-1.441 1.405-1.687 1.895-1.997 2.042.469 4.462.842 7.427 1.097 4.054.349 8.947.46 14.562.353l.4.161c.187.582.257.8-.324 1.993-9.196 16.864-16.656 35.081-22.166 54.233M48.146 246.871c-.134 1.668-.74 2.57-1.851 2.759-8.016.153-15.002-.006-20.791-.504-4.232-.364-7.688-.896-10.394-1.586-.416-.394-.731-.859-.693-2.93a252.494 252.494 0 0110.511-60.649c.565-1.689.909-1.972 1.344-2.33 2.593.604 5.692 1.083 9.487 1.409 5.191.446 11.457.589 18.646.452.783.251 1.356.596 1.039 2.514-4.506 19.598-7.01 40.025-7.298 60.865M113.844 241.436c-.072 1.674-.887 2.663-2.493 3.023-20.25 2.415-38.504 4.055-53.893 4.789-1.241-.11-1.872-.945-1.986-2.628.128-20.835 2.395-41.253 6.6-60.84.445-1.561 1.211-2.42 2.344-2.63 13.801-.659 30.171-2.129 48.332-4.295 1.432-.017 2.13.714 2.135 2.234-1.8 19.374-2.186 39.625-1.039 60.347M290.255 210.368c.201 1.646-.644 2.736-2.581 3.335a2094.11 2094.11 0 01-74.069 14.983c-1.963.191-3.137-.49-3.59-2.084-3.246-20.397-5.961-40.171-8.123-58.934.004-1.522.841-2.49 2.559-2.958a1880.277 1880.277 0 0066.426-13.438c1.817-.248 2.998.311 3.612 1.708 5.466 18.095 10.767 37.345 15.766 57.388M57.875 326.131c.422 2.181-.416 2.463-1.156 2.711-8.228.158-15.399-.006-21.341-.518-4.345-.373-7.892-.92-10.67-1.628-.518-.393-.963-.855-1.582-2.895a252.305 252.305 0 01-4.048-17.06 252.595 252.595 0 01-4.939-46.203c.024-1.485.146-1.73.473-2.384 3.055.565 6.543 1.104 10.816 1.472 5.844.502 12.897.663 20.99.509 1.127.146 1.762 1.028 1.942 2.698a295.422 295.422 0 009.515 63.298M125.56 320.531c.23 1.656-.444 2.638-2.061 3.002-20.787 2.479-39.524 4.162-55.321 4.916-1.299-.104-2.201-.947-2.755-2.576a306.555 306.555 0 01-9.629-63.294c.047-1.701.649-2.601 1.895-2.829 15.537-.742 33.965-2.397 54.41-4.836 1.646-.026 2.601.76 2.919 2.404a439.827 439.827 0 006.753 46.146 430.747 430.747 0 003.789 17.067M212.218 307.47c.158 1.678-.692 2.738-2.603 3.243-24.527 4.267-48.125 7.904-69.898 10.78-1.765.062-2.899-.693-3.466-2.308a466.994 466.994 0 01-3.763-17.07 476.166 476.166 0 01-6.943-46.121c.003-1.687.822-2.695 2.502-3.087 21.415-2.828 44.623-6.405 68.746-10.602 1.941-.168 3.107.535 3.564 2.15a1178.466 1178.466 0 008.288 45.914 1164.292 1164.292 0 003.573 17.101M307.309 288.523c.105 1.698-.814 2.823-2.813 3.439a2150.568 2150.568 0 01-76.032 15.381c-2.021.198-3.271-.486-3.822-2.095a1552.425 1552.425 0 01-12.048-62.98c-.085-1.705.785-2.746 2.738-3.277a2113.518 2113.518 0 0074.779-15.127c2.064-.283 3.302.331 3.896 1.934a1360.094 1360.094 0 0113.302 62.725M87.374 396.501c.854 1.64.342 1.956-.416 2.2-7.603.146-14.228-.006-19.718-.478-4.014-.345-7.292-.851-9.858-1.504-.461-.274-.985-.585-2.231-2.379-11.179-16.812-20.398-35.281-27.261-55.145-.441-1.399-.405-1.629-.308-2.244 3.025.586 6.557 1.131 10.881 1.502 5.916.509 13.055.672 21.246.516 1.185.137 2.066.968 2.693 2.541 6.457 19.837 14.897 38.254 24.972 54.991M150.139 391.309c.445 1.281-.094 2.188-1.48 2.488-19.206 2.291-36.518 3.846-51.113 4.542-1.239-.077-2.276-.757-3.172-2.077-9.835-16.747-18.106-35.169-24.474-55.008-.47-1.953.241-2.354 1.218-2.675 15.726-.751 34.379-2.427 55.073-4.895 1.696-.036 2.82.704 3.438 2.264 5.664 19.902 12.586 38.445 20.51 55.361M230.497 379.196c.228 1.403-.517 2.305-2.273 2.756-22.661 3.941-44.463 7.303-64.581 9.959-1.655.076-2.829-.529-3.59-1.851-7.585-16.959-14.267-35.531-19.807-55.448-.267-1.604.417-2.572 2.09-2.959 21.676-2.862 45.167-6.483 69.584-10.731 1.976-.176 3.211.496 3.775 2.055 4.653 20.053 9.63 38.888 14.802 56.219M318.676 361.628c-.019 1.461-.931 2.442-2.789 3a1988.644 1988.644 0 01-70.249 14.211c-1.873.198-3.058-.358-3.62-1.702-4.776-17.401-9.476-36.286-13.982-56.366-.16-1.632.706-2.68 2.648-3.203a2138.492 2138.492 0 0075.691-15.312c2.049-.285 3.281.338 3.766 1.903 3.54 20.276 6.384 39.536 8.535 57.469M346.785 120.334c.581 1.277.171 2.301-1.123 2.809-11.718 3.27-24.452 6.613-38.119 9.987a1623.188 1623.188 0 01-22.86 5.466c-1.767.259-2.945-.269-3.604-1.611-6.107-17.358-12.452-33.442-18.878-47.894-.162-.849-.346-1.811 1.417-2.386a1294.941 1294.941 0 0018.297-4.375c10.938-2.701 21.131-5.376 30.51-7.994.939-.079 2.005-.168 3.325 1.185 11.053 13.279 21.486 28.327 31.035 44.813M441.127 168.082c.614 1.725.211 2.273-.301 2.967-13.522 5.211-29.976 10.657-49.323 16.348-1.597.295-2.725-.296-3.449-1.808-7.134-19.503-15.589-37.954-25.084-55.026-.614-1.396-.279-2.339 1.022-2.881 17.351-5.104 32.106-9.988 43.943-14.498.792-.067 1.688-.143 3.052 1.54 11.682 16.351 21.847 34.237 30.14 53.358M397.721 265.957c.094 1.711-.672 2.854-2.34 3.497-13.745 3.836-28.684 7.757-44.715 11.715a1892.54 1892.54 0 01-26.816 6.412c-2.045.3-3.285-.336-3.792-1.943a1058.549 1058.549 0 00-13.498-62.682c-.205-1.689.617-2.771 2.586-3.4a1853.92 1853.92 0 0026.375-6.307c15.768-3.893 30.459-7.749 43.978-11.521 1.719-.306 2.879.299 3.546 1.847a444.499 444.499 0 0111.573 45.179 438.174 438.174 0 013.103 17.203M462.746 244.958c.168 2.285-.649 2.881-1.37 3.406-13.549 5.162-30.438 10.753-50.299 16.595-1.605.295-2.59-.348-3.011-1.965a406.19 406.19 0 00-3.077-17.213 412.447 412.447 0 00-11.757-45.126c-.355-1.638.201-2.733 1.703-3.35 19.533-5.745 36.145-11.244 49.47-16.321.996-.074 1.826.02 2.676 1.908a297.214 297.214 0 0115.665 62.066M402.516 340.701c-.216 1.521-1.085 2.544-2.657 3.13-12.7 3.544-26.501 7.167-41.313 10.824a1767.951 1767.951 0 01-24.776 5.925c-1.875.288-2.945-.245-3.271-1.629-1.746-18.024-4.305-37.35-7.696-57.658-.067-1.66.861-2.772 2.841-3.398a1889.197 1889.197 0 0026.695-6.384c15.96-3.94 30.831-7.844 44.515-11.663 1.708-.307 2.717.314 3.085 1.897 2.482 20.54 3.298 40.307 2.577 58.956M462.813 321.229c-.277 1.358-.77 2.238-1.646 2.942-12.854 4.944-28.458 10.11-46.808 15.507-1.37.264-2.19-.364-2.251-1.724 1.051-18.744.466-38.577-1.896-59.151-.029-1.68.712-2.802 2.266-3.43 19.771-5.814 36.585-11.381 50.073-16.52.77-.052 1.643-.11 1.968 2.035 1.724 20.786 1.083 41.023-1.706 60.341M430.007 88.285c.963 1.078 1.071 1.338 1.36 2.034-3.968 3.562-11.122 7.362-21.203 11.566-.711.061-1.517.13-2.973-1.463-12.714-15.442-26.906-29.251-42.214-41.129-1.26-1.063-1.189-1.411-1.1-1.852 8.241-3.485 13.967-6.527 17.098-9.124.707.062 1 .087 2.596 1.083a254.054 254.054 0 0146.436 38.885M473.488 151.696c.754 1.685.728 2.17.693 2.785-4.563 3.855-12.739 8.198-24.26 13.003-.744.054-1.588.115-2.608-1.863-8.429-19.066-18.794-36.874-30.73-53.124-1.066-1.636-.739-2.16-.2-2.674 10.332-4.309 17.664-8.204 21.672-11.529.559.102.961.176 2.211 1.604a251.13 251.13 0 0133.222 51.798M496.087 228.076c.199 1.886.058 2.418-.123 3.09-4.701 3.963-13.094 8.421-24.92 13.353-.845.047-1.522-.078-1.925-2.097a287.655 287.655 0 00-15.762-62.026c-.547-1.767-.187-2.318.27-3.015 11.919-5.03 20.173-9.415 24.686-13.158.48.151.827.26 1.603 2.044a251.045 251.045 0 0113.315 44.508 251.772 251.772 0 012.856 17.301M493.73 305.574c-.372 1.764-.616 2.258-.924 2.882-4.36 3.661-12.114 7.78-23.041 12.337l-.525.034c-.334-.313-.649-.608-.517-1.95 2.99-19.397 3.775-39.691 2.126-60.506-.048-2.255.683-2.835 1.326-3.347 11.773-4.91 20.128-9.348 24.695-13.137.347.183.596.314.763 2.234 1.335 20.983-.056 41.6-3.903 61.453M132.286 451.028c.893.864.833 1.157.769 1.466l-.412.134c-6.255.119-11.708-.005-16.226-.394-3.303-.284-6-.7-8.112-1.238-.548-.252-1.091-.541-2.657-1.754a238.033 238.033 0 01-41.61-42.42c-.649-.889-.706-1.019-.976-1.64 2.678.394 5.895.89 9.834 1.229 5.389.464 11.892.612 19.353.47 1.12.108 2.137.776 3.109 2.041 10.881 15.866 23.307 29.987 36.928 42.106M184.172 446.735c.612 1.15.485 1.463-.757 1.856-15.804 1.885-30.05 3.164-42.06 3.737-.822-.104-1.754-.221-3.283-1.499-13.222-12.133-25.305-26.267-35.91-42.142-.976-1.696-.203-1.944.478-2.164 14.325-.684 31.316-2.21 50.166-4.458 1.571-.048 2.735.543 3.56 1.808 8.415 16.071 17.769 30.447 27.806 42.862M250.601 436.723c.094.77.2 1.641-1.714 2.122-18.647 3.243-36.588 6.009-53.142 8.195-1.389.074-2.494-.362-3.378-1.336-9.472-12.486-18.34-26.924-26.366-43.042-.456-1.236.095-2.127 1.511-2.445 19.745-2.607 41.142-5.906 63.383-9.775 1.809-.173 2.978.37 3.576 1.66 5.26 16.545 10.681 31.514 16.13 44.621M323.495 422.199c-.196.837-.419 1.785-2.473 2.39a1636.854 1636.854 0 01-57.806 11.694c-1.342.149-2.214-.127-2.916-.924-4.967-13.563-9.823-28.633-14.632-45.259-.202-1.361.556-2.249 2.318-2.715a1949.224 1949.224 0 0068.946-13.947c1.855-.268 2.917.251 3.246 1.587 1.8 17.236 2.904 33.065 3.317 47.174M188.489 486.658c.637.278.637.278 1.19.616-4.402.347-8.173.261-11.297-.008-2.284-.196-4.148-.484-5.609-.856-.57-.178-1.247-.406-2.854-.997a234.631 234.631 0 01-52.207-27.227c-.886-.627-.977-.706-1.479-1.148 2.024.356 4.623.758 7.807 1.031 4.354.374 9.609.494 15.638.379.746.115 1.591.245 3.22 1.427 14.206 11.084 29.52 20.098 45.591 26.783M224.66 483.666c.238.191.508.537.592.832l-.541.249c-10.928 1.304-20.779 2.188-29.084 2.585-.755-.062-1.51-.165-3.104-.812-15.545-6.704-30.376-15.734-44.155-26.833-.714-.631-.737-.748-.832-1.237l.538-.289c11.575-.553 25.305-1.786 40.536-3.603 1.296-.053 2.39.359 3.342 1.258 10.368 11.402 21.356 20.774 32.708 27.85M270.969 476.686c.24.756.074.978-.984 1.322-12.895 2.243-25.3 4.155-36.747 5.667-.771.005-1.379.008-2.557-.545-10.915-7.353-21.219-16.812-30.98-28.289-.618-.884-.329-1.531.793-1.777 15.955-2.107 33.245-4.772 51.217-7.899 1.471-.149 2.468.238 3.047 1.186 5.453 12.141 10.901 22.348 16.211 30.335M321.785 466.562c-.227.551-.482 1.176-1.92 1.589a1130.398 1130.398 0 01-39.972 8.086c-1.188.14-1.605-.156-2.134-.531-4.596-8.348-9.249-18.696-13.998-30.965-.235-1.009.34-1.678 1.759-2.045a1577.063 1577.063 0 0055.712-11.27c1.49-.223 2.289.167 2.442 1.193.062 13.216-.569 24.635-1.889 33.943M251.843 500.313c.62.015 1.241.027 1.861.049-.648.014-1.23.019-1.787.015-5.608-.171-13.084-.509-18.683-.892-20.876-2.455-22.125-2.602-39.995-6.8l-7.173-1.954a199.464 199.464 0 01-3.738-1.121c1.174.277 2.912.546 5.041.729 2.911.251 6.425.331 10.457.254.568.055 1.213.117 3.048.705 16.437 5.486 33.543 8.578 50.969 9.015"/><path d="M268.592 498.927c.27.024.629.061.896.098-4.927.669-9.367 1.067-13.111 1.246a64.735 64.735 0 01-2.666-.022c-16.807-.458-33.323-3.569-49.213-9.075-.629-.231-.629-.231-1.166-.524 7.85-.618 17.03-1.443 27.216-2.658.698 0 1.489.001 2.827.617 11.523 5.893 23.347 9.421 35.217 10.318"/><path d="M290.035 495.694c.063.049.149.113.213.161a18.58 18.58 0 01-.214.181 405.187 405.187 0 01-16.704 2.586c-.583.041-1.112.049-2.093-.028-10.993-1.007-21.982-4.641-32.729-10.632-.544-.346-.545-.42-.55-.732l.285-.186c10.92-1.462 22.482-3.245 34.5-5.335.608-.067 1.331-.066 2.074.453 5.401 7.016 10.461 11.565 15.218 13.532M313.566 491.006c-.339.295-.517.416-1.186.618a507.874 507.874 0 01-18.019 3.645c-.668.069-.864.024-1.253-.124-3.737-2.15-7.828-6.871-12.158-13.875-.25-.579.086-.976 1.027-1.212a1052.076 1052.076 0 0037.255-7.536c.984-.153 1.446.081 1.413.718-1.669 8.216-4.031 14.242-7.079 17.766M392.802 404.9c-.478 1.251-1.354 2.094-2.681 2.575-10.45 2.917-21.808 5.897-33.996 8.907a1440.658 1440.658 0 01-20.388 4.875c-1.55.245-2.335-.158-2.47-1.271.262-14.263-.264-30.223-1.598-47.563.078-1.428.998-2.396 2.814-2.959 8.165-1.891 16.283-3.83 24.316-5.814 14.538-3.589 28.084-7.145 40.548-10.623 1.526-.283 2.286.26 2.322 1.657-1.492 18.058-4.491 34.911-8.867 50.216M442.648 388.803c-.431.816-1.013 1.751-2.063 2.494-10.591 4.07-23.432 8.32-38.531 12.762-1.095.217-1.577-.305-1.322-1.43 4.923-15.462 8.392-32.449 10.263-50.614.294-1.493 1.141-2.495 2.587-3.063 18.01-5.297 33.325-10.367 45.611-15.048.641-.046 1.366-.098 1.086 1.854-3.862 18.821-9.812 36.628-17.631 53.045M370.102 454.502c-.694.884-1.497 1.478-2.455 1.814a810.827 810.827 0 01-23.508 6.159 1008.58 1008.58 0 01-14.099 3.371c-1.384.226-1.415-.334-1.442-.828 2.209-9.509 3.655-21.111 4.316-34.491.201-1.106 1.019-1.862 2.5-2.313a1387.456 1387.456 0 0019.649-4.698c11.747-2.9 22.692-5.773 32.765-8.584 1.205-.23 1.654.205 1.374 1.331-5.066 14.497-11.476 27.357-19.1 38.239M404.85 443.279c-.62.607-1.378 1.302-2.29 1.847-7.341 2.817-16.221 5.757-26.661 8.827l-.441.043-.201-.344a4.37 4.37 0 01.374-.734c8.346-11.088 15.417-24.138 21.069-38.802.568-1.209 1.429-2.019 2.63-2.478 14.553-4.28 26.929-8.377 36.856-12.159l.412-.029c.147.256.287.497-.27 1.594-8.754 15.687-19.32 29.891-31.478 42.235M335.938 485.422c-1.118.559-1.639.737-2.02.868a366.377 366.377 0 01-10.597 2.776c-2.1.518-4.222 1.025-6.355 1.52l-.261.033-.076-.233c4.186-3.854 7.541-10.105 10.138-18.532.306-.699.943-1.183 1.949-1.479a906.956 906.956 0 0013.14-3.142 753.12 753.12 0 0021.91-5.74c.171-.034.408-.021.579.01.095.293.117.362-.286.9-8.234 9.855-17.651 17.643-28.121 23.019"/><path d="M352.029 480.226l-.661.294-2.585 1.064c-3.072 1.141-6.81 2.365-11.145 3.641.237-.189.59-.397.86-.536 11.319-5.619 21.543-13.638 30.528-23.708.797-.831 1.592-1.384 2.43-1.69 9.731-2.862 18.008-5.602 24.646-8.131-.03.443-.03.443-.82 1.16-12.954 11.379-27.445 20.806-43.253 27.906M468.206 375.862c-.869 1.538-1.184 1.963-1.583 2.502-3.605 3.015-9.985 6.404-18.977 10.153-.112.008-.262.017-.374.023-.17-.72-.17-.72.261-1.682 8.156-16.552 14.396-34.473 18.49-53.387.357-1.338.849-2.201 1.644-2.889 11.018-4.641 18.628-8.683 22.788-12.134.247.568.247.568-.125 2.092a238.744 238.744 0 01-22.124 55.322M422.667 434.258a96.231 96.231 0 01-2.201 2.012c-2.412 2.001-6.824 4.345-13.042 6.938.063-.495.063-.495.832-1.282 12.603-12.522 23.576-26.888 32.691-42.718.811-1.315 1.548-2.125 2.322-2.546 8.665-3.613 14.814-6.88 18.177-9.669-.13.508-.13.508-.954 1.816a236.502 236.502 0 01-37.825 45.449"/><path d="M398.646 453.957c-17.242 11.651-17.571 11.873-35.111 21.059a469.584 469.584 0 01-8.525 3.947c15.786-7.227 30.301-16.629 43.333-27.861 1.501-1.268 2.03-1.564 2.498-1.827 5.737-2.394 9.826-4.559 12.088-6.411-4.282 3.331-9.833 7.988-14.283 11.093"/></svg>